<?xml version="1.0" encoding="UTF-8"?>
<svg xmlns="http://www.w3.org/2000/svg" width="1024" height="1024" viewBox="0 0 1024 1024" role="img" aria-label="Biến đổi nhẹ - Cần dùng ngay • trực diện">
  
    <defs>
      <linearGradient id="bg-2" x1="0%" y1="0%" x2="100%" y2="100%">
        <stop offset="0%" stop-color="#fbfcff" />
        <stop offset="100%" stop-color="#eef2ff" />
      </linearGradient>
      
    <filter id="film-2-front" x="-20%" y="-20%" width="140%" height="140%">
      <feGaussianBlur in="SourceGraphic" stdDeviation="0.85" result="blur" />
      <feColorMatrix in="blur" type="matrix" values="0.92 0 0 0 0 0 0.92 0 0 0 0 0 0.92 0 0 0 0 0 1 0" result="contrast" />
      <feTurbulence type="fractalNoise" baseFrequency="0.0120" numOctaves="2" seed="39" result="noise" />
      <feDisplacementMap in="contrast" in2="noise" scale="4.00" xChannelSelector="R" yChannelSelector="G" result="warp" />
      <feMerge>
        <feMergeNode in="warp" />
      </feMerge>
    </filter>
  

    <filter id="film-2-tilt" x="-20%" y="-20%" width="140%" height="140%">
      <feGaussianBlur in="SourceGraphic" stdDeviation="0.85" result="blur" />
      <feColorMatrix in="blur" type="matrix" values="0.92 0 0 0 0 0 0.92 0 0 0 0 0 0.92 0 0 0 0 0 1 0" result="contrast" />
      <feTurbulence type="fractalNoise" baseFrequency="0.0120" numOctaves="2" seed="38" result="noise" />
      <feDisplacementMap in="contrast" in2="noise" scale="4.00" xChannelSelector="R" yChannelSelector="G" result="warp" />
      <feMerge>
        <feMergeNode in="warp" />
      </feMerge>
    </filter>
  

    <filter id="film-2-macro" x="-20%" y="-20%" width="140%" height="140%">
      <feGaussianBlur in="SourceGraphic" stdDeviation="0.85" result="blur" />
      <feColorMatrix in="blur" type="matrix" values="0.92 0 0 0 0 0 0.92 0 0 0 0 0 0.92 0 0 0 0 0 1 0" result="contrast" />
      <feTurbulence type="fractalNoise" baseFrequency="0.0150" numOctaves="2" seed="39" result="noise" />
      <feDisplacementMap in="contrast" in2="noise" scale="4.00" xChannelSelector="R" yChannelSelector="G" result="warp" />
      <feMerge>
        <feMergeNode in="warp" />
      </feMerge>
    </filter>
  
    </defs>
    <rect width="100%" height="100%" fill="url(#bg-2)" />
    <rect x="40" y="40" width="944" height="944" rx="72" fill="#ffffff" opacity="0.24" />
    <rect x="72" y="72" width="880" height="880" rx="58" fill="#ffffff" opacity="0.15" />
  
  
    <g transform="translate(512 512) rotate(0) skewX(0) skewY(0) scale(1) translate(-512 -512)" filter="url(#film-2-front)" opacity="0.96">
      <rect x="0" y="0" width="1024" height="1024" fill="transparent" />
      <g fill="#7486ff" shape-rendering="crispEdges">
        <rect x="178.67" y="178.67" width="26.67" height="26.67" rx="1.60" />
<rect x="205.33" y="178.67" width="26.67" height="26.67" rx="1.60" />
<rect x="232.00" y="178.67" width="26.67" height="26.67" rx="1.60" />
<rect x="258.67" y="178.67" width="26.67" height="26.67" rx="1.60" />
<rect x="285.33" y="178.67" width="26.67" height="26.67" rx="1.60" />
<rect x="312.00" y="178.67" width="26.67" height="26.67" rx="1.60" />
<rect x="338.67" y="178.67" width="26.67" height="26.67" rx="1.60" />
<rect x="418.67" y="178.67" width="26.67" height="26.67" rx="1.60" />
<rect x="472.00" y="178.67" width="26.67" height="26.67" rx="1.60" />
<rect x="525.33" y="178.67" width="26.67" height="26.67" rx="1.60" />
<rect x="552.00" y="178.67" width="26.67" height="26.67" rx="1.60" />
<rect x="578.67" y="178.67" width="26.67" height="26.67" rx="1.60" />
<rect x="658.67" y="178.67" width="26.67" height="26.67" rx="1.60" />
<rect x="685.33" y="178.67" width="26.67" height="26.67" rx="1.60" />
<rect x="712.00" y="178.67" width="26.67" height="26.67" rx="1.60" />
<rect x="738.67" y="178.67" width="26.67" height="26.67" rx="1.60" />
<rect x="765.33" y="178.67" width="26.67" height="26.67" rx="1.60" />
<rect x="792.00" y="178.67" width="26.67" height="26.67" rx="1.60" />
<rect x="818.67" y="178.67" width="26.67" height="26.67" rx="1.60" />
<rect x="178.67" y="205.33" width="26.67" height="26.67" rx="1.60" />
<rect x="338.67" y="205.33" width="26.67" height="26.67" rx="1.60" />
<rect x="392.00" y="205.33" width="26.67" height="26.67" rx="1.60" />
<rect x="418.67" y="205.33" width="26.67" height="26.67" rx="1.60" />
<rect x="445.33" y="205.33" width="26.67" height="26.67" rx="1.60" />
<rect x="472.00" y="205.33" width="26.67" height="26.67" rx="1.60" />
<rect x="552.00" y="205.33" width="26.67" height="26.67" rx="1.60" />
<rect x="658.67" y="205.33" width="26.67" height="26.67" rx="1.60" />
<rect x="818.67" y="205.33" width="26.67" height="26.67" rx="1.60" />
<rect x="178.67" y="232.00" width="26.67" height="26.67" rx="1.60" />
<rect x="232.00" y="232.00" width="26.67" height="26.67" rx="1.60" />
<rect x="258.67" y="232.00" width="26.67" height="26.67" rx="1.60" />
<rect x="285.33" y="232.00" width="26.67" height="26.67" rx="1.60" />
<rect x="338.67" y="232.00" width="26.67" height="26.67" rx="1.60" />
<rect x="392.00" y="232.00" width="26.67" height="26.67" rx="1.60" />
<rect x="445.33" y="232.00" width="26.67" height="26.67" rx="1.60" />
<rect x="498.67" y="232.00" width="26.67" height="26.67" rx="1.60" />
<rect x="525.33" y="232.00" width="26.67" height="26.67" rx="1.60" />
<rect x="658.67" y="232.00" width="26.67" height="26.67" rx="1.60" />
<rect x="712.00" y="232.00" width="26.67" height="26.67" rx="1.60" />
<rect x="738.67" y="232.00" width="26.67" height="26.67" rx="1.60" />
<rect x="765.33" y="232.00" width="26.67" height="26.67" rx="1.60" />
<rect x="818.67" y="232.00" width="26.67" height="26.67" rx="1.60" />
<rect x="178.67" y="258.67" width="26.67" height="26.67" rx="1.60" />
<rect x="232.00" y="258.67" width="26.67" height="26.67" rx="1.60" />
<rect x="258.67" y="258.67" width="26.67" height="26.67" rx="1.60" />
<rect x="285.33" y="258.67" width="26.67" height="26.67" rx="1.60" />
<rect x="338.67" y="258.67" width="26.67" height="26.67" rx="1.60" />
<rect x="392.00" y="258.67" width="26.67" height="26.67" rx="1.60" />
<rect x="418.67" y="258.67" width="26.67" height="26.67" rx="1.60" />
<rect x="472.00" y="258.67" width="26.67" height="26.67" rx="1.60" />
<rect x="552.00" y="258.67" width="26.67" height="26.67" rx="1.60" />
<rect x="658.67" y="258.67" width="26.67" height="26.67" rx="1.60" />
<rect x="712.00" y="258.67" width="26.67" height="26.67" rx="1.60" />
<rect x="738.67" y="258.67" width="26.67" height="26.67" rx="1.60" />
<rect x="765.33" y="258.67" width="26.67" height="26.67" rx="1.60" />
<rect x="818.67" y="258.67" width="26.67" height="26.67" rx="1.60" />
<rect x="178.67" y="285.33" width="26.67" height="26.67" rx="1.60" />
<rect x="232.00" y="285.33" width="26.67" height="26.67" rx="1.60" />
<rect x="258.67" y="285.33" width="26.67" height="26.67" rx="1.60" />
<rect x="285.33" y="285.33" width="26.67" height="26.67" rx="1.60" />
<rect x="338.67" y="285.33" width="26.67" height="26.67" rx="1.60" />
<rect x="392.00" y="285.33" width="26.67" height="26.67" rx="1.60" />
<rect x="418.67" y="285.33" width="26.67" height="26.67" rx="1.60" />
<rect x="472.00" y="285.33" width="26.67" height="26.67" rx="1.60" />
<rect x="525.33" y="285.33" width="26.67" height="26.67" rx="1.60" />
<rect x="552.00" y="285.33" width="26.67" height="26.67" rx="1.60" />
<rect x="578.67" y="285.33" width="26.67" height="26.67" rx="1.60" />
<rect x="658.67" y="285.33" width="26.67" height="26.67" rx="1.60" />
<rect x="712.00" y="285.33" width="26.67" height="26.67" rx="1.60" />
<rect x="738.67" y="285.33" width="26.67" height="26.67" rx="1.60" />
<rect x="765.33" y="285.33" width="26.67" height="26.67" rx="1.60" />
<rect x="818.67" y="285.33" width="26.67" height="26.67" rx="1.60" />
<rect x="178.67" y="312.00" width="26.67" height="26.67" rx="1.60" />
<rect x="338.67" y="312.00" width="26.67" height="26.67" rx="1.60" />
<rect x="392.00" y="312.00" width="26.67" height="26.67" rx="1.60" />
<rect x="445.33" y="312.00" width="26.67" height="26.67" rx="1.60" />
<rect x="472.00" y="312.00" width="26.67" height="26.67" rx="1.60" />
<rect x="498.67" y="312.00" width="26.67" height="26.67" rx="1.60" />
<rect x="525.33" y="312.00" width="26.67" height="26.67" rx="1.60" />
<rect x="578.67" y="312.00" width="26.67" height="26.67" rx="1.60" />
<rect x="605.33" y="312.00" width="26.67" height="26.67" rx="1.60" />
<rect x="658.67" y="312.00" width="26.67" height="26.67" rx="1.60" />
<rect x="818.67" y="312.00" width="26.67" height="26.67" rx="1.60" />
<rect x="178.67" y="338.67" width="26.67" height="26.67" rx="1.60" />
<rect x="205.33" y="338.67" width="26.67" height="26.67" rx="1.60" />
<rect x="232.00" y="338.67" width="26.67" height="26.67" rx="1.60" />
<rect x="258.67" y="338.67" width="26.67" height="26.67" rx="1.60" />
<rect x="285.33" y="338.67" width="26.67" height="26.67" rx="1.60" />
<rect x="312.00" y="338.67" width="26.67" height="26.67" rx="1.60" />
<rect x="338.67" y="338.67" width="26.67" height="26.67" rx="1.60" />
<rect x="392.00" y="338.67" width="26.67" height="26.67" rx="1.60" />
<rect x="445.33" y="338.67" width="26.67" height="26.67" rx="1.60" />
<rect x="498.67" y="338.67" width="26.67" height="26.67" rx="1.60" />
<rect x="552.00" y="338.67" width="26.67" height="26.67" rx="1.60" />
<rect x="605.33" y="338.67" width="26.67" height="26.67" rx="1.60" />
<rect x="658.67" y="338.67" width="26.67" height="26.67" rx="1.60" />
<rect x="685.33" y="338.67" width="26.67" height="26.67" rx="1.60" />
<rect x="712.00" y="338.67" width="26.67" height="26.67" rx="1.60" />
<rect x="738.67" y="338.67" width="26.67" height="26.67" rx="1.60" />
<rect x="765.33" y="338.67" width="26.67" height="26.67" rx="1.60" />
<rect x="792.00" y="338.67" width="26.67" height="26.67" rx="1.60" />
<rect x="818.67" y="338.67" width="26.67" height="26.67" rx="1.60" />
<rect x="418.67" y="365.33" width="26.67" height="26.67" rx="1.60" />
<rect x="552.00" y="365.33" width="26.67" height="26.67" rx="1.60" />
<rect x="578.67" y="365.33" width="26.67" height="26.67" rx="1.60" />
<rect x="605.33" y="365.33" width="26.67" height="26.67" rx="1.60" />
<rect x="232.00" y="392.00" width="26.67" height="26.67" rx="1.60" />
<rect x="312.00" y="392.00" width="26.67" height="26.67" rx="1.60" />
<rect x="338.67" y="392.00" width="26.67" height="26.67" rx="1.60" />
<rect x="365.33" y="392.00" width="26.67" height="26.67" rx="1.60" />
<rect x="392.00" y="392.00" width="26.67" height="26.67" rx="1.60" />
<rect x="418.67" y="392.00" width="26.67" height="26.67" rx="1.60" />
<rect x="472.00" y="392.00" width="26.67" height="26.67" rx="1.60" />
<rect x="498.67" y="392.00" width="26.67" height="26.67" rx="1.60" />
<rect x="578.67" y="392.00" width="26.67" height="26.67" rx="1.60" />
<rect x="632.00" y="392.00" width="26.67" height="26.67" rx="1.60" />
<rect x="685.33" y="392.00" width="26.67" height="26.67" rx="1.60" />
<rect x="712.00" y="392.00" width="26.67" height="26.67" rx="1.60" />
<rect x="738.67" y="392.00" width="26.67" height="26.67" rx="1.60" />
<rect x="765.33" y="392.00" width="26.67" height="26.67" rx="1.60" />
<rect x="792.00" y="392.00" width="26.67" height="26.67" rx="1.60" />
<rect x="258.67" y="418.67" width="26.67" height="26.67" rx="1.60" />
<rect x="365.33" y="418.67" width="26.67" height="26.67" rx="1.60" />
<rect x="418.67" y="418.67" width="26.67" height="26.67" rx="1.60" />
<rect x="445.33" y="418.67" width="26.67" height="26.67" rx="1.60" />
<rect x="472.00" y="418.67" width="26.67" height="26.67" rx="1.60" />
<rect x="525.33" y="418.67" width="26.67" height="26.67" rx="1.60" />
<rect x="552.00" y="418.67" width="26.67" height="26.67" rx="1.60" />
<rect x="632.00" y="418.67" width="26.67" height="26.67" rx="1.60" />
<rect x="658.67" y="418.67" width="26.67" height="26.67" rx="1.60" />
<rect x="685.33" y="418.67" width="26.67" height="26.67" rx="1.60" />
<rect x="712.00" y="418.67" width="26.67" height="26.67" rx="1.60" />
<rect x="765.33" y="418.67" width="26.67" height="26.67" rx="1.60" />
<rect x="792.00" y="418.67" width="26.67" height="26.67" rx="1.60" />
<rect x="178.67" y="445.33" width="26.67" height="26.67" rx="1.60" />
<rect x="205.33" y="445.33" width="26.67" height="26.67" rx="1.60" />
<rect x="285.33" y="445.33" width="26.67" height="26.67" rx="1.60" />
<rect x="338.67" y="445.33" width="26.67" height="26.67" rx="1.60" />
<rect x="365.33" y="445.33" width="26.67" height="26.67" rx="1.60" />
<rect x="445.33" y="445.33" width="26.67" height="26.67" rx="1.60" />
<rect x="472.00" y="445.33" width="26.67" height="26.67" rx="1.60" />
<rect x="525.33" y="445.33" width="26.67" height="26.67" rx="1.60" />
<rect x="578.67" y="445.33" width="26.67" height="26.67" rx="1.60" />
<rect x="605.33" y="445.33" width="26.67" height="26.67" rx="1.60" />
<rect x="632.00" y="445.33" width="26.67" height="26.67" rx="1.60" />
<rect x="685.33" y="445.33" width="26.67" height="26.67" rx="1.60" />
<rect x="792.00" y="445.33" width="26.67" height="26.67" rx="1.60" />
<rect x="178.67" y="472.00" width="26.67" height="26.67" rx="1.60" />
<rect x="285.33" y="472.00" width="26.67" height="26.67" rx="1.60" />
<rect x="392.00" y="472.00" width="26.67" height="26.67" rx="1.60" />
<rect x="445.33" y="472.00" width="26.67" height="26.67" rx="1.60" />
<rect x="498.67" y="472.00" width="26.67" height="26.67" rx="1.60" />
<rect x="632.00" y="472.00" width="26.67" height="26.67" rx="1.60" />
<rect x="712.00" y="472.00" width="26.67" height="26.67" rx="1.60" />
<rect x="818.67" y="472.00" width="26.67" height="26.67" rx="1.60" />
<rect x="178.67" y="498.67" width="26.67" height="26.67" rx="1.60" />
<rect x="258.67" y="498.67" width="26.67" height="26.67" rx="1.60" />
<rect x="285.33" y="498.67" width="26.67" height="26.67" rx="1.60" />
<rect x="338.67" y="498.67" width="26.67" height="26.67" rx="1.60" />
<rect x="445.33" y="498.67" width="26.67" height="26.67" rx="1.60" />
<rect x="525.33" y="498.67" width="26.67" height="26.67" rx="1.60" />
<rect x="658.67" y="498.67" width="26.67" height="26.67" rx="1.60" />
<rect x="685.33" y="498.67" width="26.67" height="26.67" rx="1.60" />
<rect x="712.00" y="498.67" width="26.67" height="26.67" rx="1.60" />
<rect x="232.00" y="525.33" width="26.67" height="26.67" rx="1.60" />
<rect x="285.33" y="525.33" width="26.67" height="26.67" rx="1.60" />
<rect x="472.00" y="525.33" width="26.67" height="26.67" rx="1.60" />
<rect x="498.67" y="525.33" width="26.67" height="26.67" rx="1.60" />
<rect x="685.33" y="525.33" width="26.67" height="26.67" rx="1.60" />
<rect x="738.67" y="525.33" width="26.67" height="26.67" rx="1.60" />
<rect x="792.00" y="525.33" width="26.67" height="26.67" rx="1.60" />
<rect x="178.67" y="552.00" width="26.67" height="26.67" rx="1.60" />
<rect x="205.33" y="552.00" width="26.67" height="26.67" rx="1.60" />
<rect x="232.00" y="552.00" width="26.67" height="26.67" rx="1.60" />
<rect x="258.67" y="552.00" width="26.67" height="26.67" rx="1.60" />
<rect x="285.33" y="552.00" width="26.67" height="26.67" rx="1.60" />
<rect x="338.67" y="552.00" width="26.67" height="26.67" rx="1.60" />
<rect x="365.33" y="552.00" width="26.67" height="26.67" rx="1.60" />
<rect x="392.00" y="552.00" width="26.67" height="26.67" rx="1.60" />
<rect x="418.67" y="552.00" width="26.67" height="26.67" rx="1.60" />
<rect x="445.33" y="552.00" width="26.67" height="26.67" rx="1.60" />
<rect x="472.00" y="552.00" width="26.67" height="26.67" rx="1.60" />
<rect x="498.67" y="552.00" width="26.67" height="26.67" rx="1.60" />
<rect x="525.33" y="552.00" width="26.67" height="26.67" rx="1.60" />
<rect x="552.00" y="552.00" width="26.67" height="26.67" rx="1.60" />
<rect x="578.67" y="552.00" width="26.67" height="26.67" rx="1.60" />
<rect x="632.00" y="552.00" width="26.67" height="26.67" rx="1.60" />
<rect x="738.67" y="552.00" width="26.67" height="26.67" rx="1.60" />
<rect x="765.33" y="552.00" width="26.67" height="26.67" rx="1.60" />
<rect x="258.67" y="578.67" width="26.67" height="26.67" rx="1.60" />
<rect x="312.00" y="578.67" width="26.67" height="26.67" rx="1.60" />
<rect x="365.33" y="578.67" width="26.67" height="26.67" rx="1.60" />
<rect x="392.00" y="578.67" width="26.67" height="26.67" rx="1.60" />
<rect x="632.00" y="578.67" width="26.67" height="26.67" rx="1.60" />
<rect x="712.00" y="578.67" width="26.67" height="26.67" rx="1.60" />
<rect x="738.67" y="578.67" width="26.67" height="26.67" rx="1.60" />
<rect x="818.67" y="578.67" width="26.67" height="26.67" rx="1.60" />
<rect x="178.67" y="605.33" width="26.67" height="26.67" rx="1.60" />
<rect x="205.33" y="605.33" width="26.67" height="26.67" rx="1.60" />
<rect x="312.00" y="605.33" width="26.67" height="26.67" rx="1.60" />
<rect x="338.67" y="605.33" width="26.67" height="26.67" rx="1.60" />
<rect x="365.33" y="605.33" width="26.67" height="26.67" rx="1.60" />
<rect x="392.00" y="605.33" width="26.67" height="26.67" rx="1.60" />
<rect x="418.67" y="605.33" width="26.67" height="26.67" rx="1.60" />
<rect x="498.67" y="605.33" width="26.67" height="26.67" rx="1.60" />
<rect x="525.33" y="605.33" width="26.67" height="26.67" rx="1.60" />
<rect x="578.67" y="605.33" width="26.67" height="26.67" rx="1.60" />
<rect x="605.33" y="605.33" width="26.67" height="26.67" rx="1.60" />
<rect x="632.00" y="605.33" width="26.67" height="26.67" rx="1.60" />
<rect x="658.67" y="605.33" width="26.67" height="26.67" rx="1.60" />
<rect x="685.33" y="605.33" width="26.67" height="26.67" rx="1.60" />
<rect x="712.00" y="605.33" width="26.67" height="26.67" rx="1.60" />
<rect x="765.33" y="605.33" width="26.67" height="26.67" rx="1.60" />
<rect x="792.00" y="605.33" width="26.67" height="26.67" rx="1.60" />
<rect x="392.00" y="632.00" width="26.67" height="26.67" rx="1.60" />
<rect x="445.33" y="632.00" width="26.67" height="26.67" rx="1.60" />
<rect x="498.67" y="632.00" width="26.67" height="26.67" rx="1.60" />
<rect x="605.33" y="632.00" width="26.67" height="26.67" rx="1.60" />
<rect x="712.00" y="632.00" width="26.67" height="26.67" rx="1.60" />
<rect x="738.67" y="632.00" width="26.67" height="26.67" rx="1.60" />
<rect x="178.67" y="658.67" width="26.67" height="26.67" rx="1.60" />
<rect x="205.33" y="658.67" width="26.67" height="26.67" rx="1.60" />
<rect x="232.00" y="658.67" width="26.67" height="26.67" rx="1.60" />
<rect x="258.67" y="658.67" width="26.67" height="26.67" rx="1.60" />
<rect x="285.33" y="658.67" width="26.67" height="26.67" rx="1.60" />
<rect x="312.00" y="658.67" width="26.67" height="26.67" rx="1.60" />
<rect x="338.67" y="658.67" width="26.67" height="26.67" rx="1.60" />
<rect x="392.00" y="658.67" width="26.67" height="26.67" rx="1.60" />
<rect x="445.33" y="658.67" width="26.67" height="26.67" rx="1.60" />
<rect x="498.67" y="658.67" width="26.67" height="26.67" rx="1.60" />
<rect x="525.33" y="658.67" width="26.67" height="26.67" rx="1.60" />
<rect x="552.00" y="658.67" width="26.67" height="26.67" rx="1.60" />
<rect x="578.67" y="658.67" width="26.67" height="26.67" rx="1.60" />
<rect x="605.33" y="658.67" width="26.67" height="26.67" rx="1.60" />
<rect x="658.67" y="658.67" width="26.67" height="26.67" rx="1.60" />
<rect x="712.00" y="658.67" width="26.67" height="26.67" rx="1.60" />
<rect x="178.67" y="685.33" width="26.67" height="26.67" rx="1.60" />
<rect x="338.67" y="685.33" width="26.67" height="26.67" rx="1.60" />
<rect x="392.00" y="685.33" width="26.67" height="26.67" rx="1.60" />
<rect x="418.67" y="685.33" width="26.67" height="26.67" rx="1.60" />
<rect x="498.67" y="685.33" width="26.67" height="26.67" rx="1.60" />
<rect x="578.67" y="685.33" width="26.67" height="26.67" rx="1.60" />
<rect x="605.33" y="685.33" width="26.67" height="26.67" rx="1.60" />
<rect x="712.00" y="685.33" width="26.67" height="26.67" rx="1.60" />
<rect x="178.67" y="712.00" width="26.67" height="26.67" rx="1.60" />
<rect x="232.00" y="712.00" width="26.67" height="26.67" rx="1.60" />
<rect x="258.67" y="712.00" width="26.67" height="26.67" rx="1.60" />
<rect x="285.33" y="712.00" width="26.67" height="26.67" rx="1.60" />
<rect x="338.67" y="712.00" width="26.67" height="26.67" rx="1.60" />
<rect x="418.67" y="712.00" width="26.67" height="26.67" rx="1.60" />
<rect x="445.33" y="712.00" width="26.67" height="26.67" rx="1.60" />
<rect x="498.67" y="712.00" width="26.67" height="26.67" rx="1.60" />
<rect x="552.00" y="712.00" width="26.67" height="26.67" rx="1.60" />
<rect x="605.33" y="712.00" width="26.67" height="26.67" rx="1.60" />
<rect x="632.00" y="712.00" width="26.67" height="26.67" rx="1.60" />
<rect x="658.67" y="712.00" width="26.67" height="26.67" rx="1.60" />
<rect x="685.33" y="712.00" width="26.67" height="26.67" rx="1.60" />
<rect x="712.00" y="712.00" width="26.67" height="26.67" rx="1.60" />
<rect x="765.33" y="712.00" width="26.67" height="26.67" rx="1.60" />
<rect x="792.00" y="712.00" width="26.67" height="26.67" rx="1.60" />
<rect x="178.67" y="738.67" width="26.67" height="26.67" rx="1.60" />
<rect x="232.00" y="738.67" width="26.67" height="26.67" rx="1.60" />
<rect x="258.67" y="738.67" width="26.67" height="26.67" rx="1.60" />
<rect x="285.33" y="738.67" width="26.67" height="26.67" rx="1.60" />
<rect x="338.67" y="738.67" width="26.67" height="26.67" rx="1.60" />
<rect x="418.67" y="738.67" width="26.67" height="26.67" rx="1.60" />
<rect x="498.67" y="738.67" width="26.67" height="26.67" rx="1.60" />
<rect x="605.33" y="738.67" width="26.67" height="26.67" rx="1.60" />
<rect x="685.33" y="738.67" width="26.67" height="26.67" rx="1.60" />
<rect x="712.00" y="738.67" width="26.67" height="26.67" rx="1.60" />
<rect x="738.67" y="738.67" width="26.67" height="26.67" rx="1.60" />
<rect x="178.67" y="765.33" width="26.67" height="26.67" rx="1.60" />
<rect x="232.00" y="765.33" width="26.67" height="26.67" rx="1.60" />
<rect x="258.67" y="765.33" width="26.67" height="26.67" rx="1.60" />
<rect x="285.33" y="765.33" width="26.67" height="26.67" rx="1.60" />
<rect x="338.67" y="765.33" width="26.67" height="26.67" rx="1.60" />
<rect x="392.00" y="765.33" width="26.67" height="26.67" rx="1.60" />
<rect x="445.33" y="765.33" width="26.67" height="26.67" rx="1.60" />
<rect x="472.00" y="765.33" width="26.67" height="26.67" rx="1.60" />
<rect x="498.67" y="765.33" width="26.67" height="26.67" rx="1.60" />
<rect x="525.33" y="765.33" width="26.67" height="26.67" rx="1.60" />
<rect x="552.00" y="765.33" width="26.67" height="26.67" rx="1.60" />
<rect x="632.00" y="765.33" width="26.67" height="26.67" rx="1.60" />
<rect x="712.00" y="765.33" width="26.67" height="26.67" rx="1.60" />
<rect x="738.67" y="765.33" width="26.67" height="26.67" rx="1.60" />
<rect x="765.33" y="765.33" width="26.67" height="26.67" rx="1.60" />
<rect x="792.00" y="765.33" width="26.67" height="26.67" rx="1.60" />
<rect x="818.67" y="765.33" width="26.67" height="26.67" rx="1.60" />
<rect x="178.67" y="792.00" width="26.67" height="26.67" rx="1.60" />
<rect x="338.67" y="792.00" width="26.67" height="26.67" rx="1.60" />
<rect x="418.67" y="792.00" width="26.67" height="26.67" rx="1.60" />
<rect x="445.33" y="792.00" width="26.67" height="26.67" rx="1.60" />
<rect x="498.67" y="792.00" width="26.67" height="26.67" rx="1.60" />
<rect x="552.00" y="792.00" width="26.67" height="26.67" rx="1.60" />
<rect x="685.33" y="792.00" width="26.67" height="26.67" rx="1.60" />
<rect x="818.67" y="792.00" width="26.67" height="26.67" rx="1.60" />
<rect x="178.67" y="818.67" width="26.67" height="26.67" rx="1.60" />
<rect x="205.33" y="818.67" width="26.67" height="26.67" rx="1.60" />
<rect x="232.00" y="818.67" width="26.67" height="26.67" rx="1.60" />
<rect x="258.67" y="818.67" width="26.67" height="26.67" rx="1.60" />
<rect x="285.33" y="818.67" width="26.67" height="26.67" rx="1.60" />
<rect x="312.00" y="818.67" width="26.67" height="26.67" rx="1.60" />
<rect x="338.67" y="818.67" width="26.67" height="26.67" rx="1.60" />
<rect x="418.67" y="818.67" width="26.67" height="26.67" rx="1.60" />
<rect x="498.67" y="818.67" width="26.67" height="26.67" rx="1.60" />
<rect x="578.67" y="818.67" width="26.67" height="26.67" rx="1.60" />
<rect x="605.33" y="818.67" width="26.67" height="26.67" rx="1.60" />
<rect x="632.00" y="818.67" width="26.67" height="26.67" rx="1.60" />
<rect x="712.00" y="818.67" width="26.67" height="26.67" rx="1.60" />
<rect x="765.33" y="818.67" width="26.67" height="26.67" rx="1.60" />
<rect x="792.00" y="818.67" width="26.67" height="26.67" rx="1.60" />
<rect x="818.67" y="818.67" width="26.67" height="26.67" rx="1.60" />
      </g>
      
      <g fill="#d8d4f9" opacity="0.05">
        <ellipse cx="342" cy="394" rx="39" ry="17" transform="rotate(-2 342 394)" fill="#f5eab0" opacity="0.04" />
<ellipse cx="359" cy="225" rx="109" ry="14" transform="rotate(-30 359 225)" fill="#f5eab0" opacity="0.04" />
<ellipse cx="303" cy="76" rx="79" ry="27" transform="rotate(27 303 76)" fill="#f5eab0" opacity="0.04" />
<ellipse cx="256" cy="609" rx="40" ry="21" transform="rotate(20 256 609)" fill="#f5eab0" opacity="0.04" />
<ellipse cx="136" cy="573" rx="71" ry="18" transform="rotate(-17 136 573)" fill="#f5eab0" opacity="0.04" />
<ellipse cx="169" cy="822" rx="94" ry="24" transform="rotate(-3 169 822)" fill="#f5eab0" opacity="0.04" />
<ellipse cx="477" cy="452" rx="124" ry="20" transform="rotate(27 477 452)" fill="#f5eab0" opacity="0.04" />
<ellipse cx="126" cy="757" rx="113" ry="27" transform="rotate(-28 126 757)" fill="#f5eab0" opacity="0.04" />
<ellipse cx="283" cy="152" rx="78" ry="20" transform="rotate(2 283 152)" fill="#f5eab0" opacity="0.04" />
<ellipse cx="199" cy="541" rx="67" ry="14" transform="rotate(-22 199 541)" fill="#f5eab0" opacity="0.04" />
<ellipse cx="119" cy="332" rx="94" ry="20" transform="rotate(8 119 332)" fill="#f5eab0" opacity="0.04" />
<ellipse cx="726" cy="851" rx="140" ry="27" transform="rotate(25 726 851)" fill="#f5eab0" opacity="0.04" />
<ellipse cx="100" cy="582" rx="45" ry="27" transform="rotate(-13 100 582)" fill="#f5eab0" opacity="0.04" />
<ellipse cx="57" cy="851" rx="92" ry="29" transform="rotate(29 57 851)" fill="#f5eab0" opacity="0.04" />
<ellipse cx="85" cy="82" rx="91" ry="31" transform="rotate(-28 85 82)" fill="#f5eab0" opacity="0.04" />
<ellipse cx="593" cy="207" rx="87" ry="24" transform="rotate(19 593 207)" fill="#f5eab0" opacity="0.04" />
<ellipse cx="856" cy="15" rx="73" ry="25" transform="rotate(29 856 15)" fill="#f5eab0" opacity="0.04" />
<ellipse cx="805" cy="234" rx="45" ry="13" transform="rotate(-19 805 234)" fill="#f5eab0" opacity="0.04" />
      </g>
      <g opacity="0.12">
        <circle cx="382" cy="990" r="1.52" fill="#7a6f52" opacity="0.080" />
<circle cx="990" cy="590" r="1.31" fill="#7a6f52" opacity="0.080" />
<circle cx="590" cy="492" r="0.70" fill="#7a6f52" opacity="0.080" />
<circle cx="492" cy="209" r="2.29" fill="#7a6f52" opacity="0.080" />
<circle cx="209" cy="948" r="1.83" fill="#7a6f52" opacity="0.080" />
<circle cx="948" cy="735" r="0.54" fill="#7a6f52" opacity="0.080" />
<circle cx="735" cy="135" r="1.06" fill="#7a6f52" opacity="0.080" />
<circle cx="135" cy="376" r="1.53" fill="#7a6f52" opacity="0.080" />
<circle cx="376" cy="595" r="1.02" fill="#7a6f52" opacity="0.080" />
<circle cx="595" cy="357" r="1.64" fill="#7a6f52" opacity="0.080" />
<circle cx="357" cy="646" r="1.17" fill="#7a6f52" opacity="0.080" />
<circle cx="646" cy="428" r="0.35" fill="#7a6f52" opacity="0.080" />
<circle cx="428" cy="44" r="1.30" fill="#7a6f52" opacity="0.080" />
<circle cx="44" cy="491" r="1.17" fill="#7a6f52" opacity="0.080" />
<circle cx="491" cy="426" r="0.63" fill="#7a6f52" opacity="0.080" />
<circle cx="426" cy="175" r="0.37" fill="#7a6f52" opacity="0.080" />
<circle cx="175" cy="58" r="1.05" fill="#7a6f52" opacity="0.080" />
<circle cx="58" cy="373" r="0.46" fill="#7a6f52" opacity="0.080" />
<circle cx="373" cy="98" r="0.38" fill="#7a6f52" opacity="0.080" />
<circle cx="98" cy="63" r="1.02" fill="#7a6f52" opacity="0.080" />
<circle cx="63" cy="360" r="0.81" fill="#7a6f52" opacity="0.080" />
<circle cx="360" cy="260" r="0.30" fill="#7a6f52" opacity="0.080" />
<circle cx="260" cy="21" r="0.55" fill="#7a6f52" opacity="0.080" />
<circle cx="21" cy="141" r="2.43" fill="#7a6f52" opacity="0.080" />
<circle cx="141" cy="1013" r="1.94" fill="#7a6f52" opacity="0.080" />
<circle cx="1013" cy="787" r="1.97" fill="#7a6f52" opacity="0.080" />
<circle cx="787" cy="800" r="1.66" fill="#7a6f52" opacity="0.080" />
<circle cx="800" cy="658" r="1.05" fill="#7a6f52" opacity="0.080" />
<circle cx="658" cy="371" r="2.40" fill="#7a6f52" opacity="0.080" />
<circle cx="371" cy="1000" r="1.06" fill="#7a6f52" opacity="0.080" />
<circle cx="1000" cy="376" r="0.73" fill="#7a6f52" opacity="0.080" />
<circle cx="376" cy="222" r="1.19" fill="#7a6f52" opacity="0.080" />
<circle cx="222" cy="435" r="1.12" fill="#7a6f52" opacity="0.080" />
<circle cx="435" cy="406" r="0.67" fill="#7a6f52" opacity="0.080" />
<circle cx="406" cy="197" r="1.69" fill="#7a6f52" opacity="0.080" />
<circle cx="197" cy="669" r="1.50" fill="#7a6f52" opacity="0.080" />
<circle cx="669" cy="584" r="2.15" fill="#7a6f52" opacity="0.080" />
<circle cx="584" cy="883" r="1.78" fill="#7a6f52" opacity="0.080" />
<circle cx="883" cy="712" r="1.00" fill="#7a6f52" opacity="0.080" />
<circle cx="712" cy="348" r="2.39" fill="#7a6f52" opacity="0.080" />
<circle cx="348" cy="995" r="0.54" fill="#7a6f52" opacity="0.080" />
<circle cx="995" cy="136" r="1.32" fill="#7a6f52" opacity="0.080" />
<circle cx="136" cy="497" r="0.31" fill="#7a6f52" opacity="0.080" />
<circle cx="497" cy="26" r="2.14" fill="#7a6f52" opacity="0.080" />
<circle cx="26" cy="879" r="1.39" fill="#7a6f52" opacity="0.080" />
<circle cx="879" cy="530" r="2.34" fill="#7a6f52" opacity="0.080" />
<circle cx="530" cy="974" r="2.02" fill="#7a6f52" opacity="0.080" />
<circle cx="974" cy="822" r="2.32" fill="#7a6f52" opacity="0.080" />
<circle cx="822" cy="964" r="2.44" fill="#7a6f52" opacity="0.080" />
<circle cx="964" cy="1021" r="1.60" fill="#7a6f52" opacity="0.080" />
<circle cx="1021" cy="626" r="2.26" fill="#7a6f52" opacity="0.080" />
<circle cx="626" cy="936" r="0.41" fill="#7a6f52" opacity="0.080" />
<circle cx="936" cy="72" r="0.98" fill="#7a6f52" opacity="0.080" />
<circle cx="72" cy="338" r="0.79" fill="#7a6f52" opacity="0.080" />
<circle cx="338" cy="252" r="1.14" fill="#7a6f52" opacity="0.080" />
<circle cx="252" cy="414" r="1.64" fill="#7a6f52" opacity="0.080" />
<circle cx="414" cy="646" r="2.30" fill="#7a6f52" opacity="0.080" />
<circle cx="646" cy="955" r="0.43" fill="#7a6f52" opacity="0.080" />
<circle cx="955" cy="85" r="2.45" fill="#7a6f52" opacity="0.080" />
<circle cx="85" cy="1024" r="2.35" fill="#7a6f52" opacity="0.080" />
<circle cx="1024" cy="976" r="2.16" fill="#7a6f52" opacity="0.080" />
<circle cx="976" cy="888" r="1.90" fill="#7a6f52" opacity="0.080" />
<circle cx="888" cy="767" r="0.36" fill="#7a6f52" opacity="0.080" />
<circle cx="767" cy="53" r="2.30" fill="#7a6f52" opacity="0.080" />
<circle cx="53" cy="953" r="0.58" fill="#7a6f52" opacity="0.080" />
<circle cx="953" cy="155" r="0.34" fill="#7a6f52" opacity="0.080" />
<circle cx="155" cy="44" r="1.51" fill="#7a6f52" opacity="0.080" />
<circle cx="44" cy="586" r="1.49" fill="#7a6f52" opacity="0.080" />
<circle cx="586" cy="575" r="1.59" fill="#7a6f52" opacity="0.080" />
<circle cx="575" cy="624" r="2.22" fill="#7a6f52" opacity="0.080" />
<circle cx="624" cy="918" r="1.93" fill="#7a6f52" opacity="0.080" />
<circle cx="918" cy="784" r="1.26" fill="#7a6f52" opacity="0.080" />
<circle cx="784" cy="468" r="0.70" fill="#7a6f52" opacity="0.080" />
<circle cx="468" cy="207" r="1.35" fill="#7a6f52" opacity="0.080" />
<circle cx="207" cy="510" r="1.17" fill="#7a6f52" opacity="0.080" />
<circle cx="510" cy="430" r="1.01" fill="#7a6f52" opacity="0.080" />
<circle cx="430" cy="356" r="1.76" fill="#7a6f52" opacity="0.080" />
<circle cx="356" cy="704" r="1.55" fill="#7a6f52" opacity="0.080" />
<circle cx="704" cy="606" r="0.83" fill="#7a6f52" opacity="0.080" />
<circle cx="606" cy="271" r="0.55" fill="#7a6f52" opacity="0.080" />
<circle cx="271" cy="140" r="1.61" fill="#7a6f52" opacity="0.080" />
<circle cx="140" cy="632" r="2.45" fill="#7a6f52" opacity="0.080" />
<circle cx="632" cy="1024" r="0.90" fill="#7a6f52" opacity="0.080" />
<circle cx="1024" cy="302" r="0.96" fill="#7a6f52" opacity="0.080" />
<circle cx="302" cy="331" r="2.18" fill="#7a6f52" opacity="0.080" />
<circle cx="331" cy="899" r="0.93" fill="#7a6f52" opacity="0.080" />
<circle cx="899" cy="318" r="1.62" fill="#7a6f52" opacity="0.080" />
<circle cx="318" cy="638" r="0.49" fill="#7a6f52" opacity="0.080" />
<circle cx="638" cy="114" r="1.67" fill="#7a6f52" opacity="0.080" />
<circle cx="114" cy="659" r="0.55" fill="#7a6f52" opacity="0.080" />
<circle cx="659" cy="138" r="1.60" fill="#7a6f52" opacity="0.080" />
<circle cx="138" cy="630" r="0.87" fill="#7a6f52" opacity="0.080" />
<circle cx="630" cy="289" r="0.30" fill="#7a6f52" opacity="0.080" />
<circle cx="289" cy="23" r="0.51" fill="#7a6f52" opacity="0.080" />
<circle cx="23" cy="119" r="1.09" fill="#7a6f52" opacity="0.080" />
<circle cx="119" cy="392" r="0.65" fill="#7a6f52" opacity="0.080" />
<circle cx="392" cy="186" r="1.68" fill="#7a6f52" opacity="0.080" />
<circle cx="186" cy="664" r="1.91" fill="#7a6f52" opacity="0.080" />
<circle cx="664" cy="775" r="0.72" fill="#7a6f52" opacity="0.080" />
<circle cx="775" cy="217" r="0.97" fill="#7a6f52" opacity="0.080" />
<circle cx="217" cy="336" r="0.87" fill="#7a6f52" opacity="0.080" />
<circle cx="336" cy="287" r="0.41" fill="#7a6f52" opacity="0.080" />
<circle cx="287" cy="74" r="1.58" fill="#7a6f52" opacity="0.080" />
<circle cx="74" cy="620" r="2.35" fill="#7a6f52" opacity="0.080" />
<circle cx="620" cy="978" r="2.09" fill="#7a6f52" opacity="0.080" />
<circle cx="978" cy="855" r="2.00" fill="#7a6f52" opacity="0.080" />
<circle cx="855" cy="815" r="1.34" fill="#7a6f52" opacity="0.080" />
<circle cx="815" cy="506" r="1.22" fill="#7a6f52" opacity="0.080" />
<circle cx="506" cy="454" r="1.30" fill="#7a6f52" opacity="0.080" />
<circle cx="454" cy="486" r="1.68" fill="#7a6f52" opacity="0.080" />
<circle cx="486" cy="667" r="0.55" fill="#7a6f52" opacity="0.080" />
<circle cx="667" cy="139" r="1.19" fill="#7a6f52" opacity="0.080" />
<circle cx="139" cy="436" r="1.21" fill="#7a6f52" opacity="0.080" />
<circle cx="436" cy="445" r="2.37" fill="#7a6f52" opacity="0.080" />
<circle cx="445" cy="985" r="1.82" fill="#7a6f52" opacity="0.080" />
<circle cx="985" cy="731" r="2.23" fill="#7a6f52" opacity="0.080" />
<circle cx="731" cy="922" r="1.36" fill="#7a6f52" opacity="0.080" />
<circle cx="922" cy="517" r="1.49" fill="#7a6f52" opacity="0.080" />
<circle cx="517" cy="579" r="0.73" fill="#7a6f52" opacity="0.080" />
<circle cx="579" cy="225" r="2.11" fill="#7a6f52" opacity="0.080" />
      </g>
    </g>
  
  <g opacity="0.12">
    <circle cx="120" cy="130" r="84" fill="#ffffff" />
    <circle cx="900" cy="166" r="96" fill="#ffffff" />
    <circle cx="856" cy="860" r="124" fill="#ffffff" />
  </g>
  <text x="72" y="974" font-family="Arial, Helvetica, sans-serif" font-size="26" font-weight="700" fill="#334155" opacity="0.72">Biến đổi nhẹ - Cần dùng ngay</text>
  <text x="72" y="1002" font-family="Arial, Helvetica, sans-serif" font-size="16" fill="#475569" opacity="0.74">QR-ORIGINAL-FRESH • trực diện</text>
</svg>