<?xml version="1.0" encoding="UTF-8"?>
<svg xmlns="http://www.w3.org/2000/svg" width="1024" height="1024" viewBox="0 0 1024 1024" role="img" aria-label="Cảnh báo - Biến dạng nặng • góc nghiêng">
  
    <defs>
      <linearGradient id="bg-3" x1="0%" y1="0%" x2="100%" y2="100%">
        <stop offset="0%" stop-color="#f4f8ef" />
        <stop offset="100%" stop-color="#e7edd9" />
      </linearGradient>
      
    <filter id="film-3-front" x="-20%" y="-20%" width="140%" height="140%">
      <feGaussianBlur in="SourceGraphic" stdDeviation="0.45" result="blur" />
      <feColorMatrix in="blur" type="matrix" values="0.78 0 0 0 0 0 0.78 0 0 0 0 0 0.78 0 0 0 0 0 1 0" result="contrast" />
      <feTurbulence type="fractalNoise" baseFrequency="0.0140" numOctaves="2" seed="56" result="noise" />
      <feDisplacementMap in="contrast" in2="noise" scale="12.00" xChannelSelector="R" yChannelSelector="G" result="warp" />
      <feMerge>
        <feMergeNode in="warp" />
      </feMerge>
    </filter>
  

    <filter id="film-3-tilt" x="-20%" y="-20%" width="140%" height="140%">
      <feGaussianBlur in="SourceGraphic" stdDeviation="0.45" result="blur" />
      <feColorMatrix in="blur" type="matrix" values="0.78 0 0 0 0 0 0.78 0 0 0 0 0 0.78 0 0 0 0 0 1 0" result="contrast" />
      <feTurbulence type="fractalNoise" baseFrequency="0.0140" numOctaves="2" seed="55" result="noise" />
      <feDisplacementMap in="contrast" in2="noise" scale="12.00" xChannelSelector="R" yChannelSelector="G" result="warp" />
      <feMerge>
        <feMergeNode in="warp" />
      </feMerge>
    </filter>
  

    <filter id="film-3-macro" x="-20%" y="-20%" width="140%" height="140%">
      <feGaussianBlur in="SourceGraphic" stdDeviation="0.45" result="blur" />
      <feColorMatrix in="blur" type="matrix" values="0.78 0 0 0 0 0 0.78 0 0 0 0 0 0.78 0 0 0 0 0 1 0" result="contrast" />
      <feTurbulence type="fractalNoise" baseFrequency="0.0170" numOctaves="2" seed="56" result="noise" />
      <feDisplacementMap in="contrast" in2="noise" scale="12.00" xChannelSelector="R" yChannelSelector="G" result="warp" />
      <feMerge>
        <feMergeNode in="warp" />
      </feMerge>
    </filter>
  
    </defs>
    <rect width="100%" height="100%" fill="url(#bg-3)" />
    <rect x="40" y="40" width="944" height="944" rx="72" fill="#ffffff" opacity="0.24" />
    <rect x="72" y="72" width="880" height="880" rx="58" fill="#ffffff" opacity="0.15" />
  
  
    <g transform="translate(512 512) rotate(-8) skewX(-6) skewY(2) scale(0.98) translate(-524 -502)" filter="url(#film-3-tilt)" opacity="0.88">
      <rect x="0" y="0" width="1024" height="1024" fill="transparent" />
      <g fill="#587b36" shape-rendering="crispEdges">
        <rect x="178.67" y="178.67" width="26.67" height="26.67" rx="1.60" />
<rect x="205.33" y="178.67" width="26.67" height="26.67" rx="1.60" />
<rect x="232.00" y="178.67" width="26.67" height="26.67" rx="1.60" />
<rect x="258.67" y="178.67" width="26.67" height="26.67" rx="1.60" />
<rect x="285.33" y="178.67" width="26.67" height="26.67" rx="1.60" />
<rect x="312.00" y="178.67" width="26.67" height="26.67" rx="1.60" />
<rect x="338.67" y="178.67" width="26.67" height="26.67" rx="1.60" />
<rect x="418.67" y="178.67" width="26.67" height="26.67" rx="1.60" />
<rect x="472.00" y="178.67" width="26.67" height="26.67" rx="1.60" />
<rect x="525.33" y="178.67" width="26.67" height="26.67" rx="1.60" />
<rect x="552.00" y="178.67" width="26.67" height="26.67" rx="1.60" />
<rect x="578.67" y="178.67" width="26.67" height="26.67" rx="1.60" />
<rect x="658.67" y="178.67" width="26.67" height="26.67" rx="1.60" />
<rect x="685.33" y="178.67" width="26.67" height="26.67" rx="1.60" />
<rect x="712.00" y="178.67" width="26.67" height="26.67" rx="1.60" />
<rect x="738.67" y="178.67" width="26.67" height="26.67" rx="1.60" />
<rect x="765.33" y="178.67" width="26.67" height="26.67" rx="1.60" />
<rect x="792.00" y="178.67" width="26.67" height="26.67" rx="1.60" />
<rect x="818.67" y="178.67" width="26.67" height="26.67" rx="1.60" />
<rect x="178.67" y="205.33" width="26.67" height="26.67" rx="1.60" />
<rect x="338.67" y="205.33" width="26.67" height="26.67" rx="1.60" />
<rect x="392.00" y="205.33" width="26.67" height="26.67" rx="1.60" />
<rect x="418.67" y="205.33" width="26.67" height="26.67" rx="1.60" />
<rect x="445.33" y="205.33" width="26.67" height="26.67" rx="1.60" />
<rect x="472.00" y="205.33" width="26.67" height="26.67" rx="1.60" />
<rect x="552.00" y="205.33" width="26.67" height="26.67" rx="1.60" />
<rect x="658.67" y="205.33" width="26.67" height="26.67" rx="1.60" />
<rect x="818.67" y="205.33" width="26.67" height="26.67" rx="1.60" />
<rect x="178.67" y="232.00" width="26.67" height="26.67" rx="1.60" />
<rect x="232.00" y="232.00" width="26.67" height="26.67" rx="1.60" />
<rect x="258.67" y="232.00" width="26.67" height="26.67" rx="1.60" />
<rect x="285.33" y="232.00" width="26.67" height="26.67" rx="1.60" />
<rect x="338.67" y="232.00" width="26.67" height="26.67" rx="1.60" />
<rect x="392.00" y="232.00" width="26.67" height="26.67" rx="1.60" />
<rect x="445.33" y="232.00" width="26.67" height="26.67" rx="1.60" />
<rect x="498.67" y="232.00" width="26.67" height="26.67" rx="1.60" />
<rect x="525.33" y="232.00" width="26.67" height="26.67" rx="1.60" />
<rect x="658.67" y="232.00" width="26.67" height="26.67" rx="1.60" />
<rect x="712.00" y="232.00" width="26.67" height="26.67" rx="1.60" />
<rect x="738.67" y="232.00" width="26.67" height="26.67" rx="1.60" />
<rect x="765.33" y="232.00" width="26.67" height="26.67" rx="1.60" />
<rect x="818.67" y="232.00" width="26.67" height="26.67" rx="1.60" />
<rect x="178.67" y="258.67" width="26.67" height="26.67" rx="1.60" />
<rect x="232.00" y="258.67" width="26.67" height="26.67" rx="1.60" />
<rect x="258.67" y="258.67" width="26.67" height="26.67" rx="1.60" />
<rect x="285.33" y="258.67" width="26.67" height="26.67" rx="1.60" />
<rect x="338.67" y="258.67" width="26.67" height="26.67" rx="1.60" />
<rect x="392.00" y="258.67" width="26.67" height="26.67" rx="1.60" />
<rect x="418.67" y="258.67" width="26.67" height="26.67" rx="1.60" />
<rect x="472.00" y="258.67" width="26.67" height="26.67" rx="1.60" />
<rect x="552.00" y="258.67" width="26.67" height="26.67" rx="1.60" />
<rect x="658.67" y="258.67" width="26.67" height="26.67" rx="1.60" />
<rect x="712.00" y="258.67" width="26.67" height="26.67" rx="1.60" />
<rect x="738.67" y="258.67" width="26.67" height="26.67" rx="1.60" />
<rect x="765.33" y="258.67" width="26.67" height="26.67" rx="1.60" />
<rect x="818.67" y="258.67" width="26.67" height="26.67" rx="1.60" />
<rect x="178.67" y="285.33" width="26.67" height="26.67" rx="1.60" />
<rect x="232.00" y="285.33" width="26.67" height="26.67" rx="1.60" />
<rect x="258.67" y="285.33" width="26.67" height="26.67" rx="1.60" />
<rect x="285.33" y="285.33" width="26.67" height="26.67" rx="1.60" />
<rect x="338.67" y="285.33" width="26.67" height="26.67" rx="1.60" />
<rect x="392.00" y="285.33" width="26.67" height="26.67" rx="1.60" />
<rect x="418.67" y="285.33" width="26.67" height="26.67" rx="1.60" />
<rect x="472.00" y="285.33" width="26.67" height="26.67" rx="1.60" />
<rect x="525.33" y="285.33" width="26.67" height="26.67" rx="1.60" />
<rect x="552.00" y="285.33" width="26.67" height="26.67" rx="1.60" />
<rect x="578.67" y="285.33" width="26.67" height="26.67" rx="1.60" />
<rect x="658.67" y="285.33" width="26.67" height="26.67" rx="1.60" />
<rect x="712.00" y="285.33" width="26.67" height="26.67" rx="1.60" />
<rect x="738.67" y="285.33" width="26.67" height="26.67" rx="1.60" />
<rect x="765.33" y="285.33" width="26.67" height="26.67" rx="1.60" />
<rect x="818.67" y="285.33" width="26.67" height="26.67" rx="1.60" />
<rect x="178.67" y="312.00" width="26.67" height="26.67" rx="1.60" />
<rect x="338.67" y="312.00" width="26.67" height="26.67" rx="1.60" />
<rect x="392.00" y="312.00" width="26.67" height="26.67" rx="1.60" />
<rect x="445.33" y="312.00" width="26.67" height="26.67" rx="1.60" />
<rect x="472.00" y="312.00" width="26.67" height="26.67" rx="1.60" />
<rect x="498.67" y="312.00" width="26.67" height="26.67" rx="1.60" />
<rect x="525.33" y="312.00" width="26.67" height="26.67" rx="1.60" />
<rect x="578.67" y="312.00" width="26.67" height="26.67" rx="1.60" />
<rect x="605.33" y="312.00" width="26.67" height="26.67" rx="1.60" />
<rect x="658.67" y="312.00" width="26.67" height="26.67" rx="1.60" />
<rect x="818.67" y="312.00" width="26.67" height="26.67" rx="1.60" />
<rect x="178.67" y="338.67" width="26.67" height="26.67" rx="1.60" />
<rect x="205.33" y="338.67" width="26.67" height="26.67" rx="1.60" />
<rect x="232.00" y="338.67" width="26.67" height="26.67" rx="1.60" />
<rect x="258.67" y="338.67" width="26.67" height="26.67" rx="1.60" />
<rect x="285.33" y="338.67" width="26.67" height="26.67" rx="1.60" />
<rect x="312.00" y="338.67" width="26.67" height="26.67" rx="1.60" />
<rect x="338.67" y="338.67" width="26.67" height="26.67" rx="1.60" />
<rect x="392.00" y="338.67" width="26.67" height="26.67" rx="1.60" />
<rect x="445.33" y="338.67" width="26.67" height="26.67" rx="1.60" />
<rect x="498.67" y="338.67" width="26.67" height="26.67" rx="1.60" />
<rect x="552.00" y="338.67" width="26.67" height="26.67" rx="1.60" />
<rect x="605.33" y="338.67" width="26.67" height="26.67" rx="1.60" />
<rect x="658.67" y="338.67" width="26.67" height="26.67" rx="1.60" />
<rect x="685.33" y="338.67" width="26.67" height="26.67" rx="1.60" />
<rect x="712.00" y="338.67" width="26.67" height="26.67" rx="1.60" />
<rect x="738.67" y="338.67" width="26.67" height="26.67" rx="1.60" />
<rect x="765.33" y="338.67" width="26.67" height="26.67" rx="1.60" />
<rect x="792.00" y="338.67" width="26.67" height="26.67" rx="1.60" />
<rect x="818.67" y="338.67" width="26.67" height="26.67" rx="1.60" />
<rect x="418.67" y="365.33" width="26.67" height="26.67" rx="1.60" />
<rect x="552.00" y="365.33" width="26.67" height="26.67" rx="1.60" />
<rect x="578.67" y="365.33" width="26.67" height="26.67" rx="1.60" />
<rect x="605.33" y="365.33" width="26.67" height="26.67" rx="1.60" />
<rect x="232.00" y="392.00" width="26.67" height="26.67" rx="1.60" />
<rect x="312.00" y="392.00" width="26.67" height="26.67" rx="1.60" />
<rect x="338.67" y="392.00" width="26.67" height="26.67" rx="1.60" />
<rect x="365.33" y="392.00" width="26.67" height="26.67" rx="1.60" />
<rect x="392.00" y="392.00" width="26.67" height="26.67" rx="1.60" />
<rect x="418.67" y="392.00" width="26.67" height="26.67" rx="1.60" />
<rect x="472.00" y="392.00" width="26.67" height="26.67" rx="1.60" />
<rect x="498.67" y="392.00" width="26.67" height="26.67" rx="1.60" />
<rect x="578.67" y="392.00" width="26.67" height="26.67" rx="1.60" />
<rect x="632.00" y="392.00" width="26.67" height="26.67" rx="1.60" />
<rect x="685.33" y="392.00" width="26.67" height="26.67" rx="1.60" />
<rect x="712.00" y="392.00" width="26.67" height="26.67" rx="1.60" />
<rect x="738.67" y="392.00" width="26.67" height="26.67" rx="1.60" />
<rect x="765.33" y="392.00" width="26.67" height="26.67" rx="1.60" />
<rect x="792.00" y="392.00" width="26.67" height="26.67" rx="1.60" />
<rect x="258.67" y="418.67" width="26.67" height="26.67" rx="1.60" />
<rect x="365.33" y="418.67" width="26.67" height="26.67" rx="1.60" />
<rect x="418.67" y="418.67" width="26.67" height="26.67" rx="1.60" />
<rect x="445.33" y="418.67" width="26.67" height="26.67" rx="1.60" />
<rect x="472.00" y="418.67" width="26.67" height="26.67" rx="1.60" />
<rect x="525.33" y="418.67" width="26.67" height="26.67" rx="1.60" />
<rect x="552.00" y="418.67" width="26.67" height="26.67" rx="1.60" />
<rect x="632.00" y="418.67" width="26.67" height="26.67" rx="1.60" />
<rect x="658.67" y="418.67" width="26.67" height="26.67" rx="1.60" />
<rect x="685.33" y="418.67" width="26.67" height="26.67" rx="1.60" />
<rect x="712.00" y="418.67" width="26.67" height="26.67" rx="1.60" />
<rect x="765.33" y="418.67" width="26.67" height="26.67" rx="1.60" />
<rect x="792.00" y="418.67" width="26.67" height="26.67" rx="1.60" />
<rect x="178.67" y="445.33" width="26.67" height="26.67" rx="1.60" />
<rect x="205.33" y="445.33" width="26.67" height="26.67" rx="1.60" />
<rect x="285.33" y="445.33" width="26.67" height="26.67" rx="1.60" />
<rect x="338.67" y="445.33" width="26.67" height="26.67" rx="1.60" />
<rect x="365.33" y="445.33" width="26.67" height="26.67" rx="1.60" />
<rect x="445.33" y="445.33" width="26.67" height="26.67" rx="1.60" />
<rect x="472.00" y="445.33" width="26.67" height="26.67" rx="1.60" />
<rect x="525.33" y="445.33" width="26.67" height="26.67" rx="1.60" />
<rect x="578.67" y="445.33" width="26.67" height="26.67" rx="1.60" />
<rect x="605.33" y="445.33" width="26.67" height="26.67" rx="1.60" />
<rect x="632.00" y="445.33" width="26.67" height="26.67" rx="1.60" />
<rect x="685.33" y="445.33" width="26.67" height="26.67" rx="1.60" />
<rect x="792.00" y="445.33" width="26.67" height="26.67" rx="1.60" />
<rect x="178.67" y="472.00" width="26.67" height="26.67" rx="1.60" />
<rect x="285.33" y="472.00" width="26.67" height="26.67" rx="1.60" />
<rect x="392.00" y="472.00" width="26.67" height="26.67" rx="1.60" />
<rect x="445.33" y="472.00" width="26.67" height="26.67" rx="1.60" />
<rect x="498.67" y="472.00" width="26.67" height="26.67" rx="1.60" />
<rect x="632.00" y="472.00" width="26.67" height="26.67" rx="1.60" />
<rect x="712.00" y="472.00" width="26.67" height="26.67" rx="1.60" />
<rect x="818.67" y="472.00" width="26.67" height="26.67" rx="1.60" />
<rect x="178.67" y="498.67" width="26.67" height="26.67" rx="1.60" />
<rect x="258.67" y="498.67" width="26.67" height="26.67" rx="1.60" />
<rect x="285.33" y="498.67" width="26.67" height="26.67" rx="1.60" />
<rect x="338.67" y="498.67" width="26.67" height="26.67" rx="1.60" />
<rect x="445.33" y="498.67" width="26.67" height="26.67" rx="1.60" />
<rect x="525.33" y="498.67" width="26.67" height="26.67" rx="1.60" />
<rect x="658.67" y="498.67" width="26.67" height="26.67" rx="1.60" />
<rect x="685.33" y="498.67" width="26.67" height="26.67" rx="1.60" />
<rect x="712.00" y="498.67" width="26.67" height="26.67" rx="1.60" />
<rect x="232.00" y="525.33" width="26.67" height="26.67" rx="1.60" />
<rect x="285.33" y="525.33" width="26.67" height="26.67" rx="1.60" />
<rect x="472.00" y="525.33" width="26.67" height="26.67" rx="1.60" />
<rect x="498.67" y="525.33" width="26.67" height="26.67" rx="1.60" />
<rect x="685.33" y="525.33" width="26.67" height="26.67" rx="1.60" />
<rect x="738.67" y="525.33" width="26.67" height="26.67" rx="1.60" />
<rect x="792.00" y="525.33" width="26.67" height="26.67" rx="1.60" />
<rect x="178.67" y="552.00" width="26.67" height="26.67" rx="1.60" />
<rect x="205.33" y="552.00" width="26.67" height="26.67" rx="1.60" />
<rect x="232.00" y="552.00" width="26.67" height="26.67" rx="1.60" />
<rect x="258.67" y="552.00" width="26.67" height="26.67" rx="1.60" />
<rect x="285.33" y="552.00" width="26.67" height="26.67" rx="1.60" />
<rect x="338.67" y="552.00" width="26.67" height="26.67" rx="1.60" />
<rect x="365.33" y="552.00" width="26.67" height="26.67" rx="1.60" />
<rect x="392.00" y="552.00" width="26.67" height="26.67" rx="1.60" />
<rect x="418.67" y="552.00" width="26.67" height="26.67" rx="1.60" />
<rect x="445.33" y="552.00" width="26.67" height="26.67" rx="1.60" />
<rect x="472.00" y="552.00" width="26.67" height="26.67" rx="1.60" />
<rect x="498.67" y="552.00" width="26.67" height="26.67" rx="1.60" />
<rect x="525.33" y="552.00" width="26.67" height="26.67" rx="1.60" />
<rect x="552.00" y="552.00" width="26.67" height="26.67" rx="1.60" />
<rect x="578.67" y="552.00" width="26.67" height="26.67" rx="1.60" />
<rect x="632.00" y="552.00" width="26.67" height="26.67" rx="1.60" />
<rect x="738.67" y="552.00" width="26.67" height="26.67" rx="1.60" />
<rect x="765.33" y="552.00" width="26.67" height="26.67" rx="1.60" />
<rect x="258.67" y="578.67" width="26.67" height="26.67" rx="1.60" />
<rect x="312.00" y="578.67" width="26.67" height="26.67" rx="1.60" />
<rect x="365.33" y="578.67" width="26.67" height="26.67" rx="1.60" />
<rect x="392.00" y="578.67" width="26.67" height="26.67" rx="1.60" />
<rect x="632.00" y="578.67" width="26.67" height="26.67" rx="1.60" />
<rect x="712.00" y="578.67" width="26.67" height="26.67" rx="1.60" />
<rect x="738.67" y="578.67" width="26.67" height="26.67" rx="1.60" />
<rect x="818.67" y="578.67" width="26.67" height="26.67" rx="1.60" />
<rect x="178.67" y="605.33" width="26.67" height="26.67" rx="1.60" />
<rect x="205.33" y="605.33" width="26.67" height="26.67" rx="1.60" />
<rect x="312.00" y="605.33" width="26.67" height="26.67" rx="1.60" />
<rect x="338.67" y="605.33" width="26.67" height="26.67" rx="1.60" />
<rect x="365.33" y="605.33" width="26.67" height="26.67" rx="1.60" />
<rect x="392.00" y="605.33" width="26.67" height="26.67" rx="1.60" />
<rect x="418.67" y="605.33" width="26.67" height="26.67" rx="1.60" />
<rect x="498.67" y="605.33" width="26.67" height="26.67" rx="1.60" />
<rect x="525.33" y="605.33" width="26.67" height="26.67" rx="1.60" />
<rect x="578.67" y="605.33" width="26.67" height="26.67" rx="1.60" />
<rect x="605.33" y="605.33" width="26.67" height="26.67" rx="1.60" />
<rect x="632.00" y="605.33" width="26.67" height="26.67" rx="1.60" />
<rect x="658.67" y="605.33" width="26.67" height="26.67" rx="1.60" />
<rect x="685.33" y="605.33" width="26.67" height="26.67" rx="1.60" />
<rect x="712.00" y="605.33" width="26.67" height="26.67" rx="1.60" />
<rect x="765.33" y="605.33" width="26.67" height="26.67" rx="1.60" />
<rect x="792.00" y="605.33" width="26.67" height="26.67" rx="1.60" />
<rect x="392.00" y="632.00" width="26.67" height="26.67" rx="1.60" />
<rect x="445.33" y="632.00" width="26.67" height="26.67" rx="1.60" />
<rect x="498.67" y="632.00" width="26.67" height="26.67" rx="1.60" />
<rect x="605.33" y="632.00" width="26.67" height="26.67" rx="1.60" />
<rect x="712.00" y="632.00" width="26.67" height="26.67" rx="1.60" />
<rect x="738.67" y="632.00" width="26.67" height="26.67" rx="1.60" />
<rect x="178.67" y="658.67" width="26.67" height="26.67" rx="1.60" />
<rect x="205.33" y="658.67" width="26.67" height="26.67" rx="1.60" />
<rect x="232.00" y="658.67" width="26.67" height="26.67" rx="1.60" />
<rect x="258.67" y="658.67" width="26.67" height="26.67" rx="1.60" />
<rect x="285.33" y="658.67" width="26.67" height="26.67" rx="1.60" />
<rect x="312.00" y="658.67" width="26.67" height="26.67" rx="1.60" />
<rect x="338.67" y="658.67" width="26.67" height="26.67" rx="1.60" />
<rect x="392.00" y="658.67" width="26.67" height="26.67" rx="1.60" />
<rect x="445.33" y="658.67" width="26.67" height="26.67" rx="1.60" />
<rect x="498.67" y="658.67" width="26.67" height="26.67" rx="1.60" />
<rect x="525.33" y="658.67" width="26.67" height="26.67" rx="1.60" />
<rect x="552.00" y="658.67" width="26.67" height="26.67" rx="1.60" />
<rect x="578.67" y="658.67" width="26.67" height="26.67" rx="1.60" />
<rect x="605.33" y="658.67" width="26.67" height="26.67" rx="1.60" />
<rect x="658.67" y="658.67" width="26.67" height="26.67" rx="1.60" />
<rect x="712.00" y="658.67" width="26.67" height="26.67" rx="1.60" />
<rect x="178.67" y="685.33" width="26.67" height="26.67" rx="1.60" />
<rect x="338.67" y="685.33" width="26.67" height="26.67" rx="1.60" />
<rect x="392.00" y="685.33" width="26.67" height="26.67" rx="1.60" />
<rect x="418.67" y="685.33" width="26.67" height="26.67" rx="1.60" />
<rect x="498.67" y="685.33" width="26.67" height="26.67" rx="1.60" />
<rect x="578.67" y="685.33" width="26.67" height="26.67" rx="1.60" />
<rect x="605.33" y="685.33" width="26.67" height="26.67" rx="1.60" />
<rect x="712.00" y="685.33" width="26.67" height="26.67" rx="1.60" />
<rect x="178.67" y="712.00" width="26.67" height="26.67" rx="1.60" />
<rect x="232.00" y="712.00" width="26.67" height="26.67" rx="1.60" />
<rect x="258.67" y="712.00" width="26.67" height="26.67" rx="1.60" />
<rect x="285.33" y="712.00" width="26.67" height="26.67" rx="1.60" />
<rect x="338.67" y="712.00" width="26.67" height="26.67" rx="1.60" />
<rect x="418.67" y="712.00" width="26.67" height="26.67" rx="1.60" />
<rect x="445.33" y="712.00" width="26.67" height="26.67" rx="1.60" />
<rect x="498.67" y="712.00" width="26.67" height="26.67" rx="1.60" />
<rect x="552.00" y="712.00" width="26.67" height="26.67" rx="1.60" />
<rect x="605.33" y="712.00" width="26.67" height="26.67" rx="1.60" />
<rect x="632.00" y="712.00" width="26.67" height="26.67" rx="1.60" />
<rect x="658.67" y="712.00" width="26.67" height="26.67" rx="1.60" />
<rect x="685.33" y="712.00" width="26.67" height="26.67" rx="1.60" />
<rect x="712.00" y="712.00" width="26.67" height="26.67" rx="1.60" />
<rect x="765.33" y="712.00" width="26.67" height="26.67" rx="1.60" />
<rect x="792.00" y="712.00" width="26.67" height="26.67" rx="1.60" />
<rect x="178.67" y="738.67" width="26.67" height="26.67" rx="1.60" />
<rect x="232.00" y="738.67" width="26.67" height="26.67" rx="1.60" />
<rect x="258.67" y="738.67" width="26.67" height="26.67" rx="1.60" />
<rect x="285.33" y="738.67" width="26.67" height="26.67" rx="1.60" />
<rect x="338.67" y="738.67" width="26.67" height="26.67" rx="1.60" />
<rect x="418.67" y="738.67" width="26.67" height="26.67" rx="1.60" />
<rect x="498.67" y="738.67" width="26.67" height="26.67" rx="1.60" />
<rect x="605.33" y="738.67" width="26.67" height="26.67" rx="1.60" />
<rect x="685.33" y="738.67" width="26.67" height="26.67" rx="1.60" />
<rect x="712.00" y="738.67" width="26.67" height="26.67" rx="1.60" />
<rect x="738.67" y="738.67" width="26.67" height="26.67" rx="1.60" />
<rect x="178.67" y="765.33" width="26.67" height="26.67" rx="1.60" />
<rect x="232.00" y="765.33" width="26.67" height="26.67" rx="1.60" />
<rect x="258.67" y="765.33" width="26.67" height="26.67" rx="1.60" />
<rect x="285.33" y="765.33" width="26.67" height="26.67" rx="1.60" />
<rect x="338.67" y="765.33" width="26.67" height="26.67" rx="1.60" />
<rect x="392.00" y="765.33" width="26.67" height="26.67" rx="1.60" />
<rect x="445.33" y="765.33" width="26.67" height="26.67" rx="1.60" />
<rect x="472.00" y="765.33" width="26.67" height="26.67" rx="1.60" />
<rect x="498.67" y="765.33" width="26.67" height="26.67" rx="1.60" />
<rect x="525.33" y="765.33" width="26.67" height="26.67" rx="1.60" />
<rect x="552.00" y="765.33" width="26.67" height="26.67" rx="1.60" />
<rect x="632.00" y="765.33" width="26.67" height="26.67" rx="1.60" />
<rect x="712.00" y="765.33" width="26.67" height="26.67" rx="1.60" />
<rect x="738.67" y="765.33" width="26.67" height="26.67" rx="1.60" />
<rect x="765.33" y="765.33" width="26.67" height="26.67" rx="1.60" />
<rect x="792.00" y="765.33" width="26.67" height="26.67" rx="1.60" />
<rect x="818.67" y="765.33" width="26.67" height="26.67" rx="1.60" />
<rect x="178.67" y="792.00" width="26.67" height="26.67" rx="1.60" />
<rect x="338.67" y="792.00" width="26.67" height="26.67" rx="1.60" />
<rect x="418.67" y="792.00" width="26.67" height="26.67" rx="1.60" />
<rect x="445.33" y="792.00" width="26.67" height="26.67" rx="1.60" />
<rect x="498.67" y="792.00" width="26.67" height="26.67" rx="1.60" />
<rect x="552.00" y="792.00" width="26.67" height="26.67" rx="1.60" />
<rect x="685.33" y="792.00" width="26.67" height="26.67" rx="1.60" />
<rect x="818.67" y="792.00" width="26.67" height="26.67" rx="1.60" />
<rect x="178.67" y="818.67" width="26.67" height="26.67" rx="1.60" />
<rect x="205.33" y="818.67" width="26.67" height="26.67" rx="1.60" />
<rect x="232.00" y="818.67" width="26.67" height="26.67" rx="1.60" />
<rect x="258.67" y="818.67" width="26.67" height="26.67" rx="1.60" />
<rect x="285.33" y="818.67" width="26.67" height="26.67" rx="1.60" />
<rect x="312.00" y="818.67" width="26.67" height="26.67" rx="1.60" />
<rect x="338.67" y="818.67" width="26.67" height="26.67" rx="1.60" />
<rect x="418.67" y="818.67" width="26.67" height="26.67" rx="1.60" />
<rect x="498.67" y="818.67" width="26.67" height="26.67" rx="1.60" />
<rect x="578.67" y="818.67" width="26.67" height="26.67" rx="1.60" />
<rect x="605.33" y="818.67" width="26.67" height="26.67" rx="1.60" />
<rect x="632.00" y="818.67" width="26.67" height="26.67" rx="1.60" />
<rect x="712.00" y="818.67" width="26.67" height="26.67" rx="1.60" />
<rect x="765.33" y="818.67" width="26.67" height="26.67" rx="1.60" />
<rect x="792.00" y="818.67" width="26.67" height="26.67" rx="1.60" />
<rect x="818.67" y="818.67" width="26.67" height="26.67" rx="1.60" />
      </g>
      
      <g fill="#7ea65c" opacity="0.14">
        <ellipse cx="861" cy="509" rx="90" ry="22" transform="rotate(-13 861 509)" fill="#8ab36b" opacity="0.12" />
<ellipse cx="287" cy="774" rx="81" ry="25" transform="rotate(27 287 774)" fill="#8ab36b" opacity="0.12" />
<ellipse cx="387" cy="167" rx="121" ry="20" transform="rotate(-18 387 167)" fill="#8ab36b" opacity="0.12" />
<ellipse cx="747" cy="91" rx="131" ry="20" transform="rotate(-21 747 91)" fill="#8ab36b" opacity="0.12" />
<ellipse cx="452" cy="228" rx="119" ry="29" transform="rotate(15 452 228)" fill="#8ab36b" opacity="0.12" />
<ellipse cx="658" cy="717" rx="72" ry="29" transform="rotate(12 658 717)" fill="#8ab36b" opacity="0.12" />
<ellipse cx="111" cy="522" rx="128" ry="31" transform="rotate(22 111 522)" fill="#8ab36b" opacity="0.12" />
<ellipse cx="736" cy="835" rx="48" ry="13" transform="rotate(-3 736 835)" fill="#8ab36b" opacity="0.12" />
<ellipse cx="185" cy="94" rx="52" ry="17" transform="rotate(16 185 94)" fill="#8ab36b" opacity="0.12" />
<ellipse cx="820" cy="763" rx="103" ry="25" transform="rotate(-4 820 763)" fill="#8ab36b" opacity="0.12" />
<ellipse cx="674" cy="483" rx="36" ry="16" transform="rotate(9 674 483)" fill="#8ab36b" opacity="0.12" />
<ellipse cx="506" cy="282" rx="137" ry="14" transform="rotate(12 506 282)" fill="#8ab36b" opacity="0.12" />
<ellipse cx="872" cy="520" rx="124" ry="37" transform="rotate(2 872 520)" fill="#8ab36b" opacity="0.12" />
<ellipse cx="666" cy="816" rx="110" ry="14" transform="rotate(-27 666 816)" fill="#8ab36b" opacity="0.12" />
<ellipse cx="477" cy="576" rx="63" ry="17" transform="rotate(-10 477 576)" fill="#8ab36b" opacity="0.12" />
<ellipse cx="408" cy="881" rx="86" ry="25" transform="rotate(-29 408 881)" fill="#8ab36b" opacity="0.12" />
<ellipse cx="364" cy="128" rx="128" ry="15" transform="rotate(-6 364 128)" fill="#8ab36b" opacity="0.12" />
<ellipse cx="49" cy="735" rx="32" ry="34" transform="rotate(3 49 735)" fill="#8ab36b" opacity="0.12" />
      </g>
      <g opacity="0.12">
        <circle cx="113" cy="387" r="0.47" fill="#6ea35f" opacity="0.140" />
<circle cx="387" cy="102" r="1.91" fill="#6ea35f" opacity="0.140" />
<circle cx="102" cy="773" r="0.32" fill="#6ea35f" opacity="0.140" />
<circle cx="773" cy="32" r="0.70" fill="#6ea35f" opacity="0.140" />
<circle cx="32" cy="208" r="2.11" fill="#6ea35f" opacity="0.140" />
<circle cx="208" cy="865" r="1.63" fill="#6ea35f" opacity="0.140" />
<circle cx="865" cy="642" r="0.97" fill="#6ea35f" opacity="0.140" />
<circle cx="642" cy="336" r="0.34" fill="#6ea35f" opacity="0.140" />
<circle cx="336" cy="43" r="1.28" fill="#6ea35f" opacity="0.140" />
<circle cx="43" cy="482" r="1.63" fill="#6ea35f" opacity="0.140" />
<circle cx="482" cy="641" r="2.10" fill="#6ea35f" opacity="0.140" />
<circle cx="641" cy="863" r="0.99" fill="#6ea35f" opacity="0.140" />
<circle cx="863" cy="346" r="0.65" fill="#6ea35f" opacity="0.140" />
<circle cx="346" cy="186" r="0.44" fill="#6ea35f" opacity="0.140" />
<circle cx="186" cy="91" r="1.06" fill="#6ea35f" opacity="0.140" />
<circle cx="91" cy="376" r="1.98" fill="#6ea35f" opacity="0.140" />
<circle cx="376" cy="807" r="1.17" fill="#6ea35f" opacity="0.140" />
<circle cx="807" cy="426" r="1.16" fill="#6ea35f" opacity="0.140" />
<circle cx="426" cy="425" r="0.40" fill="#6ea35f" opacity="0.140" />
<circle cx="425" cy="71" r="1.28" fill="#6ea35f" opacity="0.140" />
<circle cx="71" cy="479" r="1.28" fill="#6ea35f" opacity="0.140" />
<circle cx="479" cy="480" r="1.55" fill="#6ea35f" opacity="0.140" />
<circle cx="480" cy="605" r="1.98" fill="#6ea35f" opacity="0.140" />
<circle cx="605" cy="804" r="1.39" fill="#6ea35f" opacity="0.140" />
<circle cx="804" cy="532" r="0.66" fill="#6ea35f" opacity="0.140" />
<circle cx="532" cy="191" r="1.57" fill="#6ea35f" opacity="0.140" />
<circle cx="191" cy="615" r="1.25" fill="#6ea35f" opacity="0.140" />
<circle cx="615" cy="465" r="2.19" fill="#6ea35f" opacity="0.140" />
<circle cx="465" cy="903" r="1.88" fill="#6ea35f" opacity="0.140" />
<circle cx="903" cy="761" r="0.71" fill="#6ea35f" opacity="0.140" />
<circle cx="761" cy="216" r="1.98" fill="#6ea35f" opacity="0.140" />
<circle cx="216" cy="804" r="2.17" fill="#6ea35f" opacity="0.140" />
<circle cx="804" cy="892" r="2.25" fill="#6ea35f" opacity="0.140" />
<circle cx="892" cy="929" r="2.11" fill="#6ea35f" opacity="0.140" />
<circle cx="929" cy="864" r="1.71" fill="#6ea35f" opacity="0.140" />
<circle cx="864" cy="682" r="1.41" fill="#6ea35f" opacity="0.140" />
<circle cx="682" cy="539" r="1.22" fill="#6ea35f" opacity="0.140" />
<circle cx="539" cy="451" r="0.55" fill="#6ea35f" opacity="0.140" />
<circle cx="451" cy="142" r="1.58" fill="#6ea35f" opacity="0.140" />
<circle cx="142" cy="618" r="1.40" fill="#6ea35f" opacity="0.140" />
<circle cx="618" cy="536" r="2.19" fill="#6ea35f" opacity="0.140" />
<circle cx="536" cy="905" r="2.22" fill="#6ea35f" opacity="0.140" />
<circle cx="905" cy="919" r="1.64" fill="#6ea35f" opacity="0.140" />
<circle cx="919" cy="648" r="0.72" fill="#6ea35f" opacity="0.140" />
<circle cx="648" cy="217" r="1.85" fill="#6ea35f" opacity="0.140" />
<circle cx="217" cy="745" r="1.88" fill="#6ea35f" opacity="0.140" />
<circle cx="745" cy="759" r="0.42" fill="#6ea35f" opacity="0.140" />
<circle cx="759" cy="77" r="0.93" fill="#6ea35f" opacity="0.140" />
<circle cx="77" cy="317" r="1.74" fill="#6ea35f" opacity="0.140" />
<circle cx="317" cy="694" r="1.35" fill="#6ea35f" opacity="0.140" />
<circle cx="694" cy="511" r="1.66" fill="#6ea35f" opacity="0.140" />
<circle cx="511" cy="654" r="0.36" fill="#6ea35f" opacity="0.140" />
<circle cx="654" cy="53" r="0.88" fill="#6ea35f" opacity="0.140" />
<circle cx="53" cy="292" r="0.50" fill="#6ea35f" opacity="0.140" />
<circle cx="292" cy="117" r="0.88" fill="#6ea35f" opacity="0.140" />
<circle cx="117" cy="291" r="1.70" fill="#6ea35f" opacity="0.140" />
<circle cx="291" cy="674" r="0.29" fill="#6ea35f" opacity="0.140" />
<circle cx="674" cy="21" r="0.36" fill="#6ea35f" opacity="0.140" />
<circle cx="21" cy="52" r="1.88" fill="#6ea35f" opacity="0.140" />
<circle cx="52" cy="758" r="0.74" fill="#6ea35f" opacity="0.140" />
<circle cx="758" cy="226" r="0.44" fill="#6ea35f" opacity="0.140" />
<circle cx="226" cy="87" r="2.27" fill="#6ea35f" opacity="0.140" />
<circle cx="87" cy="940" r="1.01" fill="#6ea35f" opacity="0.140" />
<circle cx="940" cy="355" r="1.29" fill="#6ea35f" opacity="0.140" />
<circle cx="355" cy="482" r="1.29" fill="#6ea35f" opacity="0.140" />
<circle cx="482" cy="484" r="1.81" fill="#6ea35f" opacity="0.140" />
<circle cx="484" cy="725" r="0.84" fill="#6ea35f" opacity="0.140" />
<circle cx="725" cy="274" r="1.88" fill="#6ea35f" opacity="0.140" />
<circle cx="274" cy="757" r="1.47" fill="#6ea35f" opacity="0.140" />
<circle cx="757" cy="570" r="0.63" fill="#6ea35f" opacity="0.140" />
<circle cx="570" cy="176" r="0.36" fill="#6ea35f" opacity="0.140" />
<circle cx="176" cy="53" r="1.54" fill="#6ea35f" opacity="0.140" />
<circle cx="53" cy="602" r="1.41" fill="#6ea35f" opacity="0.140" />
<circle cx="602" cy="539" r="1.89" fill="#6ea35f" opacity="0.140" />
<circle cx="539" cy="763" r="1.43" fill="#6ea35f" opacity="0.140" />
<circle cx="763" cy="547" r="0.37" fill="#6ea35f" opacity="0.140" />
<circle cx="547" cy="57" r="0.76" fill="#6ea35f" opacity="0.140" />
<circle cx="57" cy="238" r="1.67" fill="#6ea35f" opacity="0.140" />
<circle cx="238" cy="662" r="2.08" fill="#6ea35f" opacity="0.140" />
<circle cx="662" cy="853" r="1.30" fill="#6ea35f" opacity="0.140" />
<circle cx="853" cy="489" r="1.64" fill="#6ea35f" opacity="0.140" />
<circle cx="489" cy="645" r="1.42" fill="#6ea35f" opacity="0.140" />
<circle cx="645" cy="546" r="0.91" fill="#6ea35f" opacity="0.140" />
<circle cx="546" cy="307" r="1.41" fill="#6ea35f" opacity="0.140" />
<circle cx="307" cy="542" r="2.33" fill="#6ea35f" opacity="0.140" />
<circle cx="542" cy="969" r="1.09" fill="#6ea35f" opacity="0.140" />
<circle cx="969" cy="393" r="2.09" fill="#6ea35f" opacity="0.140" />
<circle cx="393" cy="856" r="0.88" fill="#6ea35f" opacity="0.140" />
<circle cx="856" cy="294" r="2.19" fill="#6ea35f" opacity="0.140" />
<circle cx="294" cy="903" r="0.48" fill="#6ea35f" opacity="0.140" />
<circle cx="903" cy="109" r="1.88" fill="#6ea35f" opacity="0.140" />
<circle cx="109" cy="759" r="2.00" fill="#6ea35f" opacity="0.140" />
<circle cx="759" cy="816" r="1.84" fill="#6ea35f" opacity="0.140" />
<circle cx="816" cy="738" r="0.32" fill="#6ea35f" opacity="0.140" />
<circle cx="738" cy="35" r="1.86" fill="#6ea35f" opacity="0.140" />
<circle cx="35" cy="747" r="0.76" fill="#6ea35f" opacity="0.140" />
<circle cx="747" cy="237" r="2.11" fill="#6ea35f" opacity="0.140" />
<circle cx="237" cy="865" r="0.28" fill="#6ea35f" opacity="0.140" />
<circle cx="865" cy="13" r="1.80" fill="#6ea35f" opacity="0.140" />
<circle cx="13" cy="723" r="1.21" fill="#6ea35f" opacity="0.140" />
<circle cx="723" cy="449" r="0.69" fill="#6ea35f" opacity="0.140" />
<circle cx="449" cy="204" r="1.39" fill="#6ea35f" opacity="0.140" />
<circle cx="204" cy="531" r="1.26" fill="#6ea35f" opacity="0.140" />
<circle cx="531" cy="471" r="0.47" fill="#6ea35f" opacity="0.140" />
<circle cx="471" cy="101" r="0.28" fill="#6ea35f" opacity="0.140" />
<circle cx="101" cy="13" r="0.47" fill="#6ea35f" opacity="0.140" />
<circle cx="13" cy="100" r="1.00" fill="#6ea35f" opacity="0.140" />
<circle cx="100" cy="348" r="2.32" fill="#6ea35f" opacity="0.140" />
<circle cx="348" cy="964" r="2.37" fill="#6ea35f" opacity="0.140" />
<circle cx="964" cy="985" r="1.81" fill="#6ea35f" opacity="0.140" />
<circle cx="985" cy="728" r="0.70" fill="#6ea35f" opacity="0.140" />
<circle cx="728" cy="211" r="1.77" fill="#6ea35f" opacity="0.140" />
<circle cx="211" cy="706" r="0.53" fill="#6ea35f" opacity="0.140" />
<circle cx="706" cy="132" r="2.06" fill="#6ea35f" opacity="0.140" />
<circle cx="132" cy="841" r="1.48" fill="#6ea35f" opacity="0.140" />
<circle cx="841" cy="573" r="0.94" fill="#6ea35f" opacity="0.140" />
<circle cx="573" cy="320" r="2.39" fill="#6ea35f" opacity="0.140" />
<circle cx="320" cy="994" r="0.56" fill="#6ea35f" opacity="0.140" />
<circle cx="994" cy="142" r="1.80" fill="#6ea35f" opacity="0.140" />
<circle cx="142" cy="722" r="0.30" fill="#6ea35f" opacity="0.140" />
      </g>
    </g>
  
  <g opacity="0.12">
    <circle cx="120" cy="130" r="84" fill="#ffffff" />
    <circle cx="900" cy="166" r="96" fill="#ffffff" />
    <circle cx="856" cy="860" r="124" fill="#ffffff" />
  </g>
  <text x="72" y="974" font-family="Arial, Helvetica, sans-serif" font-size="26" font-weight="700" fill="#334155" opacity="0.72">Cảnh báo - Biến dạng nặng</text>
  <text x="72" y="1002" font-family="Arial, Helvetica, sans-serif" font-size="16" fill="#475569" opacity="0.74">QR-ORIGINAL-FRESH • góc nghiêng</text>
</svg>