<?xml version="1.0" encoding="UTF-8"?>
<svg xmlns="http://www.w3.org/2000/svg" width="1024" height="1024" viewBox="0 0 1024 1024" role="img" aria-label="Biến đổi nhẹ - Cần dùng ngay • góc nghiêng">
  
    <defs>
      <linearGradient id="bg-2" x1="0%" y1="0%" x2="100%" y2="100%">
        <stop offset="0%" stop-color="#fbfcff" />
        <stop offset="100%" stop-color="#eef2ff" />
      </linearGradient>
      
    <filter id="film-2-front" x="-20%" y="-20%" width="140%" height="140%">
      <feGaussianBlur in="SourceGraphic" stdDeviation="0.85" result="blur" />
      <feColorMatrix in="blur" type="matrix" values="0.92 0 0 0 0 0 0.92 0 0 0 0 0 0.92 0 0 0 0 0 1 0" result="contrast" />
      <feTurbulence type="fractalNoise" baseFrequency="0.0120" numOctaves="2" seed="39" result="noise" />
      <feDisplacementMap in="contrast" in2="noise" scale="4.00" xChannelSelector="R" yChannelSelector="G" result="warp" />
      <feMerge>
        <feMergeNode in="warp" />
      </feMerge>
    </filter>
  

    <filter id="film-2-tilt" x="-20%" y="-20%" width="140%" height="140%">
      <feGaussianBlur in="SourceGraphic" stdDeviation="0.85" result="blur" />
      <feColorMatrix in="blur" type="matrix" values="0.92 0 0 0 0 0 0.92 0 0 0 0 0 0.92 0 0 0 0 0 1 0" result="contrast" />
      <feTurbulence type="fractalNoise" baseFrequency="0.0120" numOctaves="2" seed="38" result="noise" />
      <feDisplacementMap in="contrast" in2="noise" scale="4.00" xChannelSelector="R" yChannelSelector="G" result="warp" />
      <feMerge>
        <feMergeNode in="warp" />
      </feMerge>
    </filter>
  

    <filter id="film-2-macro" x="-20%" y="-20%" width="140%" height="140%">
      <feGaussianBlur in="SourceGraphic" stdDeviation="0.85" result="blur" />
      <feColorMatrix in="blur" type="matrix" values="0.92 0 0 0 0 0 0.92 0 0 0 0 0 0.92 0 0 0 0 0 1 0" result="contrast" />
      <feTurbulence type="fractalNoise" baseFrequency="0.0150" numOctaves="2" seed="39" result="noise" />
      <feDisplacementMap in="contrast" in2="noise" scale="4.00" xChannelSelector="R" yChannelSelector="G" result="warp" />
      <feMerge>
        <feMergeNode in="warp" />
      </feMerge>
    </filter>
  
    </defs>
    <rect width="100%" height="100%" fill="url(#bg-2)" />
    <rect x="40" y="40" width="944" height="944" rx="72" fill="#ffffff" opacity="0.24" />
    <rect x="72" y="72" width="880" height="880" rx="58" fill="#ffffff" opacity="0.15" />
  
  
    <g transform="translate(512 512) rotate(-8) skewX(-6) skewY(2) scale(0.98) translate(-524 -502)" filter="url(#film-2-tilt)" opacity="0.96">
      <rect x="0" y="0" width="1024" height="1024" fill="transparent" />
      <g fill="#7486ff" shape-rendering="crispEdges">
        <rect x="178.67" y="178.67" width="26.67" height="26.67" rx="1.60" />
<rect x="205.33" y="178.67" width="26.67" height="26.67" rx="1.60" />
<rect x="232.00" y="178.67" width="26.67" height="26.67" rx="1.60" />
<rect x="258.67" y="178.67" width="26.67" height="26.67" rx="1.60" />
<rect x="285.33" y="178.67" width="26.67" height="26.67" rx="1.60" />
<rect x="312.00" y="178.67" width="26.67" height="26.67" rx="1.60" />
<rect x="338.67" y="178.67" width="26.67" height="26.67" rx="1.60" />
<rect x="418.67" y="178.67" width="26.67" height="26.67" rx="1.60" />
<rect x="472.00" y="178.67" width="26.67" height="26.67" rx="1.60" />
<rect x="525.33" y="178.67" width="26.67" height="26.67" rx="1.60" />
<rect x="552.00" y="178.67" width="26.67" height="26.67" rx="1.60" />
<rect x="578.67" y="178.67" width="26.67" height="26.67" rx="1.60" />
<rect x="658.67" y="178.67" width="26.67" height="26.67" rx="1.60" />
<rect x="685.33" y="178.67" width="26.67" height="26.67" rx="1.60" />
<rect x="712.00" y="178.67" width="26.67" height="26.67" rx="1.60" />
<rect x="738.67" y="178.67" width="26.67" height="26.67" rx="1.60" />
<rect x="765.33" y="178.67" width="26.67" height="26.67" rx="1.60" />
<rect x="792.00" y="178.67" width="26.67" height="26.67" rx="1.60" />
<rect x="818.67" y="178.67" width="26.67" height="26.67" rx="1.60" />
<rect x="178.67" y="205.33" width="26.67" height="26.67" rx="1.60" />
<rect x="338.67" y="205.33" width="26.67" height="26.67" rx="1.60" />
<rect x="392.00" y="205.33" width="26.67" height="26.67" rx="1.60" />
<rect x="418.67" y="205.33" width="26.67" height="26.67" rx="1.60" />
<rect x="445.33" y="205.33" width="26.67" height="26.67" rx="1.60" />
<rect x="472.00" y="205.33" width="26.67" height="26.67" rx="1.60" />
<rect x="552.00" y="205.33" width="26.67" height="26.67" rx="1.60" />
<rect x="658.67" y="205.33" width="26.67" height="26.67" rx="1.60" />
<rect x="818.67" y="205.33" width="26.67" height="26.67" rx="1.60" />
<rect x="178.67" y="232.00" width="26.67" height="26.67" rx="1.60" />
<rect x="232.00" y="232.00" width="26.67" height="26.67" rx="1.60" />
<rect x="258.67" y="232.00" width="26.67" height="26.67" rx="1.60" />
<rect x="285.33" y="232.00" width="26.67" height="26.67" rx="1.60" />
<rect x="338.67" y="232.00" width="26.67" height="26.67" rx="1.60" />
<rect x="392.00" y="232.00" width="26.67" height="26.67" rx="1.60" />
<rect x="445.33" y="232.00" width="26.67" height="26.67" rx="1.60" />
<rect x="498.67" y="232.00" width="26.67" height="26.67" rx="1.60" />
<rect x="525.33" y="232.00" width="26.67" height="26.67" rx="1.60" />
<rect x="658.67" y="232.00" width="26.67" height="26.67" rx="1.60" />
<rect x="712.00" y="232.00" width="26.67" height="26.67" rx="1.60" />
<rect x="738.67" y="232.00" width="26.67" height="26.67" rx="1.60" />
<rect x="765.33" y="232.00" width="26.67" height="26.67" rx="1.60" />
<rect x="818.67" y="232.00" width="26.67" height="26.67" rx="1.60" />
<rect x="178.67" y="258.67" width="26.67" height="26.67" rx="1.60" />
<rect x="232.00" y="258.67" width="26.67" height="26.67" rx="1.60" />
<rect x="258.67" y="258.67" width="26.67" height="26.67" rx="1.60" />
<rect x="285.33" y="258.67" width="26.67" height="26.67" rx="1.60" />
<rect x="338.67" y="258.67" width="26.67" height="26.67" rx="1.60" />
<rect x="392.00" y="258.67" width="26.67" height="26.67" rx="1.60" />
<rect x="418.67" y="258.67" width="26.67" height="26.67" rx="1.60" />
<rect x="472.00" y="258.67" width="26.67" height="26.67" rx="1.60" />
<rect x="552.00" y="258.67" width="26.67" height="26.67" rx="1.60" />
<rect x="658.67" y="258.67" width="26.67" height="26.67" rx="1.60" />
<rect x="712.00" y="258.67" width="26.67" height="26.67" rx="1.60" />
<rect x="738.67" y="258.67" width="26.67" height="26.67" rx="1.60" />
<rect x="765.33" y="258.67" width="26.67" height="26.67" rx="1.60" />
<rect x="818.67" y="258.67" width="26.67" height="26.67" rx="1.60" />
<rect x="178.67" y="285.33" width="26.67" height="26.67" rx="1.60" />
<rect x="232.00" y="285.33" width="26.67" height="26.67" rx="1.60" />
<rect x="258.67" y="285.33" width="26.67" height="26.67" rx="1.60" />
<rect x="285.33" y="285.33" width="26.67" height="26.67" rx="1.60" />
<rect x="338.67" y="285.33" width="26.67" height="26.67" rx="1.60" />
<rect x="392.00" y="285.33" width="26.67" height="26.67" rx="1.60" />
<rect x="418.67" y="285.33" width="26.67" height="26.67" rx="1.60" />
<rect x="472.00" y="285.33" width="26.67" height="26.67" rx="1.60" />
<rect x="525.33" y="285.33" width="26.67" height="26.67" rx="1.60" />
<rect x="552.00" y="285.33" width="26.67" height="26.67" rx="1.60" />
<rect x="578.67" y="285.33" width="26.67" height="26.67" rx="1.60" />
<rect x="658.67" y="285.33" width="26.67" height="26.67" rx="1.60" />
<rect x="712.00" y="285.33" width="26.67" height="26.67" rx="1.60" />
<rect x="738.67" y="285.33" width="26.67" height="26.67" rx="1.60" />
<rect x="765.33" y="285.33" width="26.67" height="26.67" rx="1.60" />
<rect x="818.67" y="285.33" width="26.67" height="26.67" rx="1.60" />
<rect x="178.67" y="312.00" width="26.67" height="26.67" rx="1.60" />
<rect x="338.67" y="312.00" width="26.67" height="26.67" rx="1.60" />
<rect x="392.00" y="312.00" width="26.67" height="26.67" rx="1.60" />
<rect x="445.33" y="312.00" width="26.67" height="26.67" rx="1.60" />
<rect x="472.00" y="312.00" width="26.67" height="26.67" rx="1.60" />
<rect x="498.67" y="312.00" width="26.67" height="26.67" rx="1.60" />
<rect x="525.33" y="312.00" width="26.67" height="26.67" rx="1.60" />
<rect x="578.67" y="312.00" width="26.67" height="26.67" rx="1.60" />
<rect x="605.33" y="312.00" width="26.67" height="26.67" rx="1.60" />
<rect x="658.67" y="312.00" width="26.67" height="26.67" rx="1.60" />
<rect x="818.67" y="312.00" width="26.67" height="26.67" rx="1.60" />
<rect x="178.67" y="338.67" width="26.67" height="26.67" rx="1.60" />
<rect x="205.33" y="338.67" width="26.67" height="26.67" rx="1.60" />
<rect x="232.00" y="338.67" width="26.67" height="26.67" rx="1.60" />
<rect x="258.67" y="338.67" width="26.67" height="26.67" rx="1.60" />
<rect x="285.33" y="338.67" width="26.67" height="26.67" rx="1.60" />
<rect x="312.00" y="338.67" width="26.67" height="26.67" rx="1.60" />
<rect x="338.67" y="338.67" width="26.67" height="26.67" rx="1.60" />
<rect x="392.00" y="338.67" width="26.67" height="26.67" rx="1.60" />
<rect x="445.33" y="338.67" width="26.67" height="26.67" rx="1.60" />
<rect x="498.67" y="338.67" width="26.67" height="26.67" rx="1.60" />
<rect x="552.00" y="338.67" width="26.67" height="26.67" rx="1.60" />
<rect x="605.33" y="338.67" width="26.67" height="26.67" rx="1.60" />
<rect x="658.67" y="338.67" width="26.67" height="26.67" rx="1.60" />
<rect x="685.33" y="338.67" width="26.67" height="26.67" rx="1.60" />
<rect x="712.00" y="338.67" width="26.67" height="26.67" rx="1.60" />
<rect x="738.67" y="338.67" width="26.67" height="26.67" rx="1.60" />
<rect x="765.33" y="338.67" width="26.67" height="26.67" rx="1.60" />
<rect x="792.00" y="338.67" width="26.67" height="26.67" rx="1.60" />
<rect x="818.67" y="338.67" width="26.67" height="26.67" rx="1.60" />
<rect x="418.67" y="365.33" width="26.67" height="26.67" rx="1.60" />
<rect x="552.00" y="365.33" width="26.67" height="26.67" rx="1.60" />
<rect x="578.67" y="365.33" width="26.67" height="26.67" rx="1.60" />
<rect x="605.33" y="365.33" width="26.67" height="26.67" rx="1.60" />
<rect x="232.00" y="392.00" width="26.67" height="26.67" rx="1.60" />
<rect x="312.00" y="392.00" width="26.67" height="26.67" rx="1.60" />
<rect x="338.67" y="392.00" width="26.67" height="26.67" rx="1.60" />
<rect x="365.33" y="392.00" width="26.67" height="26.67" rx="1.60" />
<rect x="392.00" y="392.00" width="26.67" height="26.67" rx="1.60" />
<rect x="418.67" y="392.00" width="26.67" height="26.67" rx="1.60" />
<rect x="472.00" y="392.00" width="26.67" height="26.67" rx="1.60" />
<rect x="498.67" y="392.00" width="26.67" height="26.67" rx="1.60" />
<rect x="578.67" y="392.00" width="26.67" height="26.67" rx="1.60" />
<rect x="632.00" y="392.00" width="26.67" height="26.67" rx="1.60" />
<rect x="685.33" y="392.00" width="26.67" height="26.67" rx="1.60" />
<rect x="712.00" y="392.00" width="26.67" height="26.67" rx="1.60" />
<rect x="738.67" y="392.00" width="26.67" height="26.67" rx="1.60" />
<rect x="765.33" y="392.00" width="26.67" height="26.67" rx="1.60" />
<rect x="792.00" y="392.00" width="26.67" height="26.67" rx="1.60" />
<rect x="258.67" y="418.67" width="26.67" height="26.67" rx="1.60" />
<rect x="365.33" y="418.67" width="26.67" height="26.67" rx="1.60" />
<rect x="418.67" y="418.67" width="26.67" height="26.67" rx="1.60" />
<rect x="445.33" y="418.67" width="26.67" height="26.67" rx="1.60" />
<rect x="472.00" y="418.67" width="26.67" height="26.67" rx="1.60" />
<rect x="525.33" y="418.67" width="26.67" height="26.67" rx="1.60" />
<rect x="552.00" y="418.67" width="26.67" height="26.67" rx="1.60" />
<rect x="632.00" y="418.67" width="26.67" height="26.67" rx="1.60" />
<rect x="658.67" y="418.67" width="26.67" height="26.67" rx="1.60" />
<rect x="685.33" y="418.67" width="26.67" height="26.67" rx="1.60" />
<rect x="712.00" y="418.67" width="26.67" height="26.67" rx="1.60" />
<rect x="765.33" y="418.67" width="26.67" height="26.67" rx="1.60" />
<rect x="792.00" y="418.67" width="26.67" height="26.67" rx="1.60" />
<rect x="178.67" y="445.33" width="26.67" height="26.67" rx="1.60" />
<rect x="205.33" y="445.33" width="26.67" height="26.67" rx="1.60" />
<rect x="285.33" y="445.33" width="26.67" height="26.67" rx="1.60" />
<rect x="338.67" y="445.33" width="26.67" height="26.67" rx="1.60" />
<rect x="365.33" y="445.33" width="26.67" height="26.67" rx="1.60" />
<rect x="445.33" y="445.33" width="26.67" height="26.67" rx="1.60" />
<rect x="472.00" y="445.33" width="26.67" height="26.67" rx="1.60" />
<rect x="525.33" y="445.33" width="26.67" height="26.67" rx="1.60" />
<rect x="578.67" y="445.33" width="26.67" height="26.67" rx="1.60" />
<rect x="605.33" y="445.33" width="26.67" height="26.67" rx="1.60" />
<rect x="632.00" y="445.33" width="26.67" height="26.67" rx="1.60" />
<rect x="685.33" y="445.33" width="26.67" height="26.67" rx="1.60" />
<rect x="792.00" y="445.33" width="26.67" height="26.67" rx="1.60" />
<rect x="178.67" y="472.00" width="26.67" height="26.67" rx="1.60" />
<rect x="285.33" y="472.00" width="26.67" height="26.67" rx="1.60" />
<rect x="392.00" y="472.00" width="26.67" height="26.67" rx="1.60" />
<rect x="445.33" y="472.00" width="26.67" height="26.67" rx="1.60" />
<rect x="498.67" y="472.00" width="26.67" height="26.67" rx="1.60" />
<rect x="632.00" y="472.00" width="26.67" height="26.67" rx="1.60" />
<rect x="712.00" y="472.00" width="26.67" height="26.67" rx="1.60" />
<rect x="818.67" y="472.00" width="26.67" height="26.67" rx="1.60" />
<rect x="178.67" y="498.67" width="26.67" height="26.67" rx="1.60" />
<rect x="258.67" y="498.67" width="26.67" height="26.67" rx="1.60" />
<rect x="285.33" y="498.67" width="26.67" height="26.67" rx="1.60" />
<rect x="338.67" y="498.67" width="26.67" height="26.67" rx="1.60" />
<rect x="445.33" y="498.67" width="26.67" height="26.67" rx="1.60" />
<rect x="525.33" y="498.67" width="26.67" height="26.67" rx="1.60" />
<rect x="658.67" y="498.67" width="26.67" height="26.67" rx="1.60" />
<rect x="685.33" y="498.67" width="26.67" height="26.67" rx="1.60" />
<rect x="712.00" y="498.67" width="26.67" height="26.67" rx="1.60" />
<rect x="232.00" y="525.33" width="26.67" height="26.67" rx="1.60" />
<rect x="285.33" y="525.33" width="26.67" height="26.67" rx="1.60" />
<rect x="472.00" y="525.33" width="26.67" height="26.67" rx="1.60" />
<rect x="498.67" y="525.33" width="26.67" height="26.67" rx="1.60" />
<rect x="685.33" y="525.33" width="26.67" height="26.67" rx="1.60" />
<rect x="738.67" y="525.33" width="26.67" height="26.67" rx="1.60" />
<rect x="792.00" y="525.33" width="26.67" height="26.67" rx="1.60" />
<rect x="178.67" y="552.00" width="26.67" height="26.67" rx="1.60" />
<rect x="205.33" y="552.00" width="26.67" height="26.67" rx="1.60" />
<rect x="232.00" y="552.00" width="26.67" height="26.67" rx="1.60" />
<rect x="258.67" y="552.00" width="26.67" height="26.67" rx="1.60" />
<rect x="285.33" y="552.00" width="26.67" height="26.67" rx="1.60" />
<rect x="338.67" y="552.00" width="26.67" height="26.67" rx="1.60" />
<rect x="365.33" y="552.00" width="26.67" height="26.67" rx="1.60" />
<rect x="392.00" y="552.00" width="26.67" height="26.67" rx="1.60" />
<rect x="418.67" y="552.00" width="26.67" height="26.67" rx="1.60" />
<rect x="445.33" y="552.00" width="26.67" height="26.67" rx="1.60" />
<rect x="472.00" y="552.00" width="26.67" height="26.67" rx="1.60" />
<rect x="498.67" y="552.00" width="26.67" height="26.67" rx="1.60" />
<rect x="525.33" y="552.00" width="26.67" height="26.67" rx="1.60" />
<rect x="552.00" y="552.00" width="26.67" height="26.67" rx="1.60" />
<rect x="578.67" y="552.00" width="26.67" height="26.67" rx="1.60" />
<rect x="632.00" y="552.00" width="26.67" height="26.67" rx="1.60" />
<rect x="738.67" y="552.00" width="26.67" height="26.67" rx="1.60" />
<rect x="765.33" y="552.00" width="26.67" height="26.67" rx="1.60" />
<rect x="258.67" y="578.67" width="26.67" height="26.67" rx="1.60" />
<rect x="312.00" y="578.67" width="26.67" height="26.67" rx="1.60" />
<rect x="365.33" y="578.67" width="26.67" height="26.67" rx="1.60" />
<rect x="392.00" y="578.67" width="26.67" height="26.67" rx="1.60" />
<rect x="632.00" y="578.67" width="26.67" height="26.67" rx="1.60" />
<rect x="712.00" y="578.67" width="26.67" height="26.67" rx="1.60" />
<rect x="738.67" y="578.67" width="26.67" height="26.67" rx="1.60" />
<rect x="818.67" y="578.67" width="26.67" height="26.67" rx="1.60" />
<rect x="178.67" y="605.33" width="26.67" height="26.67" rx="1.60" />
<rect x="205.33" y="605.33" width="26.67" height="26.67" rx="1.60" />
<rect x="312.00" y="605.33" width="26.67" height="26.67" rx="1.60" />
<rect x="338.67" y="605.33" width="26.67" height="26.67" rx="1.60" />
<rect x="365.33" y="605.33" width="26.67" height="26.67" rx="1.60" />
<rect x="392.00" y="605.33" width="26.67" height="26.67" rx="1.60" />
<rect x="418.67" y="605.33" width="26.67" height="26.67" rx="1.60" />
<rect x="498.67" y="605.33" width="26.67" height="26.67" rx="1.60" />
<rect x="525.33" y="605.33" width="26.67" height="26.67" rx="1.60" />
<rect x="578.67" y="605.33" width="26.67" height="26.67" rx="1.60" />
<rect x="605.33" y="605.33" width="26.67" height="26.67" rx="1.60" />
<rect x="632.00" y="605.33" width="26.67" height="26.67" rx="1.60" />
<rect x="658.67" y="605.33" width="26.67" height="26.67" rx="1.60" />
<rect x="685.33" y="605.33" width="26.67" height="26.67" rx="1.60" />
<rect x="712.00" y="605.33" width="26.67" height="26.67" rx="1.60" />
<rect x="765.33" y="605.33" width="26.67" height="26.67" rx="1.60" />
<rect x="792.00" y="605.33" width="26.67" height="26.67" rx="1.60" />
<rect x="392.00" y="632.00" width="26.67" height="26.67" rx="1.60" />
<rect x="445.33" y="632.00" width="26.67" height="26.67" rx="1.60" />
<rect x="498.67" y="632.00" width="26.67" height="26.67" rx="1.60" />
<rect x="605.33" y="632.00" width="26.67" height="26.67" rx="1.60" />
<rect x="712.00" y="632.00" width="26.67" height="26.67" rx="1.60" />
<rect x="738.67" y="632.00" width="26.67" height="26.67" rx="1.60" />
<rect x="178.67" y="658.67" width="26.67" height="26.67" rx="1.60" />
<rect x="205.33" y="658.67" width="26.67" height="26.67" rx="1.60" />
<rect x="232.00" y="658.67" width="26.67" height="26.67" rx="1.60" />
<rect x="258.67" y="658.67" width="26.67" height="26.67" rx="1.60" />
<rect x="285.33" y="658.67" width="26.67" height="26.67" rx="1.60" />
<rect x="312.00" y="658.67" width="26.67" height="26.67" rx="1.60" />
<rect x="338.67" y="658.67" width="26.67" height="26.67" rx="1.60" />
<rect x="392.00" y="658.67" width="26.67" height="26.67" rx="1.60" />
<rect x="445.33" y="658.67" width="26.67" height="26.67" rx="1.60" />
<rect x="498.67" y="658.67" width="26.67" height="26.67" rx="1.60" />
<rect x="525.33" y="658.67" width="26.67" height="26.67" rx="1.60" />
<rect x="552.00" y="658.67" width="26.67" height="26.67" rx="1.60" />
<rect x="578.67" y="658.67" width="26.67" height="26.67" rx="1.60" />
<rect x="605.33" y="658.67" width="26.67" height="26.67" rx="1.60" />
<rect x="658.67" y="658.67" width="26.67" height="26.67" rx="1.60" />
<rect x="712.00" y="658.67" width="26.67" height="26.67" rx="1.60" />
<rect x="178.67" y="685.33" width="26.67" height="26.67" rx="1.60" />
<rect x="338.67" y="685.33" width="26.67" height="26.67" rx="1.60" />
<rect x="392.00" y="685.33" width="26.67" height="26.67" rx="1.60" />
<rect x="418.67" y="685.33" width="26.67" height="26.67" rx="1.60" />
<rect x="498.67" y="685.33" width="26.67" height="26.67" rx="1.60" />
<rect x="578.67" y="685.33" width="26.67" height="26.67" rx="1.60" />
<rect x="605.33" y="685.33" width="26.67" height="26.67" rx="1.60" />
<rect x="712.00" y="685.33" width="26.67" height="26.67" rx="1.60" />
<rect x="178.67" y="712.00" width="26.67" height="26.67" rx="1.60" />
<rect x="232.00" y="712.00" width="26.67" height="26.67" rx="1.60" />
<rect x="258.67" y="712.00" width="26.67" height="26.67" rx="1.60" />
<rect x="285.33" y="712.00" width="26.67" height="26.67" rx="1.60" />
<rect x="338.67" y="712.00" width="26.67" height="26.67" rx="1.60" />
<rect x="418.67" y="712.00" width="26.67" height="26.67" rx="1.60" />
<rect x="445.33" y="712.00" width="26.67" height="26.67" rx="1.60" />
<rect x="498.67" y="712.00" width="26.67" height="26.67" rx="1.60" />
<rect x="552.00" y="712.00" width="26.67" height="26.67" rx="1.60" />
<rect x="605.33" y="712.00" width="26.67" height="26.67" rx="1.60" />
<rect x="632.00" y="712.00" width="26.67" height="26.67" rx="1.60" />
<rect x="658.67" y="712.00" width="26.67" height="26.67" rx="1.60" />
<rect x="685.33" y="712.00" width="26.67" height="26.67" rx="1.60" />
<rect x="712.00" y="712.00" width="26.67" height="26.67" rx="1.60" />
<rect x="765.33" y="712.00" width="26.67" height="26.67" rx="1.60" />
<rect x="792.00" y="712.00" width="26.67" height="26.67" rx="1.60" />
<rect x="178.67" y="738.67" width="26.67" height="26.67" rx="1.60" />
<rect x="232.00" y="738.67" width="26.67" height="26.67" rx="1.60" />
<rect x="258.67" y="738.67" width="26.67" height="26.67" rx="1.60" />
<rect x="285.33" y="738.67" width="26.67" height="26.67" rx="1.60" />
<rect x="338.67" y="738.67" width="26.67" height="26.67" rx="1.60" />
<rect x="418.67" y="738.67" width="26.67" height="26.67" rx="1.60" />
<rect x="498.67" y="738.67" width="26.67" height="26.67" rx="1.60" />
<rect x="605.33" y="738.67" width="26.67" height="26.67" rx="1.60" />
<rect x="685.33" y="738.67" width="26.67" height="26.67" rx="1.60" />
<rect x="712.00" y="738.67" width="26.67" height="26.67" rx="1.60" />
<rect x="738.67" y="738.67" width="26.67" height="26.67" rx="1.60" />
<rect x="178.67" y="765.33" width="26.67" height="26.67" rx="1.60" />
<rect x="232.00" y="765.33" width="26.67" height="26.67" rx="1.60" />
<rect x="258.67" y="765.33" width="26.67" height="26.67" rx="1.60" />
<rect x="285.33" y="765.33" width="26.67" height="26.67" rx="1.60" />
<rect x="338.67" y="765.33" width="26.67" height="26.67" rx="1.60" />
<rect x="392.00" y="765.33" width="26.67" height="26.67" rx="1.60" />
<rect x="445.33" y="765.33" width="26.67" height="26.67" rx="1.60" />
<rect x="472.00" y="765.33" width="26.67" height="26.67" rx="1.60" />
<rect x="498.67" y="765.33" width="26.67" height="26.67" rx="1.60" />
<rect x="525.33" y="765.33" width="26.67" height="26.67" rx="1.60" />
<rect x="552.00" y="765.33" width="26.67" height="26.67" rx="1.60" />
<rect x="632.00" y="765.33" width="26.67" height="26.67" rx="1.60" />
<rect x="712.00" y="765.33" width="26.67" height="26.67" rx="1.60" />
<rect x="738.67" y="765.33" width="26.67" height="26.67" rx="1.60" />
<rect x="765.33" y="765.33" width="26.67" height="26.67" rx="1.60" />
<rect x="792.00" y="765.33" width="26.67" height="26.67" rx="1.60" />
<rect x="818.67" y="765.33" width="26.67" height="26.67" rx="1.60" />
<rect x="178.67" y="792.00" width="26.67" height="26.67" rx="1.60" />
<rect x="338.67" y="792.00" width="26.67" height="26.67" rx="1.60" />
<rect x="418.67" y="792.00" width="26.67" height="26.67" rx="1.60" />
<rect x="445.33" y="792.00" width="26.67" height="26.67" rx="1.60" />
<rect x="498.67" y="792.00" width="26.67" height="26.67" rx="1.60" />
<rect x="552.00" y="792.00" width="26.67" height="26.67" rx="1.60" />
<rect x="685.33" y="792.00" width="26.67" height="26.67" rx="1.60" />
<rect x="818.67" y="792.00" width="26.67" height="26.67" rx="1.60" />
<rect x="178.67" y="818.67" width="26.67" height="26.67" rx="1.60" />
<rect x="205.33" y="818.67" width="26.67" height="26.67" rx="1.60" />
<rect x="232.00" y="818.67" width="26.67" height="26.67" rx="1.60" />
<rect x="258.67" y="818.67" width="26.67" height="26.67" rx="1.60" />
<rect x="285.33" y="818.67" width="26.67" height="26.67" rx="1.60" />
<rect x="312.00" y="818.67" width="26.67" height="26.67" rx="1.60" />
<rect x="338.67" y="818.67" width="26.67" height="26.67" rx="1.60" />
<rect x="418.67" y="818.67" width="26.67" height="26.67" rx="1.60" />
<rect x="498.67" y="818.67" width="26.67" height="26.67" rx="1.60" />
<rect x="578.67" y="818.67" width="26.67" height="26.67" rx="1.60" />
<rect x="605.33" y="818.67" width="26.67" height="26.67" rx="1.60" />
<rect x="632.00" y="818.67" width="26.67" height="26.67" rx="1.60" />
<rect x="712.00" y="818.67" width="26.67" height="26.67" rx="1.60" />
<rect x="765.33" y="818.67" width="26.67" height="26.67" rx="1.60" />
<rect x="792.00" y="818.67" width="26.67" height="26.67" rx="1.60" />
<rect x="818.67" y="818.67" width="26.67" height="26.67" rx="1.60" />
      </g>
      
      <g fill="#d8d4f9" opacity="0.05">
        <ellipse cx="342" cy="394" rx="39" ry="17" transform="rotate(-2 342 394)" fill="#f5eab0" opacity="0.04" />
<ellipse cx="359" cy="225" rx="109" ry="14" transform="rotate(-30 359 225)" fill="#f5eab0" opacity="0.04" />
<ellipse cx="303" cy="76" rx="79" ry="27" transform="rotate(27 303 76)" fill="#f5eab0" opacity="0.04" />
<ellipse cx="256" cy="609" rx="40" ry="21" transform="rotate(20 256 609)" fill="#f5eab0" opacity="0.04" />
<ellipse cx="136" cy="573" rx="71" ry="18" transform="rotate(-17 136 573)" fill="#f5eab0" opacity="0.04" />
<ellipse cx="169" cy="822" rx="94" ry="24" transform="rotate(-3 169 822)" fill="#f5eab0" opacity="0.04" />
<ellipse cx="477" cy="452" rx="124" ry="20" transform="rotate(27 477 452)" fill="#f5eab0" opacity="0.04" />
<ellipse cx="126" cy="757" rx="113" ry="27" transform="rotate(-28 126 757)" fill="#f5eab0" opacity="0.04" />
<ellipse cx="283" cy="152" rx="78" ry="20" transform="rotate(2 283 152)" fill="#f5eab0" opacity="0.04" />
<ellipse cx="199" cy="541" rx="67" ry="14" transform="rotate(-22 199 541)" fill="#f5eab0" opacity="0.04" />
<ellipse cx="119" cy="332" rx="94" ry="20" transform="rotate(8 119 332)" fill="#f5eab0" opacity="0.04" />
<ellipse cx="726" cy="851" rx="140" ry="27" transform="rotate(25 726 851)" fill="#f5eab0" opacity="0.04" />
<ellipse cx="100" cy="582" rx="45" ry="27" transform="rotate(-13 100 582)" fill="#f5eab0" opacity="0.04" />
<ellipse cx="57" cy="851" rx="92" ry="29" transform="rotate(29 57 851)" fill="#f5eab0" opacity="0.04" />
<ellipse cx="85" cy="82" rx="91" ry="31" transform="rotate(-28 85 82)" fill="#f5eab0" opacity="0.04" />
<ellipse cx="593" cy="207" rx="87" ry="24" transform="rotate(19 593 207)" fill="#f5eab0" opacity="0.04" />
<ellipse cx="856" cy="15" rx="73" ry="25" transform="rotate(29 856 15)" fill="#f5eab0" opacity="0.04" />
<ellipse cx="805" cy="234" rx="45" ry="13" transform="rotate(-19 805 234)" fill="#f5eab0" opacity="0.04" />
      </g>
      <g opacity="0.12">
        <circle cx="631" cy="235" r="0.94" fill="#7a6f52" opacity="0.080" />
<circle cx="235" cy="321" r="0.62" fill="#7a6f52" opacity="0.080" />
<circle cx="321" cy="173" r="1.22" fill="#7a6f52" opacity="0.080" />
<circle cx="173" cy="451" r="1.07" fill="#7a6f52" opacity="0.080" />
<circle cx="451" cy="384" r="1.41" fill="#7a6f52" opacity="0.080" />
<circle cx="384" cy="538" r="2.14" fill="#7a6f52" opacity="0.080" />
<circle cx="538" cy="879" r="0.44" fill="#7a6f52" opacity="0.080" />
<circle cx="879" cy="88" r="0.35" fill="#7a6f52" opacity="0.080" />
<circle cx="88" cy="46" r="1.42" fill="#7a6f52" opacity="0.080" />
<circle cx="46" cy="543" r="2.24" fill="#7a6f52" opacity="0.080" />
<circle cx="543" cy="927" r="1.16" fill="#7a6f52" opacity="0.080" />
<circle cx="927" cy="423" r="1.25" fill="#7a6f52" opacity="0.080" />
<circle cx="423" cy="464" r="0.30" fill="#7a6f52" opacity="0.080" />
<circle cx="464" cy="24" r="1.14" fill="#7a6f52" opacity="0.080" />
<circle cx="24" cy="414" r="0.40" fill="#7a6f52" opacity="0.080" />
<circle cx="414" cy="69" r="1.72" fill="#7a6f52" opacity="0.080" />
<circle cx="69" cy="686" r="0.50" fill="#7a6f52" opacity="0.080" />
<circle cx="686" cy="116" r="0.58" fill="#7a6f52" opacity="0.080" />
<circle cx="116" cy="155" r="0.57" fill="#7a6f52" opacity="0.080" />
<circle cx="155" cy="147" r="2.20" fill="#7a6f52" opacity="0.080" />
<circle cx="147" cy="907" r="2.01" fill="#7a6f52" opacity="0.080" />
<circle cx="907" cy="821" r="2.01" fill="#7a6f52" opacity="0.080" />
<circle cx="821" cy="819" r="1.95" fill="#7a6f52" opacity="0.080" />
<circle cx="819" cy="790" r="0.86" fill="#7a6f52" opacity="0.080" />
<circle cx="790" cy="286" r="1.03" fill="#7a6f52" opacity="0.080" />
<circle cx="286" cy="364" r="1.68" fill="#7a6f52" opacity="0.080" />
<circle cx="364" cy="665" r="0.57" fill="#7a6f52" opacity="0.080" />
<circle cx="665" cy="149" r="2.18" fill="#7a6f52" opacity="0.080" />
<circle cx="149" cy="896" r="0.91" fill="#7a6f52" opacity="0.080" />
<circle cx="896" cy="308" r="0.93" fill="#7a6f52" opacity="0.080" />
<circle cx="308" cy="317" r="2.02" fill="#7a6f52" opacity="0.080" />
<circle cx="317" cy="825" r="0.72" fill="#7a6f52" opacity="0.080" />
<circle cx="825" cy="219" r="1.78" fill="#7a6f52" opacity="0.080" />
<circle cx="219" cy="711" r="1.97" fill="#7a6f52" opacity="0.080" />
<circle cx="711" cy="800" r="1.91" fill="#7a6f52" opacity="0.080" />
<circle cx="800" cy="771" r="1.51" fill="#7a6f52" opacity="0.080" />
<circle cx="771" cy="585" r="1.54" fill="#7a6f52" opacity="0.080" />
<circle cx="585" cy="601" r="1.69" fill="#7a6f52" opacity="0.080" />
<circle cx="601" cy="672" r="1.89" fill="#7a6f52" opacity="0.080" />
<circle cx="672" cy="766" r="2.29" fill="#7a6f52" opacity="0.080" />
<circle cx="766" cy="952" r="1.30" fill="#7a6f52" opacity="0.080" />
<circle cx="952" cy="491" r="0.73" fill="#7a6f52" opacity="0.080" />
<circle cx="491" cy="225" r="1.57" fill="#7a6f52" opacity="0.080" />
<circle cx="225" cy="612" r="0.98" fill="#7a6f52" opacity="0.080" />
<circle cx="612" cy="340" r="0.56" fill="#7a6f52" opacity="0.080" />
<circle cx="340" cy="144" r="0.56" fill="#7a6f52" opacity="0.080" />
<circle cx="144" cy="144" r="0.77" fill="#7a6f52" opacity="0.080" />
<circle cx="144" cy="242" r="0.86" fill="#7a6f52" opacity="0.080" />
<circle cx="242" cy="283" r="2.11" fill="#7a6f52" opacity="0.080" />
<circle cx="283" cy="865" r="1.15" fill="#7a6f52" opacity="0.080" />
<circle cx="865" cy="417" r="1.55" fill="#7a6f52" opacity="0.080" />
<circle cx="417" cy="607" r="0.40" fill="#7a6f52" opacity="0.080" />
<circle cx="607" cy="68" r="2.04" fill="#7a6f52" opacity="0.080" />
<circle cx="68" cy="834" r="2.18" fill="#7a6f52" opacity="0.080" />
<circle cx="834" cy="898" r="1.79" fill="#7a6f52" opacity="0.080" />
<circle cx="898" cy="719" r="1.36" fill="#7a6f52" opacity="0.080" />
<circle cx="719" cy="516" r="1.53" fill="#7a6f52" opacity="0.080" />
<circle cx="516" cy="597" r="2.33" fill="#7a6f52" opacity="0.080" />
<circle cx="597" cy="967" r="2.11" fill="#7a6f52" opacity="0.080" />
<circle cx="967" cy="866" r="2.12" fill="#7a6f52" opacity="0.080" />
<circle cx="866" cy="869" r="0.58" fill="#7a6f52" opacity="0.080" />
<circle cx="869" cy="155" r="0.49" fill="#7a6f52" opacity="0.080" />
<circle cx="155" cy="113" r="1.42" fill="#7a6f52" opacity="0.080" />
<circle cx="113" cy="545" r="1.74" fill="#7a6f52" opacity="0.080" />
<circle cx="545" cy="695" r="0.95" fill="#7a6f52" opacity="0.080" />
<circle cx="695" cy="326" r="2.12" fill="#7a6f52" opacity="0.080" />
<circle cx="326" cy="869" r="1.74" fill="#7a6f52" opacity="0.080" />
<circle cx="869" cy="695" r="0.92" fill="#7a6f52" opacity="0.080" />
<circle cx="695" cy="311" r="1.37" fill="#7a6f52" opacity="0.080" />
<circle cx="311" cy="522" r="1.23" fill="#7a6f52" opacity="0.080" />
<circle cx="522" cy="455" r="1.79" fill="#7a6f52" opacity="0.080" />
<circle cx="455" cy="716" r="0.51" fill="#7a6f52" opacity="0.080" />
<circle cx="716" cy="123" r="0.82" fill="#7a6f52" opacity="0.080" />
<circle cx="123" cy="264" r="1.27" fill="#7a6f52" opacity="0.080" />
<circle cx="264" cy="475" r="2.03" fill="#7a6f52" opacity="0.080" />
<circle cx="475" cy="831" r="1.07" fill="#7a6f52" opacity="0.080" />
<circle cx="831" cy="382" r="2.38" fill="#7a6f52" opacity="0.080" />
<circle cx="382" cy="990" r="1.52" fill="#7a6f52" opacity="0.080" />
<circle cx="990" cy="590" r="1.31" fill="#7a6f52" opacity="0.080" />
<circle cx="590" cy="492" r="0.70" fill="#7a6f52" opacity="0.080" />
<circle cx="492" cy="209" r="2.29" fill="#7a6f52" opacity="0.080" />
<circle cx="209" cy="948" r="1.83" fill="#7a6f52" opacity="0.080" />
<circle cx="948" cy="735" r="0.54" fill="#7a6f52" opacity="0.080" />
<circle cx="735" cy="135" r="1.06" fill="#7a6f52" opacity="0.080" />
<circle cx="135" cy="376" r="1.53" fill="#7a6f52" opacity="0.080" />
<circle cx="376" cy="595" r="1.02" fill="#7a6f52" opacity="0.080" />
<circle cx="595" cy="357" r="1.64" fill="#7a6f52" opacity="0.080" />
<circle cx="357" cy="646" r="1.17" fill="#7a6f52" opacity="0.080" />
<circle cx="646" cy="428" r="0.35" fill="#7a6f52" opacity="0.080" />
<circle cx="428" cy="44" r="1.30" fill="#7a6f52" opacity="0.080" />
<circle cx="44" cy="491" r="1.17" fill="#7a6f52" opacity="0.080" />
<circle cx="491" cy="426" r="0.63" fill="#7a6f52" opacity="0.080" />
<circle cx="426" cy="175" r="0.37" fill="#7a6f52" opacity="0.080" />
<circle cx="175" cy="58" r="1.05" fill="#7a6f52" opacity="0.080" />
<circle cx="58" cy="373" r="0.46" fill="#7a6f52" opacity="0.080" />
<circle cx="373" cy="98" r="0.38" fill="#7a6f52" opacity="0.080" />
<circle cx="98" cy="63" r="1.02" fill="#7a6f52" opacity="0.080" />
<circle cx="63" cy="360" r="0.81" fill="#7a6f52" opacity="0.080" />
<circle cx="360" cy="260" r="0.30" fill="#7a6f52" opacity="0.080" />
<circle cx="260" cy="21" r="0.55" fill="#7a6f52" opacity="0.080" />
<circle cx="21" cy="141" r="2.43" fill="#7a6f52" opacity="0.080" />
<circle cx="141" cy="1013" r="1.94" fill="#7a6f52" opacity="0.080" />
<circle cx="1013" cy="787" r="1.97" fill="#7a6f52" opacity="0.080" />
<circle cx="787" cy="800" r="1.66" fill="#7a6f52" opacity="0.080" />
<circle cx="800" cy="658" r="1.05" fill="#7a6f52" opacity="0.080" />
<circle cx="658" cy="371" r="2.40" fill="#7a6f52" opacity="0.080" />
<circle cx="371" cy="1000" r="1.06" fill="#7a6f52" opacity="0.080" />
<circle cx="1000" cy="376" r="0.73" fill="#7a6f52" opacity="0.080" />
<circle cx="376" cy="222" r="1.19" fill="#7a6f52" opacity="0.080" />
<circle cx="222" cy="435" r="1.12" fill="#7a6f52" opacity="0.080" />
<circle cx="435" cy="406" r="0.67" fill="#7a6f52" opacity="0.080" />
<circle cx="406" cy="197" r="1.69" fill="#7a6f52" opacity="0.080" />
<circle cx="197" cy="669" r="1.50" fill="#7a6f52" opacity="0.080" />
<circle cx="669" cy="584" r="2.15" fill="#7a6f52" opacity="0.080" />
<circle cx="584" cy="883" r="1.78" fill="#7a6f52" opacity="0.080" />
<circle cx="883" cy="712" r="1.00" fill="#7a6f52" opacity="0.080" />
<circle cx="712" cy="348" r="2.39" fill="#7a6f52" opacity="0.080" />
<circle cx="348" cy="995" r="0.54" fill="#7a6f52" opacity="0.080" />
<circle cx="995" cy="136" r="1.32" fill="#7a6f52" opacity="0.080" />
<circle cx="136" cy="497" r="0.31" fill="#7a6f52" opacity="0.080" />
      </g>
    </g>
  
  <g opacity="0.12">
    <circle cx="120" cy="130" r="84" fill="#ffffff" />
    <circle cx="900" cy="166" r="96" fill="#ffffff" />
    <circle cx="856" cy="860" r="124" fill="#ffffff" />
  </g>
  <text x="72" y="974" font-family="Arial, Helvetica, sans-serif" font-size="26" font-weight="700" fill="#334155" opacity="0.72">Biến đổi nhẹ - Cần dùng ngay</text>
  <text x="72" y="1002" font-family="Arial, Helvetica, sans-serif" font-size="16" fill="#475569" opacity="0.74">QR-ORIGINAL-FRESH • góc nghiêng</text>
</svg>