<?xml version="1.0" encoding="UTF-8"?>
<svg xmlns="http://www.w3.org/2000/svg" width="1024" height="1024" viewBox="0 0 1024 1024" role="img" aria-label="Nguy hiểm - Hỏng hoàn toàn • cận cảnh macro">
  
    <defs>
      <linearGradient id="bg-4" x1="0%" y1="0%" x2="100%" y2="100%">
        <stop offset="0%" stop-color="#fff9d7" />
        <stop offset="100%" stop-color="#f4efb3" />
      </linearGradient>
      
    <filter id="film-4-front" x="-20%" y="-20%" width="140%" height="140%">
      <feGaussianBlur in="SourceGraphic" stdDeviation="1.25" result="blur" />
      <feColorMatrix in="blur" type="matrix" values="0.45 0 0 0 0 0 0.45 0 0 0 0 0 0.45 0 0 0 0 0 1 0" result="contrast" />
      <feTurbulence type="fractalNoise" baseFrequency="0.0160" numOctaves="2" seed="73" result="noise" />
      <feDisplacementMap in="contrast" in2="noise" scale="16.00" xChannelSelector="R" yChannelSelector="G" result="warp" />
      <feMerge>
        <feMergeNode in="warp" />
      </feMerge>
    </filter>
  

    <filter id="film-4-tilt" x="-20%" y="-20%" width="140%" height="140%">
      <feGaussianBlur in="SourceGraphic" stdDeviation="1.25" result="blur" />
      <feColorMatrix in="blur" type="matrix" values="0.45 0 0 0 0 0 0.45 0 0 0 0 0 0.45 0 0 0 0 0 1 0" result="contrast" />
      <feTurbulence type="fractalNoise" baseFrequency="0.0160" numOctaves="2" seed="72" result="noise" />
      <feDisplacementMap in="contrast" in2="noise" scale="16.00" xChannelSelector="R" yChannelSelector="G" result="warp" />
      <feMerge>
        <feMergeNode in="warp" />
      </feMerge>
    </filter>
  

    <filter id="film-4-macro" x="-20%" y="-20%" width="140%" height="140%">
      <feGaussianBlur in="SourceGraphic" stdDeviation="1.25" result="blur" />
      <feColorMatrix in="blur" type="matrix" values="0.45 0 0 0 0 0 0.45 0 0 0 0 0 0.45 0 0 0 0 0 1 0" result="contrast" />
      <feTurbulence type="fractalNoise" baseFrequency="0.0190" numOctaves="2" seed="73" result="noise" />
      <feDisplacementMap in="contrast" in2="noise" scale="16.00" xChannelSelector="R" yChannelSelector="G" result="warp" />
      <feMerge>
        <feMergeNode in="warp" />
      </feMerge>
    </filter>
  
    </defs>
    <rect width="100%" height="100%" fill="url(#bg-4)" />
    <rect x="40" y="40" width="944" height="944" rx="72" fill="#ffffff" opacity="0.24" />
    <rect x="72" y="72" width="880" height="880" rx="58" fill="#ffffff" opacity="0.15" />
  
  
    <g transform="translate(512 512) rotate(4) skewX(3) skewY(-2) scale(1.18) translate(-504 -510)" filter="url(#film-4-macro)" opacity="0.65">
      <rect x="0" y="0" width="1024" height="1024" fill="transparent" />
      <g fill="#e5d99b" shape-rendering="crispEdges">
        <rect x="178.67" y="178.67" width="26.67" height="26.67" rx="1.60" />
<rect x="205.33" y="178.67" width="26.67" height="26.67" rx="1.60" />
<rect x="232.00" y="178.67" width="26.67" height="26.67" rx="1.60" />
<rect x="258.67" y="178.67" width="26.67" height="26.67" rx="1.60" />
<rect x="285.33" y="178.67" width="26.67" height="26.67" rx="1.60" />
<rect x="312.00" y="178.67" width="26.67" height="26.67" rx="1.60" />
<rect x="338.67" y="178.67" width="26.67" height="26.67" rx="1.60" />
<rect x="418.67" y="178.67" width="26.67" height="26.67" rx="1.60" />
<rect x="472.00" y="178.67" width="26.67" height="26.67" rx="1.60" />
<rect x="525.33" y="178.67" width="26.67" height="26.67" rx="1.60" />
<rect x="552.00" y="178.67" width="26.67" height="26.67" rx="1.60" />
<rect x="578.67" y="178.67" width="26.67" height="26.67" rx="1.60" />
<rect x="658.67" y="178.67" width="26.67" height="26.67" rx="1.60" />
<rect x="685.33" y="178.67" width="26.67" height="26.67" rx="1.60" />
<rect x="712.00" y="178.67" width="26.67" height="26.67" rx="1.60" />
<rect x="738.67" y="178.67" width="26.67" height="26.67" rx="1.60" />
<rect x="765.33" y="178.67" width="26.67" height="26.67" rx="1.60" />
<rect x="792.00" y="178.67" width="26.67" height="26.67" rx="1.60" />
<rect x="818.67" y="178.67" width="26.67" height="26.67" rx="1.60" />
<rect x="178.67" y="205.33" width="26.67" height="26.67" rx="1.60" />
<rect x="338.67" y="205.33" width="26.67" height="26.67" rx="1.60" />
<rect x="392.00" y="205.33" width="26.67" height="26.67" rx="1.60" />
<rect x="418.67" y="205.33" width="26.67" height="26.67" rx="1.60" />
<rect x="445.33" y="205.33" width="26.67" height="26.67" rx="1.60" />
<rect x="472.00" y="205.33" width="26.67" height="26.67" rx="1.60" />
<rect x="552.00" y="205.33" width="26.67" height="26.67" rx="1.60" />
<rect x="658.67" y="205.33" width="26.67" height="26.67" rx="1.60" />
<rect x="818.67" y="205.33" width="26.67" height="26.67" rx="1.60" />
<rect x="178.67" y="232.00" width="26.67" height="26.67" rx="1.60" />
<rect x="232.00" y="232.00" width="26.67" height="26.67" rx="1.60" />
<rect x="258.67" y="232.00" width="26.67" height="26.67" rx="1.60" />
<rect x="285.33" y="232.00" width="26.67" height="26.67" rx="1.60" />
<rect x="338.67" y="232.00" width="26.67" height="26.67" rx="1.60" />
<rect x="392.00" y="232.00" width="26.67" height="26.67" rx="1.60" />
<rect x="445.33" y="232.00" width="26.67" height="26.67" rx="1.60" />
<rect x="498.67" y="232.00" width="26.67" height="26.67" rx="1.60" />
<rect x="525.33" y="232.00" width="26.67" height="26.67" rx="1.60" />
<rect x="658.67" y="232.00" width="26.67" height="26.67" rx="1.60" />
<rect x="712.00" y="232.00" width="26.67" height="26.67" rx="1.60" />
<rect x="738.67" y="232.00" width="26.67" height="26.67" rx="1.60" />
<rect x="765.33" y="232.00" width="26.67" height="26.67" rx="1.60" />
<rect x="818.67" y="232.00" width="26.67" height="26.67" rx="1.60" />
<rect x="178.67" y="258.67" width="26.67" height="26.67" rx="1.60" />
<rect x="232.00" y="258.67" width="26.67" height="26.67" rx="1.60" />
<rect x="258.67" y="258.67" width="26.67" height="26.67" rx="1.60" />
<rect x="285.33" y="258.67" width="26.67" height="26.67" rx="1.60" />
<rect x="338.67" y="258.67" width="26.67" height="26.67" rx="1.60" />
<rect x="392.00" y="258.67" width="26.67" height="26.67" rx="1.60" />
<rect x="418.67" y="258.67" width="26.67" height="26.67" rx="1.60" />
<rect x="472.00" y="258.67" width="26.67" height="26.67" rx="1.60" />
<rect x="552.00" y="258.67" width="26.67" height="26.67" rx="1.60" />
<rect x="658.67" y="258.67" width="26.67" height="26.67" rx="1.60" />
<rect x="712.00" y="258.67" width="26.67" height="26.67" rx="1.60" />
<rect x="738.67" y="258.67" width="26.67" height="26.67" rx="1.60" />
<rect x="765.33" y="258.67" width="26.67" height="26.67" rx="1.60" />
<rect x="818.67" y="258.67" width="26.67" height="26.67" rx="1.60" />
<rect x="178.67" y="285.33" width="26.67" height="26.67" rx="1.60" />
<rect x="232.00" y="285.33" width="26.67" height="26.67" rx="1.60" />
<rect x="258.67" y="285.33" width="26.67" height="26.67" rx="1.60" />
<rect x="285.33" y="285.33" width="26.67" height="26.67" rx="1.60" />
<rect x="338.67" y="285.33" width="26.67" height="26.67" rx="1.60" />
<rect x="392.00" y="285.33" width="26.67" height="26.67" rx="1.60" />
<rect x="418.67" y="285.33" width="26.67" height="26.67" rx="1.60" />
<rect x="472.00" y="285.33" width="26.67" height="26.67" rx="1.60" />
<rect x="525.33" y="285.33" width="26.67" height="26.67" rx="1.60" />
<rect x="552.00" y="285.33" width="26.67" height="26.67" rx="1.60" />
<rect x="578.67" y="285.33" width="26.67" height="26.67" rx="1.60" />
<rect x="658.67" y="285.33" width="26.67" height="26.67" rx="1.60" />
<rect x="712.00" y="285.33" width="26.67" height="26.67" rx="1.60" />
<rect x="738.67" y="285.33" width="26.67" height="26.67" rx="1.60" />
<rect x="765.33" y="285.33" width="26.67" height="26.67" rx="1.60" />
<rect x="818.67" y="285.33" width="26.67" height="26.67" rx="1.60" />
<rect x="178.67" y="312.00" width="26.67" height="26.67" rx="1.60" />
<rect x="338.67" y="312.00" width="26.67" height="26.67" rx="1.60" />
<rect x="392.00" y="312.00" width="26.67" height="26.67" rx="1.60" />
<rect x="445.33" y="312.00" width="26.67" height="26.67" rx="1.60" />
<rect x="472.00" y="312.00" width="26.67" height="26.67" rx="1.60" />
<rect x="498.67" y="312.00" width="26.67" height="26.67" rx="1.60" />
<rect x="525.33" y="312.00" width="26.67" height="26.67" rx="1.60" />
<rect x="578.67" y="312.00" width="26.67" height="26.67" rx="1.60" />
<rect x="605.33" y="312.00" width="26.67" height="26.67" rx="1.60" />
<rect x="658.67" y="312.00" width="26.67" height="26.67" rx="1.60" />
<rect x="818.67" y="312.00" width="26.67" height="26.67" rx="1.60" />
<rect x="178.67" y="338.67" width="26.67" height="26.67" rx="1.60" />
<rect x="205.33" y="338.67" width="26.67" height="26.67" rx="1.60" />
<rect x="232.00" y="338.67" width="26.67" height="26.67" rx="1.60" />
<rect x="258.67" y="338.67" width="26.67" height="26.67" rx="1.60" />
<rect x="285.33" y="338.67" width="26.67" height="26.67" rx="1.60" />
<rect x="312.00" y="338.67" width="26.67" height="26.67" rx="1.60" />
<rect x="338.67" y="338.67" width="26.67" height="26.67" rx="1.60" />
<rect x="392.00" y="338.67" width="26.67" height="26.67" rx="1.60" />
<rect x="445.33" y="338.67" width="26.67" height="26.67" rx="1.60" />
<rect x="498.67" y="338.67" width="26.67" height="26.67" rx="1.60" />
<rect x="552.00" y="338.67" width="26.67" height="26.67" rx="1.60" />
<rect x="605.33" y="338.67" width="26.67" height="26.67" rx="1.60" />
<rect x="658.67" y="338.67" width="26.67" height="26.67" rx="1.60" />
<rect x="685.33" y="338.67" width="26.67" height="26.67" rx="1.60" />
<rect x="712.00" y="338.67" width="26.67" height="26.67" rx="1.60" />
<rect x="738.67" y="338.67" width="26.67" height="26.67" rx="1.60" />
<rect x="765.33" y="338.67" width="26.67" height="26.67" rx="1.60" />
<rect x="792.00" y="338.67" width="26.67" height="26.67" rx="1.60" />
<rect x="818.67" y="338.67" width="26.67" height="26.67" rx="1.60" />
<rect x="418.67" y="365.33" width="26.67" height="26.67" rx="1.60" />
<rect x="552.00" y="365.33" width="26.67" height="26.67" rx="1.60" />
<rect x="578.67" y="365.33" width="26.67" height="26.67" rx="1.60" />
<rect x="605.33" y="365.33" width="26.67" height="26.67" rx="1.60" />
<rect x="232.00" y="392.00" width="26.67" height="26.67" rx="1.60" />
<rect x="312.00" y="392.00" width="26.67" height="26.67" rx="1.60" />
<rect x="338.67" y="392.00" width="26.67" height="26.67" rx="1.60" />
<rect x="365.33" y="392.00" width="26.67" height="26.67" rx="1.60" />
<rect x="392.00" y="392.00" width="26.67" height="26.67" rx="1.60" />
<rect x="418.67" y="392.00" width="26.67" height="26.67" rx="1.60" />
<rect x="472.00" y="392.00" width="26.67" height="26.67" rx="1.60" />
<rect x="498.67" y="392.00" width="26.67" height="26.67" rx="1.60" />
<rect x="578.67" y="392.00" width="26.67" height="26.67" rx="1.60" />
<rect x="632.00" y="392.00" width="26.67" height="26.67" rx="1.60" />
<rect x="685.33" y="392.00" width="26.67" height="26.67" rx="1.60" />
<rect x="712.00" y="392.00" width="26.67" height="26.67" rx="1.60" />
<rect x="738.67" y="392.00" width="26.67" height="26.67" rx="1.60" />
<rect x="765.33" y="392.00" width="26.67" height="26.67" rx="1.60" />
<rect x="792.00" y="392.00" width="26.67" height="26.67" rx="1.60" />
<rect x="258.67" y="418.67" width="26.67" height="26.67" rx="1.60" />
<rect x="365.33" y="418.67" width="26.67" height="26.67" rx="1.60" />
<rect x="418.67" y="418.67" width="26.67" height="26.67" rx="1.60" />
<rect x="445.33" y="418.67" width="26.67" height="26.67" rx="1.60" />
<rect x="472.00" y="418.67" width="26.67" height="26.67" rx="1.60" />
<rect x="525.33" y="418.67" width="26.67" height="26.67" rx="1.60" />
<rect x="552.00" y="418.67" width="26.67" height="26.67" rx="1.60" />
<rect x="632.00" y="418.67" width="26.67" height="26.67" rx="1.60" />
<rect x="658.67" y="418.67" width="26.67" height="26.67" rx="1.60" />
<rect x="685.33" y="418.67" width="26.67" height="26.67" rx="1.60" />
<rect x="712.00" y="418.67" width="26.67" height="26.67" rx="1.60" />
<rect x="765.33" y="418.67" width="26.67" height="26.67" rx="1.60" />
<rect x="792.00" y="418.67" width="26.67" height="26.67" rx="1.60" />
<rect x="178.67" y="445.33" width="26.67" height="26.67" rx="1.60" />
<rect x="205.33" y="445.33" width="26.67" height="26.67" rx="1.60" />
<rect x="285.33" y="445.33" width="26.67" height="26.67" rx="1.60" />
<rect x="338.67" y="445.33" width="26.67" height="26.67" rx="1.60" />
<rect x="365.33" y="445.33" width="26.67" height="26.67" rx="1.60" />
<rect x="445.33" y="445.33" width="26.67" height="26.67" rx="1.60" />
<rect x="472.00" y="445.33" width="26.67" height="26.67" rx="1.60" />
<rect x="525.33" y="445.33" width="26.67" height="26.67" rx="1.60" />
<rect x="578.67" y="445.33" width="26.67" height="26.67" rx="1.60" />
<rect x="605.33" y="445.33" width="26.67" height="26.67" rx="1.60" />
<rect x="632.00" y="445.33" width="26.67" height="26.67" rx="1.60" />
<rect x="685.33" y="445.33" width="26.67" height="26.67" rx="1.60" />
<rect x="792.00" y="445.33" width="26.67" height="26.67" rx="1.60" />
<rect x="178.67" y="472.00" width="26.67" height="26.67" rx="1.60" />
<rect x="285.33" y="472.00" width="26.67" height="26.67" rx="1.60" />
<rect x="392.00" y="472.00" width="26.67" height="26.67" rx="1.60" />
<rect x="445.33" y="472.00" width="26.67" height="26.67" rx="1.60" />
<rect x="498.67" y="472.00" width="26.67" height="26.67" rx="1.60" />
<rect x="632.00" y="472.00" width="26.67" height="26.67" rx="1.60" />
<rect x="712.00" y="472.00" width="26.67" height="26.67" rx="1.60" />
<rect x="818.67" y="472.00" width="26.67" height="26.67" rx="1.60" />
<rect x="178.67" y="498.67" width="26.67" height="26.67" rx="1.60" />
<rect x="258.67" y="498.67" width="26.67" height="26.67" rx="1.60" />
<rect x="285.33" y="498.67" width="26.67" height="26.67" rx="1.60" />
<rect x="338.67" y="498.67" width="26.67" height="26.67" rx="1.60" />
<rect x="445.33" y="498.67" width="26.67" height="26.67" rx="1.60" />
<rect x="525.33" y="498.67" width="26.67" height="26.67" rx="1.60" />
<rect x="658.67" y="498.67" width="26.67" height="26.67" rx="1.60" />
<rect x="685.33" y="498.67" width="26.67" height="26.67" rx="1.60" />
<rect x="712.00" y="498.67" width="26.67" height="26.67" rx="1.60" />
<rect x="232.00" y="525.33" width="26.67" height="26.67" rx="1.60" />
<rect x="285.33" y="525.33" width="26.67" height="26.67" rx="1.60" />
<rect x="472.00" y="525.33" width="26.67" height="26.67" rx="1.60" />
<rect x="498.67" y="525.33" width="26.67" height="26.67" rx="1.60" />
<rect x="685.33" y="525.33" width="26.67" height="26.67" rx="1.60" />
<rect x="738.67" y="525.33" width="26.67" height="26.67" rx="1.60" />
<rect x="792.00" y="525.33" width="26.67" height="26.67" rx="1.60" />
<rect x="178.67" y="552.00" width="26.67" height="26.67" rx="1.60" />
<rect x="205.33" y="552.00" width="26.67" height="26.67" rx="1.60" />
<rect x="232.00" y="552.00" width="26.67" height="26.67" rx="1.60" />
<rect x="258.67" y="552.00" width="26.67" height="26.67" rx="1.60" />
<rect x="285.33" y="552.00" width="26.67" height="26.67" rx="1.60" />
<rect x="338.67" y="552.00" width="26.67" height="26.67" rx="1.60" />
<rect x="365.33" y="552.00" width="26.67" height="26.67" rx="1.60" />
<rect x="392.00" y="552.00" width="26.67" height="26.67" rx="1.60" />
<rect x="418.67" y="552.00" width="26.67" height="26.67" rx="1.60" />
<rect x="445.33" y="552.00" width="26.67" height="26.67" rx="1.60" />
<rect x="472.00" y="552.00" width="26.67" height="26.67" rx="1.60" />
<rect x="498.67" y="552.00" width="26.67" height="26.67" rx="1.60" />
<rect x="525.33" y="552.00" width="26.67" height="26.67" rx="1.60" />
<rect x="552.00" y="552.00" width="26.67" height="26.67" rx="1.60" />
<rect x="578.67" y="552.00" width="26.67" height="26.67" rx="1.60" />
<rect x="632.00" y="552.00" width="26.67" height="26.67" rx="1.60" />
<rect x="738.67" y="552.00" width="26.67" height="26.67" rx="1.60" />
<rect x="765.33" y="552.00" width="26.67" height="26.67" rx="1.60" />
<rect x="258.67" y="578.67" width="26.67" height="26.67" rx="1.60" />
<rect x="312.00" y="578.67" width="26.67" height="26.67" rx="1.60" />
<rect x="365.33" y="578.67" width="26.67" height="26.67" rx="1.60" />
<rect x="392.00" y="578.67" width="26.67" height="26.67" rx="1.60" />
<rect x="632.00" y="578.67" width="26.67" height="26.67" rx="1.60" />
<rect x="712.00" y="578.67" width="26.67" height="26.67" rx="1.60" />
<rect x="738.67" y="578.67" width="26.67" height="26.67" rx="1.60" />
<rect x="818.67" y="578.67" width="26.67" height="26.67" rx="1.60" />
<rect x="178.67" y="605.33" width="26.67" height="26.67" rx="1.60" />
<rect x="205.33" y="605.33" width="26.67" height="26.67" rx="1.60" />
<rect x="312.00" y="605.33" width="26.67" height="26.67" rx="1.60" />
<rect x="338.67" y="605.33" width="26.67" height="26.67" rx="1.60" />
<rect x="365.33" y="605.33" width="26.67" height="26.67" rx="1.60" />
<rect x="392.00" y="605.33" width="26.67" height="26.67" rx="1.60" />
<rect x="418.67" y="605.33" width="26.67" height="26.67" rx="1.60" />
<rect x="498.67" y="605.33" width="26.67" height="26.67" rx="1.60" />
<rect x="525.33" y="605.33" width="26.67" height="26.67" rx="1.60" />
<rect x="578.67" y="605.33" width="26.67" height="26.67" rx="1.60" />
<rect x="605.33" y="605.33" width="26.67" height="26.67" rx="1.60" />
<rect x="632.00" y="605.33" width="26.67" height="26.67" rx="1.60" />
<rect x="658.67" y="605.33" width="26.67" height="26.67" rx="1.60" />
<rect x="685.33" y="605.33" width="26.67" height="26.67" rx="1.60" />
<rect x="712.00" y="605.33" width="26.67" height="26.67" rx="1.60" />
<rect x="765.33" y="605.33" width="26.67" height="26.67" rx="1.60" />
<rect x="792.00" y="605.33" width="26.67" height="26.67" rx="1.60" />
<rect x="392.00" y="632.00" width="26.67" height="26.67" rx="1.60" />
<rect x="445.33" y="632.00" width="26.67" height="26.67" rx="1.60" />
<rect x="498.67" y="632.00" width="26.67" height="26.67" rx="1.60" />
<rect x="605.33" y="632.00" width="26.67" height="26.67" rx="1.60" />
<rect x="712.00" y="632.00" width="26.67" height="26.67" rx="1.60" />
<rect x="738.67" y="632.00" width="26.67" height="26.67" rx="1.60" />
<rect x="178.67" y="658.67" width="26.67" height="26.67" rx="1.60" />
<rect x="205.33" y="658.67" width="26.67" height="26.67" rx="1.60" />
<rect x="232.00" y="658.67" width="26.67" height="26.67" rx="1.60" />
<rect x="258.67" y="658.67" width="26.67" height="26.67" rx="1.60" />
<rect x="285.33" y="658.67" width="26.67" height="26.67" rx="1.60" />
<rect x="312.00" y="658.67" width="26.67" height="26.67" rx="1.60" />
<rect x="338.67" y="658.67" width="26.67" height="26.67" rx="1.60" />
<rect x="392.00" y="658.67" width="26.67" height="26.67" rx="1.60" />
<rect x="445.33" y="658.67" width="26.67" height="26.67" rx="1.60" />
<rect x="498.67" y="658.67" width="26.67" height="26.67" rx="1.60" />
<rect x="525.33" y="658.67" width="26.67" height="26.67" rx="1.60" />
<rect x="552.00" y="658.67" width="26.67" height="26.67" rx="1.60" />
<rect x="578.67" y="658.67" width="26.67" height="26.67" rx="1.60" />
<rect x="605.33" y="658.67" width="26.67" height="26.67" rx="1.60" />
<rect x="658.67" y="658.67" width="26.67" height="26.67" rx="1.60" />
<rect x="712.00" y="658.67" width="26.67" height="26.67" rx="1.60" />
<rect x="178.67" y="685.33" width="26.67" height="26.67" rx="1.60" />
<rect x="338.67" y="685.33" width="26.67" height="26.67" rx="1.60" />
<rect x="392.00" y="685.33" width="26.67" height="26.67" rx="1.60" />
<rect x="418.67" y="685.33" width="26.67" height="26.67" rx="1.60" />
<rect x="498.67" y="685.33" width="26.67" height="26.67" rx="1.60" />
<rect x="578.67" y="685.33" width="26.67" height="26.67" rx="1.60" />
<rect x="605.33" y="685.33" width="26.67" height="26.67" rx="1.60" />
<rect x="712.00" y="685.33" width="26.67" height="26.67" rx="1.60" />
<rect x="178.67" y="712.00" width="26.67" height="26.67" rx="1.60" />
<rect x="232.00" y="712.00" width="26.67" height="26.67" rx="1.60" />
<rect x="258.67" y="712.00" width="26.67" height="26.67" rx="1.60" />
<rect x="285.33" y="712.00" width="26.67" height="26.67" rx="1.60" />
<rect x="338.67" y="712.00" width="26.67" height="26.67" rx="1.60" />
<rect x="418.67" y="712.00" width="26.67" height="26.67" rx="1.60" />
<rect x="445.33" y="712.00" width="26.67" height="26.67" rx="1.60" />
<rect x="498.67" y="712.00" width="26.67" height="26.67" rx="1.60" />
<rect x="552.00" y="712.00" width="26.67" height="26.67" rx="1.60" />
<rect x="605.33" y="712.00" width="26.67" height="26.67" rx="1.60" />
<rect x="632.00" y="712.00" width="26.67" height="26.67" rx="1.60" />
<rect x="658.67" y="712.00" width="26.67" height="26.67" rx="1.60" />
<rect x="685.33" y="712.00" width="26.67" height="26.67" rx="1.60" />
<rect x="712.00" y="712.00" width="26.67" height="26.67" rx="1.60" />
<rect x="765.33" y="712.00" width="26.67" height="26.67" rx="1.60" />
<rect x="792.00" y="712.00" width="26.67" height="26.67" rx="1.60" />
<rect x="178.67" y="738.67" width="26.67" height="26.67" rx="1.60" />
<rect x="232.00" y="738.67" width="26.67" height="26.67" rx="1.60" />
<rect x="258.67" y="738.67" width="26.67" height="26.67" rx="1.60" />
<rect x="285.33" y="738.67" width="26.67" height="26.67" rx="1.60" />
<rect x="338.67" y="738.67" width="26.67" height="26.67" rx="1.60" />
<rect x="418.67" y="738.67" width="26.67" height="26.67" rx="1.60" />
<rect x="498.67" y="738.67" width="26.67" height="26.67" rx="1.60" />
<rect x="605.33" y="738.67" width="26.67" height="26.67" rx="1.60" />
<rect x="685.33" y="738.67" width="26.67" height="26.67" rx="1.60" />
<rect x="712.00" y="738.67" width="26.67" height="26.67" rx="1.60" />
<rect x="738.67" y="738.67" width="26.67" height="26.67" rx="1.60" />
<rect x="178.67" y="765.33" width="26.67" height="26.67" rx="1.60" />
<rect x="232.00" y="765.33" width="26.67" height="26.67" rx="1.60" />
<rect x="258.67" y="765.33" width="26.67" height="26.67" rx="1.60" />
<rect x="285.33" y="765.33" width="26.67" height="26.67" rx="1.60" />
<rect x="338.67" y="765.33" width="26.67" height="26.67" rx="1.60" />
<rect x="392.00" y="765.33" width="26.67" height="26.67" rx="1.60" />
<rect x="445.33" y="765.33" width="26.67" height="26.67" rx="1.60" />
<rect x="472.00" y="765.33" width="26.67" height="26.67" rx="1.60" />
<rect x="498.67" y="765.33" width="26.67" height="26.67" rx="1.60" />
<rect x="525.33" y="765.33" width="26.67" height="26.67" rx="1.60" />
<rect x="552.00" y="765.33" width="26.67" height="26.67" rx="1.60" />
<rect x="632.00" y="765.33" width="26.67" height="26.67" rx="1.60" />
<rect x="712.00" y="765.33" width="26.67" height="26.67" rx="1.60" />
<rect x="738.67" y="765.33" width="26.67" height="26.67" rx="1.60" />
<rect x="765.33" y="765.33" width="26.67" height="26.67" rx="1.60" />
<rect x="792.00" y="765.33" width="26.67" height="26.67" rx="1.60" />
<rect x="818.67" y="765.33" width="26.67" height="26.67" rx="1.60" />
<rect x="178.67" y="792.00" width="26.67" height="26.67" rx="1.60" />
<rect x="338.67" y="792.00" width="26.67" height="26.67" rx="1.60" />
<rect x="418.67" y="792.00" width="26.67" height="26.67" rx="1.60" />
<rect x="445.33" y="792.00" width="26.67" height="26.67" rx="1.60" />
<rect x="498.67" y="792.00" width="26.67" height="26.67" rx="1.60" />
<rect x="552.00" y="792.00" width="26.67" height="26.67" rx="1.60" />
<rect x="685.33" y="792.00" width="26.67" height="26.67" rx="1.60" />
<rect x="818.67" y="792.00" width="26.67" height="26.67" rx="1.60" />
<rect x="178.67" y="818.67" width="26.67" height="26.67" rx="1.60" />
<rect x="205.33" y="818.67" width="26.67" height="26.67" rx="1.60" />
<rect x="232.00" y="818.67" width="26.67" height="26.67" rx="1.60" />
<rect x="258.67" y="818.67" width="26.67" height="26.67" rx="1.60" />
<rect x="285.33" y="818.67" width="26.67" height="26.67" rx="1.60" />
<rect x="312.00" y="818.67" width="26.67" height="26.67" rx="1.60" />
<rect x="338.67" y="818.67" width="26.67" height="26.67" rx="1.60" />
<rect x="418.67" y="818.67" width="26.67" height="26.67" rx="1.60" />
<rect x="498.67" y="818.67" width="26.67" height="26.67" rx="1.60" />
<rect x="578.67" y="818.67" width="26.67" height="26.67" rx="1.60" />
<rect x="605.33" y="818.67" width="26.67" height="26.67" rx="1.60" />
<rect x="632.00" y="818.67" width="26.67" height="26.67" rx="1.60" />
<rect x="712.00" y="818.67" width="26.67" height="26.67" rx="1.60" />
<rect x="765.33" y="818.67" width="26.67" height="26.67" rx="1.60" />
<rect x="792.00" y="818.67" width="26.67" height="26.67" rx="1.60" />
<rect x="818.67" y="818.67" width="26.67" height="26.67" rx="1.60" />
      </g>
      <rect x="168.00" y="168.00" width="208.00" height="208.00" rx="21.33" fill="#fff8cf" opacity="0.78" />
<rect x="648.00" y="168.00" width="208.00" height="208.00" rx="21.33" fill="#fff8cf" opacity="0.78" />
<rect x="168.00" y="648.00" width="208.00" height="208.00" rx="21.33" fill="#fff8cf" opacity="0.78" />
      <g fill="#f3f0b4" opacity="0.27">
        <ellipse cx="570" cy="383" rx="77" ry="30" transform="rotate(14 570 383)" fill="#f5eab0" opacity="0.22" />
<ellipse cx="405" cy="99" rx="100" ry="33" transform="rotate(-24 405 99)" fill="#f5eab0" opacity="0.22" />
<ellipse cx="451" cy="504" rx="112" ry="36" transform="rotate(19 451 504)" fill="#f5eab0" opacity="0.22" />
<ellipse cx="184" cy="664" rx="80" ry="37" transform="rotate(-11 184 664)" fill="#f5eab0" opacity="0.22" />
<ellipse cx="831" cy="4" rx="120" ry="31" transform="rotate(28 831 4)" fill="#f5eab0" opacity="0.22" />
<ellipse cx="770" cy="760" rx="55" ry="35" transform="rotate(6 770 760)" fill="#f5eab0" opacity="0.22" />
<ellipse cx="384" cy="14" rx="87" ry="32" transform="rotate(-12 384 14)" fill="#f5eab0" opacity="0.22" />
<ellipse cx="442" cy="869" rx="100" ry="18" transform="rotate(-2 442 869)" fill="#f5eab0" opacity="0.22" />
<ellipse cx="366" cy="168" rx="62" ry="33" transform="rotate(16 366 168)" fill="#f5eab0" opacity="0.22" />
<ellipse cx="530" cy="344" rx="81" ry="31" transform="rotate(2 530 344)" fill="#f5eab0" opacity="0.22" />
<ellipse cx="42" cy="302" rx="60" ry="15" transform="rotate(3 42 302)" fill="#f5eab0" opacity="0.22" />
<ellipse cx="173" cy="150" rx="94" ry="25" transform="rotate(14 173 150)" fill="#f5eab0" opacity="0.22" />
<ellipse cx="824" cy="363" rx="40" ry="18" transform="rotate(-18 824 363)" fill="#f5eab0" opacity="0.22" />
<ellipse cx="536" cy="364" rx="56" ry="17" transform="rotate(9 536 364)" fill="#f5eab0" opacity="0.22" />
<ellipse cx="106" cy="585" rx="78" ry="37" transform="rotate(9 106 585)" fill="#f5eab0" opacity="0.22" />
<ellipse cx="508" cy="852" rx="137" ry="32" transform="rotate(-13 508 852)" fill="#f5eab0" opacity="0.22" />
<ellipse cx="383" cy="50" rx="44" ry="32" transform="rotate(-11 383 50)" fill="#f5eab0" opacity="0.22" />
<ellipse cx="763" cy="873" rx="46" ry="15" transform="rotate(22 763 873)" fill="#f5eab0" opacity="0.22" />
      </g>
      <g opacity="0.3">
        <circle cx="165" cy="961" r="2.10" fill="#7a6f52" opacity="0.250" />
<circle cx="961" cy="678" r="2.12" fill="#7a6f52" opacity="0.250" />
<circle cx="678" cy="684" r="1.70" fill="#7a6f52" opacity="0.250" />
<circle cx="684" cy="531" r="1.76" fill="#7a6f52" opacity="0.250" />
<circle cx="531" cy="552" r="1.92" fill="#7a6f52" opacity="0.250" />
<circle cx="552" cy="611" r="1.67" fill="#7a6f52" opacity="0.250" />
<circle cx="611" cy="518" r="1.13" fill="#7a6f52" opacity="0.250" />
<circle cx="518" cy="320" r="2.16" fill="#7a6f52" opacity="0.250" />
<circle cx="320" cy="698" r="1.55" fill="#7a6f52" opacity="0.250" />
<circle cx="698" cy="475" r="0.83" fill="#7a6f52" opacity="0.250" />
<circle cx="475" cy="211" r="2.02" fill="#7a6f52" opacity="0.250" />
<circle cx="211" cy="649" r="3.05" fill="#7a6f52" opacity="0.250" />
<circle cx="649" cy="1022" r="2.45" fill="#7a6f52" opacity="0.250" />
<circle cx="1022" cy="806" r="0.44" fill="#7a6f52" opacity="0.250" />
<circle cx="806" cy="70" r="2.78" fill="#7a6f52" opacity="0.250" />
<circle cx="70" cy="926" r="2.48" fill="#7a6f52" opacity="0.250" />
<circle cx="926" cy="817" r="2.53" fill="#7a6f52" opacity="0.250" />
<circle cx="817" cy="833" r="2.61" fill="#7a6f52" opacity="0.250" />
<circle cx="833" cy="862" r="1.05" fill="#7a6f52" opacity="0.250" />
<circle cx="862" cy="294" r="1.70" fill="#7a6f52" opacity="0.250" />
<circle cx="294" cy="531" r="0.65" fill="#7a6f52" opacity="0.250" />
<circle cx="531" cy="146" r="2.52" fill="#7a6f52" opacity="0.250" />
<circle cx="146" cy="829" r="2.28" fill="#7a6f52" opacity="0.250" />
<circle cx="829" cy="741" r="2.51" fill="#7a6f52" opacity="0.250" />
<circle cx="741" cy="825" r="2.67" fill="#7a6f52" opacity="0.250" />
<circle cx="825" cy="885" r="1.72" fill="#7a6f52" opacity="0.250" />
<circle cx="885" cy="538" r="2.00" fill="#7a6f52" opacity="0.250" />
<circle cx="538" cy="642" r="0.99" fill="#7a6f52" opacity="0.250" />
<circle cx="642" cy="271" r="0.79" fill="#7a6f52" opacity="0.250" />
<circle cx="271" cy="196" r="0.71" fill="#7a6f52" opacity="0.250" />
<circle cx="196" cy="170" r="1.88" fill="#7a6f52" opacity="0.250" />
<circle cx="170" cy="596" r="1.70" fill="#7a6f52" opacity="0.250" />
<circle cx="596" cy="531" r="2.33" fill="#7a6f52" opacity="0.250" />
<circle cx="531" cy="759" r="1.50" fill="#7a6f52" opacity="0.250" />
<circle cx="759" cy="456" r="0.76" fill="#7a6f52" opacity="0.250" />
<circle cx="456" cy="187" r="2.93" fill="#7a6f52" opacity="0.250" />
<circle cx="187" cy="979" r="2.93" fill="#7a6f52" opacity="0.250" />
<circle cx="979" cy="981" r="1.83" fill="#7a6f52" opacity="0.250" />
<circle cx="981" cy="579" r="2.68" fill="#7a6f52" opacity="0.250" />
<circle cx="579" cy="887" r="0.43" fill="#7a6f52" opacity="0.250" />
<circle cx="887" cy="67" r="1.60" fill="#7a6f52" opacity="0.250" />
<circle cx="67" cy="493" r="2.30" fill="#7a6f52" opacity="0.250" />
<circle cx="493" cy="751" r="2.63" fill="#7a6f52" opacity="0.250" />
<circle cx="751" cy="871" r="0.66" fill="#7a6f52" opacity="0.250" />
<circle cx="871" cy="148" r="0.72" fill="#7a6f52" opacity="0.250" />
<circle cx="148" cy="171" r="2.98" fill="#7a6f52" opacity="0.250" />
<circle cx="171" cy="998" r="2.81" fill="#7a6f52" opacity="0.250" />
<circle cx="998" cy="938" r="0.82" fill="#7a6f52" opacity="0.250" />
<circle cx="938" cy="209" r="1.49" fill="#7a6f52" opacity="0.250" />
<circle cx="209" cy="452" r="2.16" fill="#7a6f52" opacity="0.250" />
<circle cx="452" cy="700" r="0.71" fill="#7a6f52" opacity="0.250" />
<circle cx="700" cy="168" r="1.24" fill="#7a6f52" opacity="0.250" />
<circle cx="168" cy="362" r="2.61" fill="#7a6f52" opacity="0.250" />
<circle cx="362" cy="862" r="0.51" fill="#7a6f52" opacity="0.250" />
<circle cx="862" cy="95" r="2.52" fill="#7a6f52" opacity="0.250" />
<circle cx="95" cy="832" r="2.56" fill="#7a6f52" opacity="0.250" />
<circle cx="832" cy="845" r="2.93" fill="#7a6f52" opacity="0.250" />
<circle cx="845" cy="981" r="0.51" fill="#7a6f52" opacity="0.250" />
<circle cx="981" cy="96" r="3.03" fill="#7a6f52" opacity="0.250" />
<circle cx="96" cy="1018" r="1.75" fill="#7a6f52" opacity="0.250" />
<circle cx="1018" cy="549" r="3.04" fill="#7a6f52" opacity="0.250" />
<circle cx="549" cy="1020" r="0.90" fill="#7a6f52" opacity="0.250" />
<circle cx="1020" cy="239" r="1.68" fill="#7a6f52" opacity="0.250" />
<circle cx="239" cy="524" r="1.17" fill="#7a6f52" opacity="0.250" />
<circle cx="524" cy="338" r="0.62" fill="#7a6f52" opacity="0.250" />
<circle cx="338" cy="135" r="1.33" fill="#7a6f52" opacity="0.250" />
<circle cx="135" cy="395" r="1.13" fill="#7a6f52" opacity="0.250" />
<circle cx="395" cy="323" r="0.54" fill="#7a6f52" opacity="0.250" />
<circle cx="323" cy="106" r="2.70" fill="#7a6f52" opacity="0.250" />
<circle cx="106" cy="895" r="2.80" fill="#7a6f52" opacity="0.250" />
<circle cx="895" cy="934" r="1.37" fill="#7a6f52" opacity="0.250" />
<circle cx="934" cy="411" r="0.51" fill="#7a6f52" opacity="0.250" />
<circle cx="411" cy="97" r="1.09" fill="#7a6f52" opacity="0.250" />
<circle cx="97" cy="306" r="0.82" fill="#7a6f52" opacity="0.250" />
<circle cx="306" cy="210" r="0.39" fill="#7a6f52" opacity="0.250" />
<circle cx="210" cy="52" r="2.25" fill="#7a6f52" opacity="0.250" />
<circle cx="52" cy="731" r="2.55" fill="#7a6f52" opacity="0.250" />
<circle cx="731" cy="842" r="1.07" fill="#7a6f52" opacity="0.250" />
<circle cx="842" cy="299" r="2.63" fill="#7a6f52" opacity="0.250" />
<circle cx="299" cy="869" r="2.26" fill="#7a6f52" opacity="0.250" />
<circle cx="869" cy="735" r="2.22" fill="#7a6f52" opacity="0.250" />
<circle cx="735" cy="722" r="2.83" fill="#7a6f52" opacity="0.250" />
<circle cx="722" cy="943" r="2.55" fill="#7a6f52" opacity="0.250" />
<circle cx="943" cy="842" r="1.72" fill="#7a6f52" opacity="0.250" />
<circle cx="842" cy="538" r="2.87" fill="#7a6f52" opacity="0.250" />
<circle cx="538" cy="960" r="1.72" fill="#7a6f52" opacity="0.250" />
<circle cx="960" cy="538" r="0.32" fill="#7a6f52" opacity="0.250" />
<circle cx="538" cy="24" r="1.54" fill="#7a6f52" opacity="0.250" />
<circle cx="24" cy="473" r="1.91" fill="#7a6f52" opacity="0.250" />
<circle cx="473" cy="606" r="1.96" fill="#7a6f52" opacity="0.250" />
<circle cx="606" cy="626" r="0.95" fill="#7a6f52" opacity="0.250" />
<circle cx="626" cy="256" r="0.75" fill="#7a6f52" opacity="0.250" />
<circle cx="256" cy="182" r="1.83" fill="#7a6f52" opacity="0.250" />
<circle cx="182" cy="578" r="1.59" fill="#7a6f52" opacity="0.250" />
<circle cx="578" cy="491" r="2.42" fill="#7a6f52" opacity="0.250" />
<circle cx="491" cy="793" r="2.26" fill="#7a6f52" opacity="0.250" />
<circle cx="793" cy="735" r="0.38" fill="#7a6f52" opacity="0.250" />
<circle cx="735" cy="49" r="1.41" fill="#7a6f52" opacity="0.250" />
<circle cx="49" cy="423" r="1.03" fill="#7a6f52" opacity="0.250" />
<circle cx="423" cy="285" r="0.78" fill="#7a6f52" opacity="0.250" />
<circle cx="285" cy="193" r="2.84" fill="#7a6f52" opacity="0.250" />
<circle cx="193" cy="946" r="2.08" fill="#7a6f52" opacity="0.250" />
<circle cx="946" cy="667" r="0.84" fill="#7a6f52" opacity="0.250" />
<circle cx="667" cy="217" r="1.03" fill="#7a6f52" opacity="0.250" />
<circle cx="217" cy="284" r="0.87" fill="#7a6f52" opacity="0.250" />
<circle cx="284" cy="226" r="2.44" fill="#7a6f52" opacity="0.250" />
<circle cx="226" cy="800" r="2.97" fill="#7a6f52" opacity="0.250" />
<circle cx="800" cy="996" r="2.47" fill="#7a6f52" opacity="0.250" />
<circle cx="996" cy="813" r="1.69" fill="#7a6f52" opacity="0.250" />
<circle cx="813" cy="527" r="2.61" fill="#7a6f52" opacity="0.250" />
<circle cx="527" cy="864" r="1.91" fill="#7a6f52" opacity="0.250" />
<circle cx="864" cy="607" r="1.38" fill="#7a6f52" opacity="0.250" />
<circle cx="607" cy="412" r="0.91" fill="#7a6f52" opacity="0.250" />
<circle cx="412" cy="241" r="0.97" fill="#7a6f52" opacity="0.250" />
<circle cx="241" cy="263" r="2.07" fill="#7a6f52" opacity="0.250" />
<circle cx="263" cy="664" r="2.15" fill="#7a6f52" opacity="0.250" />
<circle cx="664" cy="693" r="2.62" fill="#7a6f52" opacity="0.250" />
<circle cx="693" cy="865" r="2.35" fill="#7a6f52" opacity="0.250" />
<circle cx="865" cy="769" r="2.06" fill="#7a6f52" opacity="0.250" />
<circle cx="769" cy="660" r="2.95" fill="#7a6f52" opacity="0.250" />
      </g>
    </g>
  
  <g opacity="0.12">
    <circle cx="120" cy="130" r="84" fill="#ffffff" />
    <circle cx="900" cy="166" r="96" fill="#ffffff" />
    <circle cx="856" cy="860" r="124" fill="#ffffff" />
  </g>
  <text x="72" y="974" font-family="Arial, Helvetica, sans-serif" font-size="26" font-weight="700" fill="#334155" opacity="0.72">Nguy hiểm - Hỏng hoàn toàn</text>
  <text x="72" y="1002" font-family="Arial, Helvetica, sans-serif" font-size="16" fill="#475569" opacity="0.74">QR-ORIGINAL-FRESH • cận cảnh macro</text>
</svg>