<?xml version="1.0" encoding="UTF-8"?>
<svg xmlns="http://www.w3.org/2000/svg" width="1024" height="1024" viewBox="0 0 1024 1024" role="img" aria-label="Cảnh báo - Biến dạng nặng • cận cảnh macro">
  
    <defs>
      <linearGradient id="bg-3" x1="0%" y1="0%" x2="100%" y2="100%">
        <stop offset="0%" stop-color="#f4f8ef" />
        <stop offset="100%" stop-color="#e7edd9" />
      </linearGradient>
      
    <filter id="film-3-front" x="-20%" y="-20%" width="140%" height="140%">
      <feGaussianBlur in="SourceGraphic" stdDeviation="0.45" result="blur" />
      <feColorMatrix in="blur" type="matrix" values="0.78 0 0 0 0 0 0.78 0 0 0 0 0 0.78 0 0 0 0 0 1 0" result="contrast" />
      <feTurbulence type="fractalNoise" baseFrequency="0.0140" numOctaves="2" seed="56" result="noise" />
      <feDisplacementMap in="contrast" in2="noise" scale="12.00" xChannelSelector="R" yChannelSelector="G" result="warp" />
      <feMerge>
        <feMergeNode in="warp" />
      </feMerge>
    </filter>
  

    <filter id="film-3-tilt" x="-20%" y="-20%" width="140%" height="140%">
      <feGaussianBlur in="SourceGraphic" stdDeviation="0.45" result="blur" />
      <feColorMatrix in="blur" type="matrix" values="0.78 0 0 0 0 0 0.78 0 0 0 0 0 0.78 0 0 0 0 0 1 0" result="contrast" />
      <feTurbulence type="fractalNoise" baseFrequency="0.0140" numOctaves="2" seed="55" result="noise" />
      <feDisplacementMap in="contrast" in2="noise" scale="12.00" xChannelSelector="R" yChannelSelector="G" result="warp" />
      <feMerge>
        <feMergeNode in="warp" />
      </feMerge>
    </filter>
  

    <filter id="film-3-macro" x="-20%" y="-20%" width="140%" height="140%">
      <feGaussianBlur in="SourceGraphic" stdDeviation="0.45" result="blur" />
      <feColorMatrix in="blur" type="matrix" values="0.78 0 0 0 0 0 0.78 0 0 0 0 0 0.78 0 0 0 0 0 1 0" result="contrast" />
      <feTurbulence type="fractalNoise" baseFrequency="0.0170" numOctaves="2" seed="56" result="noise" />
      <feDisplacementMap in="contrast" in2="noise" scale="12.00" xChannelSelector="R" yChannelSelector="G" result="warp" />
      <feMerge>
        <feMergeNode in="warp" />
      </feMerge>
    </filter>
  
    </defs>
    <rect width="100%" height="100%" fill="url(#bg-3)" />
    <rect x="40" y="40" width="944" height="944" rx="72" fill="#ffffff" opacity="0.24" />
    <rect x="72" y="72" width="880" height="880" rx="58" fill="#ffffff" opacity="0.15" />
  
  
    <g transform="translate(512 512) rotate(4) skewX(3) skewY(-2) scale(1.18) translate(-504 -510)" filter="url(#film-3-macro)" opacity="0.88">
      <rect x="0" y="0" width="1024" height="1024" fill="transparent" />
      <g fill="#587b36" shape-rendering="crispEdges">
        <rect x="178.67" y="178.67" width="26.67" height="26.67" rx="1.60" />
<rect x="205.33" y="178.67" width="26.67" height="26.67" rx="1.60" />
<rect x="232.00" y="178.67" width="26.67" height="26.67" rx="1.60" />
<rect x="258.67" y="178.67" width="26.67" height="26.67" rx="1.60" />
<rect x="285.33" y="178.67" width="26.67" height="26.67" rx="1.60" />
<rect x="312.00" y="178.67" width="26.67" height="26.67" rx="1.60" />
<rect x="338.67" y="178.67" width="26.67" height="26.67" rx="1.60" />
<rect x="418.67" y="178.67" width="26.67" height="26.67" rx="1.60" />
<rect x="472.00" y="178.67" width="26.67" height="26.67" rx="1.60" />
<rect x="525.33" y="178.67" width="26.67" height="26.67" rx="1.60" />
<rect x="552.00" y="178.67" width="26.67" height="26.67" rx="1.60" />
<rect x="578.67" y="178.67" width="26.67" height="26.67" rx="1.60" />
<rect x="658.67" y="178.67" width="26.67" height="26.67" rx="1.60" />
<rect x="685.33" y="178.67" width="26.67" height="26.67" rx="1.60" />
<rect x="712.00" y="178.67" width="26.67" height="26.67" rx="1.60" />
<rect x="738.67" y="178.67" width="26.67" height="26.67" rx="1.60" />
<rect x="765.33" y="178.67" width="26.67" height="26.67" rx="1.60" />
<rect x="792.00" y="178.67" width="26.67" height="26.67" rx="1.60" />
<rect x="818.67" y="178.67" width="26.67" height="26.67" rx="1.60" />
<rect x="178.67" y="205.33" width="26.67" height="26.67" rx="1.60" />
<rect x="338.67" y="205.33" width="26.67" height="26.67" rx="1.60" />
<rect x="392.00" y="205.33" width="26.67" height="26.67" rx="1.60" />
<rect x="418.67" y="205.33" width="26.67" height="26.67" rx="1.60" />
<rect x="445.33" y="205.33" width="26.67" height="26.67" rx="1.60" />
<rect x="472.00" y="205.33" width="26.67" height="26.67" rx="1.60" />
<rect x="552.00" y="205.33" width="26.67" height="26.67" rx="1.60" />
<rect x="658.67" y="205.33" width="26.67" height="26.67" rx="1.60" />
<rect x="818.67" y="205.33" width="26.67" height="26.67" rx="1.60" />
<rect x="178.67" y="232.00" width="26.67" height="26.67" rx="1.60" />
<rect x="232.00" y="232.00" width="26.67" height="26.67" rx="1.60" />
<rect x="258.67" y="232.00" width="26.67" height="26.67" rx="1.60" />
<rect x="285.33" y="232.00" width="26.67" height="26.67" rx="1.60" />
<rect x="338.67" y="232.00" width="26.67" height="26.67" rx="1.60" />
<rect x="392.00" y="232.00" width="26.67" height="26.67" rx="1.60" />
<rect x="445.33" y="232.00" width="26.67" height="26.67" rx="1.60" />
<rect x="498.67" y="232.00" width="26.67" height="26.67" rx="1.60" />
<rect x="525.33" y="232.00" width="26.67" height="26.67" rx="1.60" />
<rect x="658.67" y="232.00" width="26.67" height="26.67" rx="1.60" />
<rect x="712.00" y="232.00" width="26.67" height="26.67" rx="1.60" />
<rect x="738.67" y="232.00" width="26.67" height="26.67" rx="1.60" />
<rect x="765.33" y="232.00" width="26.67" height="26.67" rx="1.60" />
<rect x="818.67" y="232.00" width="26.67" height="26.67" rx="1.60" />
<rect x="178.67" y="258.67" width="26.67" height="26.67" rx="1.60" />
<rect x="232.00" y="258.67" width="26.67" height="26.67" rx="1.60" />
<rect x="258.67" y="258.67" width="26.67" height="26.67" rx="1.60" />
<rect x="285.33" y="258.67" width="26.67" height="26.67" rx="1.60" />
<rect x="338.67" y="258.67" width="26.67" height="26.67" rx="1.60" />
<rect x="392.00" y="258.67" width="26.67" height="26.67" rx="1.60" />
<rect x="418.67" y="258.67" width="26.67" height="26.67" rx="1.60" />
<rect x="472.00" y="258.67" width="26.67" height="26.67" rx="1.60" />
<rect x="552.00" y="258.67" width="26.67" height="26.67" rx="1.60" />
<rect x="658.67" y="258.67" width="26.67" height="26.67" rx="1.60" />
<rect x="712.00" y="258.67" width="26.67" height="26.67" rx="1.60" />
<rect x="738.67" y="258.67" width="26.67" height="26.67" rx="1.60" />
<rect x="765.33" y="258.67" width="26.67" height="26.67" rx="1.60" />
<rect x="818.67" y="258.67" width="26.67" height="26.67" rx="1.60" />
<rect x="178.67" y="285.33" width="26.67" height="26.67" rx="1.60" />
<rect x="232.00" y="285.33" width="26.67" height="26.67" rx="1.60" />
<rect x="258.67" y="285.33" width="26.67" height="26.67" rx="1.60" />
<rect x="285.33" y="285.33" width="26.67" height="26.67" rx="1.60" />
<rect x="338.67" y="285.33" width="26.67" height="26.67" rx="1.60" />
<rect x="392.00" y="285.33" width="26.67" height="26.67" rx="1.60" />
<rect x="418.67" y="285.33" width="26.67" height="26.67" rx="1.60" />
<rect x="472.00" y="285.33" width="26.67" height="26.67" rx="1.60" />
<rect x="525.33" y="285.33" width="26.67" height="26.67" rx="1.60" />
<rect x="552.00" y="285.33" width="26.67" height="26.67" rx="1.60" />
<rect x="578.67" y="285.33" width="26.67" height="26.67" rx="1.60" />
<rect x="658.67" y="285.33" width="26.67" height="26.67" rx="1.60" />
<rect x="712.00" y="285.33" width="26.67" height="26.67" rx="1.60" />
<rect x="738.67" y="285.33" width="26.67" height="26.67" rx="1.60" />
<rect x="765.33" y="285.33" width="26.67" height="26.67" rx="1.60" />
<rect x="818.67" y="285.33" width="26.67" height="26.67" rx="1.60" />
<rect x="178.67" y="312.00" width="26.67" height="26.67" rx="1.60" />
<rect x="338.67" y="312.00" width="26.67" height="26.67" rx="1.60" />
<rect x="392.00" y="312.00" width="26.67" height="26.67" rx="1.60" />
<rect x="445.33" y="312.00" width="26.67" height="26.67" rx="1.60" />
<rect x="472.00" y="312.00" width="26.67" height="26.67" rx="1.60" />
<rect x="498.67" y="312.00" width="26.67" height="26.67" rx="1.60" />
<rect x="525.33" y="312.00" width="26.67" height="26.67" rx="1.60" />
<rect x="578.67" y="312.00" width="26.67" height="26.67" rx="1.60" />
<rect x="605.33" y="312.00" width="26.67" height="26.67" rx="1.60" />
<rect x="658.67" y="312.00" width="26.67" height="26.67" rx="1.60" />
<rect x="818.67" y="312.00" width="26.67" height="26.67" rx="1.60" />
<rect x="178.67" y="338.67" width="26.67" height="26.67" rx="1.60" />
<rect x="205.33" y="338.67" width="26.67" height="26.67" rx="1.60" />
<rect x="232.00" y="338.67" width="26.67" height="26.67" rx="1.60" />
<rect x="258.67" y="338.67" width="26.67" height="26.67" rx="1.60" />
<rect x="285.33" y="338.67" width="26.67" height="26.67" rx="1.60" />
<rect x="312.00" y="338.67" width="26.67" height="26.67" rx="1.60" />
<rect x="338.67" y="338.67" width="26.67" height="26.67" rx="1.60" />
<rect x="392.00" y="338.67" width="26.67" height="26.67" rx="1.60" />
<rect x="445.33" y="338.67" width="26.67" height="26.67" rx="1.60" />
<rect x="498.67" y="338.67" width="26.67" height="26.67" rx="1.60" />
<rect x="552.00" y="338.67" width="26.67" height="26.67" rx="1.60" />
<rect x="605.33" y="338.67" width="26.67" height="26.67" rx="1.60" />
<rect x="658.67" y="338.67" width="26.67" height="26.67" rx="1.60" />
<rect x="685.33" y="338.67" width="26.67" height="26.67" rx="1.60" />
<rect x="712.00" y="338.67" width="26.67" height="26.67" rx="1.60" />
<rect x="738.67" y="338.67" width="26.67" height="26.67" rx="1.60" />
<rect x="765.33" y="338.67" width="26.67" height="26.67" rx="1.60" />
<rect x="792.00" y="338.67" width="26.67" height="26.67" rx="1.60" />
<rect x="818.67" y="338.67" width="26.67" height="26.67" rx="1.60" />
<rect x="418.67" y="365.33" width="26.67" height="26.67" rx="1.60" />
<rect x="552.00" y="365.33" width="26.67" height="26.67" rx="1.60" />
<rect x="578.67" y="365.33" width="26.67" height="26.67" rx="1.60" />
<rect x="605.33" y="365.33" width="26.67" height="26.67" rx="1.60" />
<rect x="232.00" y="392.00" width="26.67" height="26.67" rx="1.60" />
<rect x="312.00" y="392.00" width="26.67" height="26.67" rx="1.60" />
<rect x="338.67" y="392.00" width="26.67" height="26.67" rx="1.60" />
<rect x="365.33" y="392.00" width="26.67" height="26.67" rx="1.60" />
<rect x="392.00" y="392.00" width="26.67" height="26.67" rx="1.60" />
<rect x="418.67" y="392.00" width="26.67" height="26.67" rx="1.60" />
<rect x="472.00" y="392.00" width="26.67" height="26.67" rx="1.60" />
<rect x="498.67" y="392.00" width="26.67" height="26.67" rx="1.60" />
<rect x="578.67" y="392.00" width="26.67" height="26.67" rx="1.60" />
<rect x="632.00" y="392.00" width="26.67" height="26.67" rx="1.60" />
<rect x="685.33" y="392.00" width="26.67" height="26.67" rx="1.60" />
<rect x="712.00" y="392.00" width="26.67" height="26.67" rx="1.60" />
<rect x="738.67" y="392.00" width="26.67" height="26.67" rx="1.60" />
<rect x="765.33" y="392.00" width="26.67" height="26.67" rx="1.60" />
<rect x="792.00" y="392.00" width="26.67" height="26.67" rx="1.60" />
<rect x="258.67" y="418.67" width="26.67" height="26.67" rx="1.60" />
<rect x="365.33" y="418.67" width="26.67" height="26.67" rx="1.60" />
<rect x="418.67" y="418.67" width="26.67" height="26.67" rx="1.60" />
<rect x="445.33" y="418.67" width="26.67" height="26.67" rx="1.60" />
<rect x="472.00" y="418.67" width="26.67" height="26.67" rx="1.60" />
<rect x="525.33" y="418.67" width="26.67" height="26.67" rx="1.60" />
<rect x="552.00" y="418.67" width="26.67" height="26.67" rx="1.60" />
<rect x="632.00" y="418.67" width="26.67" height="26.67" rx="1.60" />
<rect x="658.67" y="418.67" width="26.67" height="26.67" rx="1.60" />
<rect x="685.33" y="418.67" width="26.67" height="26.67" rx="1.60" />
<rect x="712.00" y="418.67" width="26.67" height="26.67" rx="1.60" />
<rect x="765.33" y="418.67" width="26.67" height="26.67" rx="1.60" />
<rect x="792.00" y="418.67" width="26.67" height="26.67" rx="1.60" />
<rect x="178.67" y="445.33" width="26.67" height="26.67" rx="1.60" />
<rect x="205.33" y="445.33" width="26.67" height="26.67" rx="1.60" />
<rect x="285.33" y="445.33" width="26.67" height="26.67" rx="1.60" />
<rect x="338.67" y="445.33" width="26.67" height="26.67" rx="1.60" />
<rect x="365.33" y="445.33" width="26.67" height="26.67" rx="1.60" />
<rect x="445.33" y="445.33" width="26.67" height="26.67" rx="1.60" />
<rect x="472.00" y="445.33" width="26.67" height="26.67" rx="1.60" />
<rect x="525.33" y="445.33" width="26.67" height="26.67" rx="1.60" />
<rect x="578.67" y="445.33" width="26.67" height="26.67" rx="1.60" />
<rect x="605.33" y="445.33" width="26.67" height="26.67" rx="1.60" />
<rect x="632.00" y="445.33" width="26.67" height="26.67" rx="1.60" />
<rect x="685.33" y="445.33" width="26.67" height="26.67" rx="1.60" />
<rect x="792.00" y="445.33" width="26.67" height="26.67" rx="1.60" />
<rect x="178.67" y="472.00" width="26.67" height="26.67" rx="1.60" />
<rect x="285.33" y="472.00" width="26.67" height="26.67" rx="1.60" />
<rect x="392.00" y="472.00" width="26.67" height="26.67" rx="1.60" />
<rect x="445.33" y="472.00" width="26.67" height="26.67" rx="1.60" />
<rect x="498.67" y="472.00" width="26.67" height="26.67" rx="1.60" />
<rect x="632.00" y="472.00" width="26.67" height="26.67" rx="1.60" />
<rect x="712.00" y="472.00" width="26.67" height="26.67" rx="1.60" />
<rect x="818.67" y="472.00" width="26.67" height="26.67" rx="1.60" />
<rect x="178.67" y="498.67" width="26.67" height="26.67" rx="1.60" />
<rect x="258.67" y="498.67" width="26.67" height="26.67" rx="1.60" />
<rect x="285.33" y="498.67" width="26.67" height="26.67" rx="1.60" />
<rect x="338.67" y="498.67" width="26.67" height="26.67" rx="1.60" />
<rect x="445.33" y="498.67" width="26.67" height="26.67" rx="1.60" />
<rect x="525.33" y="498.67" width="26.67" height="26.67" rx="1.60" />
<rect x="658.67" y="498.67" width="26.67" height="26.67" rx="1.60" />
<rect x="685.33" y="498.67" width="26.67" height="26.67" rx="1.60" />
<rect x="712.00" y="498.67" width="26.67" height="26.67" rx="1.60" />
<rect x="232.00" y="525.33" width="26.67" height="26.67" rx="1.60" />
<rect x="285.33" y="525.33" width="26.67" height="26.67" rx="1.60" />
<rect x="472.00" y="525.33" width="26.67" height="26.67" rx="1.60" />
<rect x="498.67" y="525.33" width="26.67" height="26.67" rx="1.60" />
<rect x="685.33" y="525.33" width="26.67" height="26.67" rx="1.60" />
<rect x="738.67" y="525.33" width="26.67" height="26.67" rx="1.60" />
<rect x="792.00" y="525.33" width="26.67" height="26.67" rx="1.60" />
<rect x="178.67" y="552.00" width="26.67" height="26.67" rx="1.60" />
<rect x="205.33" y="552.00" width="26.67" height="26.67" rx="1.60" />
<rect x="232.00" y="552.00" width="26.67" height="26.67" rx="1.60" />
<rect x="258.67" y="552.00" width="26.67" height="26.67" rx="1.60" />
<rect x="285.33" y="552.00" width="26.67" height="26.67" rx="1.60" />
<rect x="338.67" y="552.00" width="26.67" height="26.67" rx="1.60" />
<rect x="365.33" y="552.00" width="26.67" height="26.67" rx="1.60" />
<rect x="392.00" y="552.00" width="26.67" height="26.67" rx="1.60" />
<rect x="418.67" y="552.00" width="26.67" height="26.67" rx="1.60" />
<rect x="445.33" y="552.00" width="26.67" height="26.67" rx="1.60" />
<rect x="472.00" y="552.00" width="26.67" height="26.67" rx="1.60" />
<rect x="498.67" y="552.00" width="26.67" height="26.67" rx="1.60" />
<rect x="525.33" y="552.00" width="26.67" height="26.67" rx="1.60" />
<rect x="552.00" y="552.00" width="26.67" height="26.67" rx="1.60" />
<rect x="578.67" y="552.00" width="26.67" height="26.67" rx="1.60" />
<rect x="632.00" y="552.00" width="26.67" height="26.67" rx="1.60" />
<rect x="738.67" y="552.00" width="26.67" height="26.67" rx="1.60" />
<rect x="765.33" y="552.00" width="26.67" height="26.67" rx="1.60" />
<rect x="258.67" y="578.67" width="26.67" height="26.67" rx="1.60" />
<rect x="312.00" y="578.67" width="26.67" height="26.67" rx="1.60" />
<rect x="365.33" y="578.67" width="26.67" height="26.67" rx="1.60" />
<rect x="392.00" y="578.67" width="26.67" height="26.67" rx="1.60" />
<rect x="632.00" y="578.67" width="26.67" height="26.67" rx="1.60" />
<rect x="712.00" y="578.67" width="26.67" height="26.67" rx="1.60" />
<rect x="738.67" y="578.67" width="26.67" height="26.67" rx="1.60" />
<rect x="818.67" y="578.67" width="26.67" height="26.67" rx="1.60" />
<rect x="178.67" y="605.33" width="26.67" height="26.67" rx="1.60" />
<rect x="205.33" y="605.33" width="26.67" height="26.67" rx="1.60" />
<rect x="312.00" y="605.33" width="26.67" height="26.67" rx="1.60" />
<rect x="338.67" y="605.33" width="26.67" height="26.67" rx="1.60" />
<rect x="365.33" y="605.33" width="26.67" height="26.67" rx="1.60" />
<rect x="392.00" y="605.33" width="26.67" height="26.67" rx="1.60" />
<rect x="418.67" y="605.33" width="26.67" height="26.67" rx="1.60" />
<rect x="498.67" y="605.33" width="26.67" height="26.67" rx="1.60" />
<rect x="525.33" y="605.33" width="26.67" height="26.67" rx="1.60" />
<rect x="578.67" y="605.33" width="26.67" height="26.67" rx="1.60" />
<rect x="605.33" y="605.33" width="26.67" height="26.67" rx="1.60" />
<rect x="632.00" y="605.33" width="26.67" height="26.67" rx="1.60" />
<rect x="658.67" y="605.33" width="26.67" height="26.67" rx="1.60" />
<rect x="685.33" y="605.33" width="26.67" height="26.67" rx="1.60" />
<rect x="712.00" y="605.33" width="26.67" height="26.67" rx="1.60" />
<rect x="765.33" y="605.33" width="26.67" height="26.67" rx="1.60" />
<rect x="792.00" y="605.33" width="26.67" height="26.67" rx="1.60" />
<rect x="392.00" y="632.00" width="26.67" height="26.67" rx="1.60" />
<rect x="445.33" y="632.00" width="26.67" height="26.67" rx="1.60" />
<rect x="498.67" y="632.00" width="26.67" height="26.67" rx="1.60" />
<rect x="605.33" y="632.00" width="26.67" height="26.67" rx="1.60" />
<rect x="712.00" y="632.00" width="26.67" height="26.67" rx="1.60" />
<rect x="738.67" y="632.00" width="26.67" height="26.67" rx="1.60" />
<rect x="178.67" y="658.67" width="26.67" height="26.67" rx="1.60" />
<rect x="205.33" y="658.67" width="26.67" height="26.67" rx="1.60" />
<rect x="232.00" y="658.67" width="26.67" height="26.67" rx="1.60" />
<rect x="258.67" y="658.67" width="26.67" height="26.67" rx="1.60" />
<rect x="285.33" y="658.67" width="26.67" height="26.67" rx="1.60" />
<rect x="312.00" y="658.67" width="26.67" height="26.67" rx="1.60" />
<rect x="338.67" y="658.67" width="26.67" height="26.67" rx="1.60" />
<rect x="392.00" y="658.67" width="26.67" height="26.67" rx="1.60" />
<rect x="445.33" y="658.67" width="26.67" height="26.67" rx="1.60" />
<rect x="498.67" y="658.67" width="26.67" height="26.67" rx="1.60" />
<rect x="525.33" y="658.67" width="26.67" height="26.67" rx="1.60" />
<rect x="552.00" y="658.67" width="26.67" height="26.67" rx="1.60" />
<rect x="578.67" y="658.67" width="26.67" height="26.67" rx="1.60" />
<rect x="605.33" y="658.67" width="26.67" height="26.67" rx="1.60" />
<rect x="658.67" y="658.67" width="26.67" height="26.67" rx="1.60" />
<rect x="712.00" y="658.67" width="26.67" height="26.67" rx="1.60" />
<rect x="178.67" y="685.33" width="26.67" height="26.67" rx="1.60" />
<rect x="338.67" y="685.33" width="26.67" height="26.67" rx="1.60" />
<rect x="392.00" y="685.33" width="26.67" height="26.67" rx="1.60" />
<rect x="418.67" y="685.33" width="26.67" height="26.67" rx="1.60" />
<rect x="498.67" y="685.33" width="26.67" height="26.67" rx="1.60" />
<rect x="578.67" y="685.33" width="26.67" height="26.67" rx="1.60" />
<rect x="605.33" y="685.33" width="26.67" height="26.67" rx="1.60" />
<rect x="712.00" y="685.33" width="26.67" height="26.67" rx="1.60" />
<rect x="178.67" y="712.00" width="26.67" height="26.67" rx="1.60" />
<rect x="232.00" y="712.00" width="26.67" height="26.67" rx="1.60" />
<rect x="258.67" y="712.00" width="26.67" height="26.67" rx="1.60" />
<rect x="285.33" y="712.00" width="26.67" height="26.67" rx="1.60" />
<rect x="338.67" y="712.00" width="26.67" height="26.67" rx="1.60" />
<rect x="418.67" y="712.00" width="26.67" height="26.67" rx="1.60" />
<rect x="445.33" y="712.00" width="26.67" height="26.67" rx="1.60" />
<rect x="498.67" y="712.00" width="26.67" height="26.67" rx="1.60" />
<rect x="552.00" y="712.00" width="26.67" height="26.67" rx="1.60" />
<rect x="605.33" y="712.00" width="26.67" height="26.67" rx="1.60" />
<rect x="632.00" y="712.00" width="26.67" height="26.67" rx="1.60" />
<rect x="658.67" y="712.00" width="26.67" height="26.67" rx="1.60" />
<rect x="685.33" y="712.00" width="26.67" height="26.67" rx="1.60" />
<rect x="712.00" y="712.00" width="26.67" height="26.67" rx="1.60" />
<rect x="765.33" y="712.00" width="26.67" height="26.67" rx="1.60" />
<rect x="792.00" y="712.00" width="26.67" height="26.67" rx="1.60" />
<rect x="178.67" y="738.67" width="26.67" height="26.67" rx="1.60" />
<rect x="232.00" y="738.67" width="26.67" height="26.67" rx="1.60" />
<rect x="258.67" y="738.67" width="26.67" height="26.67" rx="1.60" />
<rect x="285.33" y="738.67" width="26.67" height="26.67" rx="1.60" />
<rect x="338.67" y="738.67" width="26.67" height="26.67" rx="1.60" />
<rect x="418.67" y="738.67" width="26.67" height="26.67" rx="1.60" />
<rect x="498.67" y="738.67" width="26.67" height="26.67" rx="1.60" />
<rect x="605.33" y="738.67" width="26.67" height="26.67" rx="1.60" />
<rect x="685.33" y="738.67" width="26.67" height="26.67" rx="1.60" />
<rect x="712.00" y="738.67" width="26.67" height="26.67" rx="1.60" />
<rect x="738.67" y="738.67" width="26.67" height="26.67" rx="1.60" />
<rect x="178.67" y="765.33" width="26.67" height="26.67" rx="1.60" />
<rect x="232.00" y="765.33" width="26.67" height="26.67" rx="1.60" />
<rect x="258.67" y="765.33" width="26.67" height="26.67" rx="1.60" />
<rect x="285.33" y="765.33" width="26.67" height="26.67" rx="1.60" />
<rect x="338.67" y="765.33" width="26.67" height="26.67" rx="1.60" />
<rect x="392.00" y="765.33" width="26.67" height="26.67" rx="1.60" />
<rect x="445.33" y="765.33" width="26.67" height="26.67" rx="1.60" />
<rect x="472.00" y="765.33" width="26.67" height="26.67" rx="1.60" />
<rect x="498.67" y="765.33" width="26.67" height="26.67" rx="1.60" />
<rect x="525.33" y="765.33" width="26.67" height="26.67" rx="1.60" />
<rect x="552.00" y="765.33" width="26.67" height="26.67" rx="1.60" />
<rect x="632.00" y="765.33" width="26.67" height="26.67" rx="1.60" />
<rect x="712.00" y="765.33" width="26.67" height="26.67" rx="1.60" />
<rect x="738.67" y="765.33" width="26.67" height="26.67" rx="1.60" />
<rect x="765.33" y="765.33" width="26.67" height="26.67" rx="1.60" />
<rect x="792.00" y="765.33" width="26.67" height="26.67" rx="1.60" />
<rect x="818.67" y="765.33" width="26.67" height="26.67" rx="1.60" />
<rect x="178.67" y="792.00" width="26.67" height="26.67" rx="1.60" />
<rect x="338.67" y="792.00" width="26.67" height="26.67" rx="1.60" />
<rect x="418.67" y="792.00" width="26.67" height="26.67" rx="1.60" />
<rect x="445.33" y="792.00" width="26.67" height="26.67" rx="1.60" />
<rect x="498.67" y="792.00" width="26.67" height="26.67" rx="1.60" />
<rect x="552.00" y="792.00" width="26.67" height="26.67" rx="1.60" />
<rect x="685.33" y="792.00" width="26.67" height="26.67" rx="1.60" />
<rect x="818.67" y="792.00" width="26.67" height="26.67" rx="1.60" />
<rect x="178.67" y="818.67" width="26.67" height="26.67" rx="1.60" />
<rect x="205.33" y="818.67" width="26.67" height="26.67" rx="1.60" />
<rect x="232.00" y="818.67" width="26.67" height="26.67" rx="1.60" />
<rect x="258.67" y="818.67" width="26.67" height="26.67" rx="1.60" />
<rect x="285.33" y="818.67" width="26.67" height="26.67" rx="1.60" />
<rect x="312.00" y="818.67" width="26.67" height="26.67" rx="1.60" />
<rect x="338.67" y="818.67" width="26.67" height="26.67" rx="1.60" />
<rect x="418.67" y="818.67" width="26.67" height="26.67" rx="1.60" />
<rect x="498.67" y="818.67" width="26.67" height="26.67" rx="1.60" />
<rect x="578.67" y="818.67" width="26.67" height="26.67" rx="1.60" />
<rect x="605.33" y="818.67" width="26.67" height="26.67" rx="1.60" />
<rect x="632.00" y="818.67" width="26.67" height="26.67" rx="1.60" />
<rect x="712.00" y="818.67" width="26.67" height="26.67" rx="1.60" />
<rect x="765.33" y="818.67" width="26.67" height="26.67" rx="1.60" />
<rect x="792.00" y="818.67" width="26.67" height="26.67" rx="1.60" />
<rect x="818.67" y="818.67" width="26.67" height="26.67" rx="1.60" />
      </g>
      
      <g fill="#7ea65c" opacity="0.14">
        <ellipse cx="861" cy="509" rx="90" ry="22" transform="rotate(-13 861 509)" fill="#8ab36b" opacity="0.12" />
<ellipse cx="287" cy="774" rx="81" ry="25" transform="rotate(27 287 774)" fill="#8ab36b" opacity="0.12" />
<ellipse cx="387" cy="167" rx="121" ry="20" transform="rotate(-18 387 167)" fill="#8ab36b" opacity="0.12" />
<ellipse cx="747" cy="91" rx="131" ry="20" transform="rotate(-21 747 91)" fill="#8ab36b" opacity="0.12" />
<ellipse cx="452" cy="228" rx="119" ry="29" transform="rotate(15 452 228)" fill="#8ab36b" opacity="0.12" />
<ellipse cx="658" cy="717" rx="72" ry="29" transform="rotate(12 658 717)" fill="#8ab36b" opacity="0.12" />
<ellipse cx="111" cy="522" rx="128" ry="31" transform="rotate(22 111 522)" fill="#8ab36b" opacity="0.12" />
<ellipse cx="736" cy="835" rx="48" ry="13" transform="rotate(-3 736 835)" fill="#8ab36b" opacity="0.12" />
<ellipse cx="185" cy="94" rx="52" ry="17" transform="rotate(16 185 94)" fill="#8ab36b" opacity="0.12" />
<ellipse cx="820" cy="763" rx="103" ry="25" transform="rotate(-4 820 763)" fill="#8ab36b" opacity="0.12" />
<ellipse cx="674" cy="483" rx="36" ry="16" transform="rotate(9 674 483)" fill="#8ab36b" opacity="0.12" />
<ellipse cx="506" cy="282" rx="137" ry="14" transform="rotate(12 506 282)" fill="#8ab36b" opacity="0.12" />
<ellipse cx="872" cy="520" rx="124" ry="37" transform="rotate(2 872 520)" fill="#8ab36b" opacity="0.12" />
<ellipse cx="666" cy="816" rx="110" ry="14" transform="rotate(-27 666 816)" fill="#8ab36b" opacity="0.12" />
<ellipse cx="477" cy="576" rx="63" ry="17" transform="rotate(-10 477 576)" fill="#8ab36b" opacity="0.12" />
<ellipse cx="408" cy="881" rx="86" ry="25" transform="rotate(-29 408 881)" fill="#8ab36b" opacity="0.12" />
<ellipse cx="364" cy="128" rx="128" ry="15" transform="rotate(-6 364 128)" fill="#8ab36b" opacity="0.12" />
<ellipse cx="49" cy="735" rx="32" ry="34" transform="rotate(3 49 735)" fill="#8ab36b" opacity="0.12" />
      </g>
      <g opacity="0.12">
        <circle cx="57" cy="238" r="1.67" fill="#6ea35f" opacity="0.140" />
<circle cx="238" cy="662" r="2.08" fill="#6ea35f" opacity="0.140" />
<circle cx="662" cy="853" r="1.30" fill="#6ea35f" opacity="0.140" />
<circle cx="853" cy="489" r="1.64" fill="#6ea35f" opacity="0.140" />
<circle cx="489" cy="645" r="1.42" fill="#6ea35f" opacity="0.140" />
<circle cx="645" cy="546" r="0.91" fill="#6ea35f" opacity="0.140" />
<circle cx="546" cy="307" r="1.41" fill="#6ea35f" opacity="0.140" />
<circle cx="307" cy="542" r="2.33" fill="#6ea35f" opacity="0.140" />
<circle cx="542" cy="969" r="1.09" fill="#6ea35f" opacity="0.140" />
<circle cx="969" cy="393" r="2.09" fill="#6ea35f" opacity="0.140" />
<circle cx="393" cy="856" r="0.88" fill="#6ea35f" opacity="0.140" />
<circle cx="856" cy="294" r="2.19" fill="#6ea35f" opacity="0.140" />
<circle cx="294" cy="903" r="0.48" fill="#6ea35f" opacity="0.140" />
<circle cx="903" cy="109" r="1.88" fill="#6ea35f" opacity="0.140" />
<circle cx="109" cy="759" r="2.00" fill="#6ea35f" opacity="0.140" />
<circle cx="759" cy="816" r="1.84" fill="#6ea35f" opacity="0.140" />
<circle cx="816" cy="738" r="0.32" fill="#6ea35f" opacity="0.140" />
<circle cx="738" cy="35" r="1.86" fill="#6ea35f" opacity="0.140" />
<circle cx="35" cy="747" r="0.76" fill="#6ea35f" opacity="0.140" />
<circle cx="747" cy="237" r="2.11" fill="#6ea35f" opacity="0.140" />
<circle cx="237" cy="865" r="0.28" fill="#6ea35f" opacity="0.140" />
<circle cx="865" cy="13" r="1.80" fill="#6ea35f" opacity="0.140" />
<circle cx="13" cy="723" r="1.21" fill="#6ea35f" opacity="0.140" />
<circle cx="723" cy="449" r="0.69" fill="#6ea35f" opacity="0.140" />
<circle cx="449" cy="204" r="1.39" fill="#6ea35f" opacity="0.140" />
<circle cx="204" cy="531" r="1.26" fill="#6ea35f" opacity="0.140" />
<circle cx="531" cy="471" r="0.47" fill="#6ea35f" opacity="0.140" />
<circle cx="471" cy="101" r="0.28" fill="#6ea35f" opacity="0.140" />
<circle cx="101" cy="13" r="0.47" fill="#6ea35f" opacity="0.140" />
<circle cx="13" cy="100" r="1.00" fill="#6ea35f" opacity="0.140" />
<circle cx="100" cy="348" r="2.32" fill="#6ea35f" opacity="0.140" />
<circle cx="348" cy="964" r="2.37" fill="#6ea35f" opacity="0.140" />
<circle cx="964" cy="985" r="1.81" fill="#6ea35f" opacity="0.140" />
<circle cx="985" cy="728" r="0.70" fill="#6ea35f" opacity="0.140" />
<circle cx="728" cy="211" r="1.77" fill="#6ea35f" opacity="0.140" />
<circle cx="211" cy="706" r="0.53" fill="#6ea35f" opacity="0.140" />
<circle cx="706" cy="132" r="2.06" fill="#6ea35f" opacity="0.140" />
<circle cx="132" cy="841" r="1.48" fill="#6ea35f" opacity="0.140" />
<circle cx="841" cy="573" r="0.94" fill="#6ea35f" opacity="0.140" />
<circle cx="573" cy="320" r="2.39" fill="#6ea35f" opacity="0.140" />
<circle cx="320" cy="994" r="0.56" fill="#6ea35f" opacity="0.140" />
<circle cx="994" cy="142" r="1.80" fill="#6ea35f" opacity="0.140" />
<circle cx="142" cy="722" r="0.30" fill="#6ea35f" opacity="0.140" />
<circle cx="722" cy="21" r="2.41" fill="#6ea35f" opacity="0.140" />
<circle cx="21" cy="1003" r="1.43" fill="#6ea35f" opacity="0.140" />
<circle cx="1003" cy="549" r="1.36" fill="#6ea35f" opacity="0.140" />
<circle cx="549" cy="518" r="0.40" fill="#6ea35f" opacity="0.140" />
<circle cx="518" cy="71" r="0.47" fill="#6ea35f" opacity="0.140" />
<circle cx="71" cy="104" r="0.36" fill="#6ea35f" opacity="0.140" />
<circle cx="104" cy="50" r="2.44" fill="#6ea35f" opacity="0.140" />
<circle cx="50" cy="1018" r="0.41" fill="#6ea35f" opacity="0.140" />
<circle cx="1018" cy="76" r="1.72" fill="#6ea35f" opacity="0.140" />
<circle cx="76" cy="683" r="0.97" fill="#6ea35f" opacity="0.140" />
<circle cx="683" cy="336" r="2.11" fill="#6ea35f" opacity="0.140" />
<circle cx="336" cy="864" r="0.61" fill="#6ea35f" opacity="0.140" />
<circle cx="864" cy="169" r="1.23" fill="#6ea35f" opacity="0.140" />
<circle cx="169" cy="458" r="1.19" fill="#6ea35f" opacity="0.140" />
<circle cx="458" cy="437" r="1.63" fill="#6ea35f" opacity="0.140" />
<circle cx="437" cy="641" r="0.59" fill="#6ea35f" opacity="0.140" />
<circle cx="641" cy="159" r="2.44" fill="#6ea35f" opacity="0.140" />
<circle cx="159" cy="1021" r="1.15" fill="#6ea35f" opacity="0.140" />
<circle cx="1021" cy="419" r="0.95" fill="#6ea35f" opacity="0.140" />
<circle cx="419" cy="326" r="1.84" fill="#6ea35f" opacity="0.140" />
<circle cx="326" cy="742" r="2.44" fill="#6ea35f" opacity="0.140" />
<circle cx="742" cy="1021" r="0.41" fill="#6ea35f" opacity="0.140" />
<circle cx="1021" cy="73" r="1.18" fill="#6ea35f" opacity="0.140" />
<circle cx="73" cy="431" r="0.44" fill="#6ea35f" opacity="0.140" />
<circle cx="431" cy="89" r="2.20" fill="#6ea35f" opacity="0.140" />
<circle cx="89" cy="907" r="0.85" fill="#6ea35f" opacity="0.140" />
<circle cx="907" cy="277" r="1.95" fill="#6ea35f" opacity="0.140" />
<circle cx="277" cy="790" r="1.58" fill="#6ea35f" opacity="0.140" />
<circle cx="790" cy="619" r="1.27" fill="#6ea35f" opacity="0.140" />
<circle cx="619" cy="476" r="0.46" fill="#6ea35f" opacity="0.140" />
<circle cx="476" cy="96" r="0.96" fill="#6ea35f" opacity="0.140" />
<circle cx="96" cy="332" r="0.82" fill="#6ea35f" opacity="0.140" />
<circle cx="332" cy="266" r="1.13" fill="#6ea35f" opacity="0.140" />
<circle cx="266" cy="410" r="0.53" fill="#6ea35f" opacity="0.140" />
<circle cx="410" cy="131" r="1.29" fill="#6ea35f" opacity="0.140" />
<circle cx="131" cy="482" r="2.37" fill="#6ea35f" opacity="0.140" />
<circle cx="482" cy="988" r="1.52" fill="#6ea35f" opacity="0.140" />
<circle cx="988" cy="590" r="2.13" fill="#6ea35f" opacity="0.140" />
<circle cx="590" cy="875" r="2.39" fill="#6ea35f" opacity="0.140" />
<circle cx="875" cy="997" r="1.41" fill="#6ea35f" opacity="0.140" />
<circle cx="997" cy="541" r="1.30" fill="#6ea35f" opacity="0.140" />
<circle cx="541" cy="487" r="0.74" fill="#6ea35f" opacity="0.140" />
<circle cx="487" cy="227" r="2.42" fill="#6ea35f" opacity="0.140" />
<circle cx="227" cy="1011" r="1.46" fill="#6ea35f" opacity="0.140" />
<circle cx="1011" cy="561" r="1.35" fill="#6ea35f" opacity="0.140" />
<circle cx="561" cy="511" r="0.52" fill="#6ea35f" opacity="0.140" />
<circle cx="511" cy="127" r="1.94" fill="#6ea35f" opacity="0.140" />
<circle cx="127" cy="788" r="2.34" fill="#6ea35f" opacity="0.140" />
<circle cx="788" cy="972" r="0.95" fill="#6ea35f" opacity="0.140" />
<circle cx="972" cy="324" r="0.79" fill="#6ea35f" opacity="0.140" />
<circle cx="324" cy="251" r="1.31" fill="#6ea35f" opacity="0.140" />
<circle cx="251" cy="495" r="1.25" fill="#6ea35f" opacity="0.140" />
<circle cx="495" cy="466" r="0.60" fill="#6ea35f" opacity="0.140" />
<circle cx="466" cy="164" r="0.86" fill="#6ea35f" opacity="0.140" />
<circle cx="164" cy="286" r="1.87" fill="#6ea35f" opacity="0.140" />
<circle cx="286" cy="754" r="2.00" fill="#6ea35f" opacity="0.140" />
<circle cx="754" cy="815" r="1.95" fill="#6ea35f" opacity="0.140" />
<circle cx="815" cy="789" r="0.68" fill="#6ea35f" opacity="0.140" />
<circle cx="789" cy="200" r="2.43" fill="#6ea35f" opacity="0.140" />
<circle cx="200" cy="1013" r="1.91" fill="#6ea35f" opacity="0.140" />
<circle cx="1013" cy="771" r="0.56" fill="#6ea35f" opacity="0.140" />
<circle cx="771" cy="146" r="2.15" fill="#6ea35f" opacity="0.140" />
<circle cx="146" cy="884" r="0.68" fill="#6ea35f" opacity="0.140" />
<circle cx="884" cy="199" r="0.33" fill="#6ea35f" opacity="0.140" />
<circle cx="199" cy="39" r="2.21" fill="#6ea35f" opacity="0.140" />
<circle cx="39" cy="913" r="1.67" fill="#6ea35f" opacity="0.140" />
<circle cx="913" cy="661" r="2.25" fill="#6ea35f" opacity="0.140" />
<circle cx="661" cy="933" r="0.69" fill="#6ea35f" opacity="0.140" />
<circle cx="933" cy="206" r="0.30" fill="#6ea35f" opacity="0.140" />
<circle cx="206" cy="22" r="0.71" fill="#6ea35f" opacity="0.140" />
<circle cx="22" cy="216" r="0.43" fill="#6ea35f" opacity="0.140" />
<circle cx="216" cy="82" r="1.49" fill="#6ea35f" opacity="0.140" />
<circle cx="82" cy="576" r="0.50" fill="#6ea35f" opacity="0.140" />
<circle cx="576" cy="117" r="1.86" fill="#6ea35f" opacity="0.140" />
<circle cx="117" cy="749" r="1.64" fill="#6ea35f" opacity="0.140" />
<circle cx="749" cy="647" r="2.26" fill="#6ea35f" opacity="0.140" />
<circle cx="647" cy="937" r="1.87" fill="#6ea35f" opacity="0.140" />
      </g>
    </g>
  
  <g opacity="0.12">
    <circle cx="120" cy="130" r="84" fill="#ffffff" />
    <circle cx="900" cy="166" r="96" fill="#ffffff" />
    <circle cx="856" cy="860" r="124" fill="#ffffff" />
  </g>
  <text x="72" y="974" font-family="Arial, Helvetica, sans-serif" font-size="26" font-weight="700" fill="#334155" opacity="0.72">Cảnh báo - Biến dạng nặng</text>
  <text x="72" y="1002" font-family="Arial, Helvetica, sans-serif" font-size="16" fill="#475569" opacity="0.74">QR-ORIGINAL-FRESH • cận cảnh macro</text>
</svg>