<?xml version="1.0" encoding="UTF-8"?>
<svg xmlns="http://www.w3.org/2000/svg" width="1024" height="1024" viewBox="0 0 1024 1024" role="img" aria-label="Mã gốc - Tươi • cận cảnh macro">
  
    <defs>
      <linearGradient id="bg-1" x1="0%" y1="0%" x2="100%" y2="100%">
        <stop offset="0%" stop-color="#ffffff" />
        <stop offset="100%" stop-color="#f7eff8" />
      </linearGradient>
      
    <filter id="film-1-front" x="-20%" y="-20%" width="140%" height="140%">
      <feGaussianBlur in="SourceGraphic" stdDeviation="0.00" result="blur" />
      <feColorMatrix in="blur" type="matrix" values="1.15 0 0 0 0 0 1.15 0 0 0 0 0 1.15 0 0 0 0 0 1 0" result="contrast" />
      <feTurbulence type="fractalNoise" baseFrequency="0.0100" numOctaves="2" seed="22" result="noise" />
      <feDisplacementMap in="contrast" in2="noise" scale="0.00" xChannelSelector="R" yChannelSelector="G" result="warp" />
      <feMerge>
        <feMergeNode in="warp" />
      </feMerge>
    </filter>
  

    <filter id="film-1-tilt" x="-20%" y="-20%" width="140%" height="140%">
      <feGaussianBlur in="SourceGraphic" stdDeviation="0.00" result="blur" />
      <feColorMatrix in="blur" type="matrix" values="1.15 0 0 0 0 0 1.15 0 0 0 0 0 1.15 0 0 0 0 0 1 0" result="contrast" />
      <feTurbulence type="fractalNoise" baseFrequency="0.0100" numOctaves="2" seed="21" result="noise" />
      <feDisplacementMap in="contrast" in2="noise" scale="0.00" xChannelSelector="R" yChannelSelector="G" result="warp" />
      <feMerge>
        <feMergeNode in="warp" />
      </feMerge>
    </filter>
  

    <filter id="film-1-macro" x="-20%" y="-20%" width="140%" height="140%">
      <feGaussianBlur in="SourceGraphic" stdDeviation="0.00" result="blur" />
      <feColorMatrix in="blur" type="matrix" values="1.15 0 0 0 0 0 1.15 0 0 0 0 0 1.15 0 0 0 0 0 1 0" result="contrast" />
      <feTurbulence type="fractalNoise" baseFrequency="0.0130" numOctaves="2" seed="22" result="noise" />
      <feDisplacementMap in="contrast" in2="noise" scale="0.00" xChannelSelector="R" yChannelSelector="G" result="warp" />
      <feMerge>
        <feMergeNode in="warp" />
      </feMerge>
    </filter>
  
    </defs>
    <rect width="100%" height="100%" fill="url(#bg-1)" />
    <rect x="40" y="40" width="944" height="944" rx="72" fill="#ffffff" opacity="0.24" />
    <rect x="72" y="72" width="880" height="880" rx="58" fill="#ffffff" opacity="0.15" />
  
  
    <g transform="translate(512 512) rotate(4) skewX(3) skewY(-2) scale(1.18) translate(-504 -510)" filter="url(#film-1-macro)" opacity="1">
      <rect x="0" y="0" width="1024" height="1024" fill="transparent" />
      <g fill="#800080" shape-rendering="crispEdges">
        <rect x="178.67" y="178.67" width="26.67" height="26.67" rx="1.60" />
<rect x="205.33" y="178.67" width="26.67" height="26.67" rx="1.60" />
<rect x="232.00" y="178.67" width="26.67" height="26.67" rx="1.60" />
<rect x="258.67" y="178.67" width="26.67" height="26.67" rx="1.60" />
<rect x="285.33" y="178.67" width="26.67" height="26.67" rx="1.60" />
<rect x="312.00" y="178.67" width="26.67" height="26.67" rx="1.60" />
<rect x="338.67" y="178.67" width="26.67" height="26.67" rx="1.60" />
<rect x="418.67" y="178.67" width="26.67" height="26.67" rx="1.60" />
<rect x="472.00" y="178.67" width="26.67" height="26.67" rx="1.60" />
<rect x="525.33" y="178.67" width="26.67" height="26.67" rx="1.60" />
<rect x="552.00" y="178.67" width="26.67" height="26.67" rx="1.60" />
<rect x="578.67" y="178.67" width="26.67" height="26.67" rx="1.60" />
<rect x="658.67" y="178.67" width="26.67" height="26.67" rx="1.60" />
<rect x="685.33" y="178.67" width="26.67" height="26.67" rx="1.60" />
<rect x="712.00" y="178.67" width="26.67" height="26.67" rx="1.60" />
<rect x="738.67" y="178.67" width="26.67" height="26.67" rx="1.60" />
<rect x="765.33" y="178.67" width="26.67" height="26.67" rx="1.60" />
<rect x="792.00" y="178.67" width="26.67" height="26.67" rx="1.60" />
<rect x="818.67" y="178.67" width="26.67" height="26.67" rx="1.60" />
<rect x="178.67" y="205.33" width="26.67" height="26.67" rx="1.60" />
<rect x="338.67" y="205.33" width="26.67" height="26.67" rx="1.60" />
<rect x="392.00" y="205.33" width="26.67" height="26.67" rx="1.60" />
<rect x="418.67" y="205.33" width="26.67" height="26.67" rx="1.60" />
<rect x="445.33" y="205.33" width="26.67" height="26.67" rx="1.60" />
<rect x="472.00" y="205.33" width="26.67" height="26.67" rx="1.60" />
<rect x="552.00" y="205.33" width="26.67" height="26.67" rx="1.60" />
<rect x="658.67" y="205.33" width="26.67" height="26.67" rx="1.60" />
<rect x="818.67" y="205.33" width="26.67" height="26.67" rx="1.60" />
<rect x="178.67" y="232.00" width="26.67" height="26.67" rx="1.60" />
<rect x="232.00" y="232.00" width="26.67" height="26.67" rx="1.60" />
<rect x="258.67" y="232.00" width="26.67" height="26.67" rx="1.60" />
<rect x="285.33" y="232.00" width="26.67" height="26.67" rx="1.60" />
<rect x="338.67" y="232.00" width="26.67" height="26.67" rx="1.60" />
<rect x="392.00" y="232.00" width="26.67" height="26.67" rx="1.60" />
<rect x="445.33" y="232.00" width="26.67" height="26.67" rx="1.60" />
<rect x="498.67" y="232.00" width="26.67" height="26.67" rx="1.60" />
<rect x="525.33" y="232.00" width="26.67" height="26.67" rx="1.60" />
<rect x="658.67" y="232.00" width="26.67" height="26.67" rx="1.60" />
<rect x="712.00" y="232.00" width="26.67" height="26.67" rx="1.60" />
<rect x="738.67" y="232.00" width="26.67" height="26.67" rx="1.60" />
<rect x="765.33" y="232.00" width="26.67" height="26.67" rx="1.60" />
<rect x="818.67" y="232.00" width="26.67" height="26.67" rx="1.60" />
<rect x="178.67" y="258.67" width="26.67" height="26.67" rx="1.60" />
<rect x="232.00" y="258.67" width="26.67" height="26.67" rx="1.60" />
<rect x="258.67" y="258.67" width="26.67" height="26.67" rx="1.60" />
<rect x="285.33" y="258.67" width="26.67" height="26.67" rx="1.60" />
<rect x="338.67" y="258.67" width="26.67" height="26.67" rx="1.60" />
<rect x="392.00" y="258.67" width="26.67" height="26.67" rx="1.60" />
<rect x="418.67" y="258.67" width="26.67" height="26.67" rx="1.60" />
<rect x="472.00" y="258.67" width="26.67" height="26.67" rx="1.60" />
<rect x="552.00" y="258.67" width="26.67" height="26.67" rx="1.60" />
<rect x="658.67" y="258.67" width="26.67" height="26.67" rx="1.60" />
<rect x="712.00" y="258.67" width="26.67" height="26.67" rx="1.60" />
<rect x="738.67" y="258.67" width="26.67" height="26.67" rx="1.60" />
<rect x="765.33" y="258.67" width="26.67" height="26.67" rx="1.60" />
<rect x="818.67" y="258.67" width="26.67" height="26.67" rx="1.60" />
<rect x="178.67" y="285.33" width="26.67" height="26.67" rx="1.60" />
<rect x="232.00" y="285.33" width="26.67" height="26.67" rx="1.60" />
<rect x="258.67" y="285.33" width="26.67" height="26.67" rx="1.60" />
<rect x="285.33" y="285.33" width="26.67" height="26.67" rx="1.60" />
<rect x="338.67" y="285.33" width="26.67" height="26.67" rx="1.60" />
<rect x="392.00" y="285.33" width="26.67" height="26.67" rx="1.60" />
<rect x="418.67" y="285.33" width="26.67" height="26.67" rx="1.60" />
<rect x="472.00" y="285.33" width="26.67" height="26.67" rx="1.60" />
<rect x="525.33" y="285.33" width="26.67" height="26.67" rx="1.60" />
<rect x="552.00" y="285.33" width="26.67" height="26.67" rx="1.60" />
<rect x="578.67" y="285.33" width="26.67" height="26.67" rx="1.60" />
<rect x="658.67" y="285.33" width="26.67" height="26.67" rx="1.60" />
<rect x="712.00" y="285.33" width="26.67" height="26.67" rx="1.60" />
<rect x="738.67" y="285.33" width="26.67" height="26.67" rx="1.60" />
<rect x="765.33" y="285.33" width="26.67" height="26.67" rx="1.60" />
<rect x="818.67" y="285.33" width="26.67" height="26.67" rx="1.60" />
<rect x="178.67" y="312.00" width="26.67" height="26.67" rx="1.60" />
<rect x="338.67" y="312.00" width="26.67" height="26.67" rx="1.60" />
<rect x="392.00" y="312.00" width="26.67" height="26.67" rx="1.60" />
<rect x="445.33" y="312.00" width="26.67" height="26.67" rx="1.60" />
<rect x="472.00" y="312.00" width="26.67" height="26.67" rx="1.60" />
<rect x="498.67" y="312.00" width="26.67" height="26.67" rx="1.60" />
<rect x="525.33" y="312.00" width="26.67" height="26.67" rx="1.60" />
<rect x="578.67" y="312.00" width="26.67" height="26.67" rx="1.60" />
<rect x="605.33" y="312.00" width="26.67" height="26.67" rx="1.60" />
<rect x="658.67" y="312.00" width="26.67" height="26.67" rx="1.60" />
<rect x="818.67" y="312.00" width="26.67" height="26.67" rx="1.60" />
<rect x="178.67" y="338.67" width="26.67" height="26.67" rx="1.60" />
<rect x="205.33" y="338.67" width="26.67" height="26.67" rx="1.60" />
<rect x="232.00" y="338.67" width="26.67" height="26.67" rx="1.60" />
<rect x="258.67" y="338.67" width="26.67" height="26.67" rx="1.60" />
<rect x="285.33" y="338.67" width="26.67" height="26.67" rx="1.60" />
<rect x="312.00" y="338.67" width="26.67" height="26.67" rx="1.60" />
<rect x="338.67" y="338.67" width="26.67" height="26.67" rx="1.60" />
<rect x="392.00" y="338.67" width="26.67" height="26.67" rx="1.60" />
<rect x="445.33" y="338.67" width="26.67" height="26.67" rx="1.60" />
<rect x="498.67" y="338.67" width="26.67" height="26.67" rx="1.60" />
<rect x="552.00" y="338.67" width="26.67" height="26.67" rx="1.60" />
<rect x="605.33" y="338.67" width="26.67" height="26.67" rx="1.60" />
<rect x="658.67" y="338.67" width="26.67" height="26.67" rx="1.60" />
<rect x="685.33" y="338.67" width="26.67" height="26.67" rx="1.60" />
<rect x="712.00" y="338.67" width="26.67" height="26.67" rx="1.60" />
<rect x="738.67" y="338.67" width="26.67" height="26.67" rx="1.60" />
<rect x="765.33" y="338.67" width="26.67" height="26.67" rx="1.60" />
<rect x="792.00" y="338.67" width="26.67" height="26.67" rx="1.60" />
<rect x="818.67" y="338.67" width="26.67" height="26.67" rx="1.60" />
<rect x="418.67" y="365.33" width="26.67" height="26.67" rx="1.60" />
<rect x="552.00" y="365.33" width="26.67" height="26.67" rx="1.60" />
<rect x="578.67" y="365.33" width="26.67" height="26.67" rx="1.60" />
<rect x="605.33" y="365.33" width="26.67" height="26.67" rx="1.60" />
<rect x="232.00" y="392.00" width="26.67" height="26.67" rx="1.60" />
<rect x="312.00" y="392.00" width="26.67" height="26.67" rx="1.60" />
<rect x="338.67" y="392.00" width="26.67" height="26.67" rx="1.60" />
<rect x="365.33" y="392.00" width="26.67" height="26.67" rx="1.60" />
<rect x="392.00" y="392.00" width="26.67" height="26.67" rx="1.60" />
<rect x="418.67" y="392.00" width="26.67" height="26.67" rx="1.60" />
<rect x="472.00" y="392.00" width="26.67" height="26.67" rx="1.60" />
<rect x="498.67" y="392.00" width="26.67" height="26.67" rx="1.60" />
<rect x="578.67" y="392.00" width="26.67" height="26.67" rx="1.60" />
<rect x="632.00" y="392.00" width="26.67" height="26.67" rx="1.60" />
<rect x="685.33" y="392.00" width="26.67" height="26.67" rx="1.60" />
<rect x="712.00" y="392.00" width="26.67" height="26.67" rx="1.60" />
<rect x="738.67" y="392.00" width="26.67" height="26.67" rx="1.60" />
<rect x="765.33" y="392.00" width="26.67" height="26.67" rx="1.60" />
<rect x="792.00" y="392.00" width="26.67" height="26.67" rx="1.60" />
<rect x="258.67" y="418.67" width="26.67" height="26.67" rx="1.60" />
<rect x="365.33" y="418.67" width="26.67" height="26.67" rx="1.60" />
<rect x="418.67" y="418.67" width="26.67" height="26.67" rx="1.60" />
<rect x="445.33" y="418.67" width="26.67" height="26.67" rx="1.60" />
<rect x="472.00" y="418.67" width="26.67" height="26.67" rx="1.60" />
<rect x="525.33" y="418.67" width="26.67" height="26.67" rx="1.60" />
<rect x="552.00" y="418.67" width="26.67" height="26.67" rx="1.60" />
<rect x="632.00" y="418.67" width="26.67" height="26.67" rx="1.60" />
<rect x="658.67" y="418.67" width="26.67" height="26.67" rx="1.60" />
<rect x="685.33" y="418.67" width="26.67" height="26.67" rx="1.60" />
<rect x="712.00" y="418.67" width="26.67" height="26.67" rx="1.60" />
<rect x="765.33" y="418.67" width="26.67" height="26.67" rx="1.60" />
<rect x="792.00" y="418.67" width="26.67" height="26.67" rx="1.60" />
<rect x="178.67" y="445.33" width="26.67" height="26.67" rx="1.60" />
<rect x="205.33" y="445.33" width="26.67" height="26.67" rx="1.60" />
<rect x="285.33" y="445.33" width="26.67" height="26.67" rx="1.60" />
<rect x="338.67" y="445.33" width="26.67" height="26.67" rx="1.60" />
<rect x="365.33" y="445.33" width="26.67" height="26.67" rx="1.60" />
<rect x="445.33" y="445.33" width="26.67" height="26.67" rx="1.60" />
<rect x="472.00" y="445.33" width="26.67" height="26.67" rx="1.60" />
<rect x="525.33" y="445.33" width="26.67" height="26.67" rx="1.60" />
<rect x="578.67" y="445.33" width="26.67" height="26.67" rx="1.60" />
<rect x="605.33" y="445.33" width="26.67" height="26.67" rx="1.60" />
<rect x="632.00" y="445.33" width="26.67" height="26.67" rx="1.60" />
<rect x="685.33" y="445.33" width="26.67" height="26.67" rx="1.60" />
<rect x="792.00" y="445.33" width="26.67" height="26.67" rx="1.60" />
<rect x="178.67" y="472.00" width="26.67" height="26.67" rx="1.60" />
<rect x="285.33" y="472.00" width="26.67" height="26.67" rx="1.60" />
<rect x="392.00" y="472.00" width="26.67" height="26.67" rx="1.60" />
<rect x="445.33" y="472.00" width="26.67" height="26.67" rx="1.60" />
<rect x="498.67" y="472.00" width="26.67" height="26.67" rx="1.60" />
<rect x="632.00" y="472.00" width="26.67" height="26.67" rx="1.60" />
<rect x="712.00" y="472.00" width="26.67" height="26.67" rx="1.60" />
<rect x="818.67" y="472.00" width="26.67" height="26.67" rx="1.60" />
<rect x="178.67" y="498.67" width="26.67" height="26.67" rx="1.60" />
<rect x="258.67" y="498.67" width="26.67" height="26.67" rx="1.60" />
<rect x="285.33" y="498.67" width="26.67" height="26.67" rx="1.60" />
<rect x="338.67" y="498.67" width="26.67" height="26.67" rx="1.60" />
<rect x="445.33" y="498.67" width="26.67" height="26.67" rx="1.60" />
<rect x="525.33" y="498.67" width="26.67" height="26.67" rx="1.60" />
<rect x="658.67" y="498.67" width="26.67" height="26.67" rx="1.60" />
<rect x="685.33" y="498.67" width="26.67" height="26.67" rx="1.60" />
<rect x="712.00" y="498.67" width="26.67" height="26.67" rx="1.60" />
<rect x="232.00" y="525.33" width="26.67" height="26.67" rx="1.60" />
<rect x="285.33" y="525.33" width="26.67" height="26.67" rx="1.60" />
<rect x="472.00" y="525.33" width="26.67" height="26.67" rx="1.60" />
<rect x="498.67" y="525.33" width="26.67" height="26.67" rx="1.60" />
<rect x="685.33" y="525.33" width="26.67" height="26.67" rx="1.60" />
<rect x="738.67" y="525.33" width="26.67" height="26.67" rx="1.60" />
<rect x="792.00" y="525.33" width="26.67" height="26.67" rx="1.60" />
<rect x="178.67" y="552.00" width="26.67" height="26.67" rx="1.60" />
<rect x="205.33" y="552.00" width="26.67" height="26.67" rx="1.60" />
<rect x="232.00" y="552.00" width="26.67" height="26.67" rx="1.60" />
<rect x="258.67" y="552.00" width="26.67" height="26.67" rx="1.60" />
<rect x="285.33" y="552.00" width="26.67" height="26.67" rx="1.60" />
<rect x="338.67" y="552.00" width="26.67" height="26.67" rx="1.60" />
<rect x="365.33" y="552.00" width="26.67" height="26.67" rx="1.60" />
<rect x="392.00" y="552.00" width="26.67" height="26.67" rx="1.60" />
<rect x="418.67" y="552.00" width="26.67" height="26.67" rx="1.60" />
<rect x="445.33" y="552.00" width="26.67" height="26.67" rx="1.60" />
<rect x="472.00" y="552.00" width="26.67" height="26.67" rx="1.60" />
<rect x="498.67" y="552.00" width="26.67" height="26.67" rx="1.60" />
<rect x="525.33" y="552.00" width="26.67" height="26.67" rx="1.60" />
<rect x="552.00" y="552.00" width="26.67" height="26.67" rx="1.60" />
<rect x="578.67" y="552.00" width="26.67" height="26.67" rx="1.60" />
<rect x="632.00" y="552.00" width="26.67" height="26.67" rx="1.60" />
<rect x="738.67" y="552.00" width="26.67" height="26.67" rx="1.60" />
<rect x="765.33" y="552.00" width="26.67" height="26.67" rx="1.60" />
<rect x="258.67" y="578.67" width="26.67" height="26.67" rx="1.60" />
<rect x="312.00" y="578.67" width="26.67" height="26.67" rx="1.60" />
<rect x="365.33" y="578.67" width="26.67" height="26.67" rx="1.60" />
<rect x="392.00" y="578.67" width="26.67" height="26.67" rx="1.60" />
<rect x="632.00" y="578.67" width="26.67" height="26.67" rx="1.60" />
<rect x="712.00" y="578.67" width="26.67" height="26.67" rx="1.60" />
<rect x="738.67" y="578.67" width="26.67" height="26.67" rx="1.60" />
<rect x="818.67" y="578.67" width="26.67" height="26.67" rx="1.60" />
<rect x="178.67" y="605.33" width="26.67" height="26.67" rx="1.60" />
<rect x="205.33" y="605.33" width="26.67" height="26.67" rx="1.60" />
<rect x="312.00" y="605.33" width="26.67" height="26.67" rx="1.60" />
<rect x="338.67" y="605.33" width="26.67" height="26.67" rx="1.60" />
<rect x="365.33" y="605.33" width="26.67" height="26.67" rx="1.60" />
<rect x="392.00" y="605.33" width="26.67" height="26.67" rx="1.60" />
<rect x="418.67" y="605.33" width="26.67" height="26.67" rx="1.60" />
<rect x="498.67" y="605.33" width="26.67" height="26.67" rx="1.60" />
<rect x="525.33" y="605.33" width="26.67" height="26.67" rx="1.60" />
<rect x="578.67" y="605.33" width="26.67" height="26.67" rx="1.60" />
<rect x="605.33" y="605.33" width="26.67" height="26.67" rx="1.60" />
<rect x="632.00" y="605.33" width="26.67" height="26.67" rx="1.60" />
<rect x="658.67" y="605.33" width="26.67" height="26.67" rx="1.60" />
<rect x="685.33" y="605.33" width="26.67" height="26.67" rx="1.60" />
<rect x="712.00" y="605.33" width="26.67" height="26.67" rx="1.60" />
<rect x="765.33" y="605.33" width="26.67" height="26.67" rx="1.60" />
<rect x="792.00" y="605.33" width="26.67" height="26.67" rx="1.60" />
<rect x="392.00" y="632.00" width="26.67" height="26.67" rx="1.60" />
<rect x="445.33" y="632.00" width="26.67" height="26.67" rx="1.60" />
<rect x="498.67" y="632.00" width="26.67" height="26.67" rx="1.60" />
<rect x="605.33" y="632.00" width="26.67" height="26.67" rx="1.60" />
<rect x="712.00" y="632.00" width="26.67" height="26.67" rx="1.60" />
<rect x="738.67" y="632.00" width="26.67" height="26.67" rx="1.60" />
<rect x="178.67" y="658.67" width="26.67" height="26.67" rx="1.60" />
<rect x="205.33" y="658.67" width="26.67" height="26.67" rx="1.60" />
<rect x="232.00" y="658.67" width="26.67" height="26.67" rx="1.60" />
<rect x="258.67" y="658.67" width="26.67" height="26.67" rx="1.60" />
<rect x="285.33" y="658.67" width="26.67" height="26.67" rx="1.60" />
<rect x="312.00" y="658.67" width="26.67" height="26.67" rx="1.60" />
<rect x="338.67" y="658.67" width="26.67" height="26.67" rx="1.60" />
<rect x="392.00" y="658.67" width="26.67" height="26.67" rx="1.60" />
<rect x="445.33" y="658.67" width="26.67" height="26.67" rx="1.60" />
<rect x="498.67" y="658.67" width="26.67" height="26.67" rx="1.60" />
<rect x="525.33" y="658.67" width="26.67" height="26.67" rx="1.60" />
<rect x="552.00" y="658.67" width="26.67" height="26.67" rx="1.60" />
<rect x="578.67" y="658.67" width="26.67" height="26.67" rx="1.60" />
<rect x="605.33" y="658.67" width="26.67" height="26.67" rx="1.60" />
<rect x="658.67" y="658.67" width="26.67" height="26.67" rx="1.60" />
<rect x="712.00" y="658.67" width="26.67" height="26.67" rx="1.60" />
<rect x="178.67" y="685.33" width="26.67" height="26.67" rx="1.60" />
<rect x="338.67" y="685.33" width="26.67" height="26.67" rx="1.60" />
<rect x="392.00" y="685.33" width="26.67" height="26.67" rx="1.60" />
<rect x="418.67" y="685.33" width="26.67" height="26.67" rx="1.60" />
<rect x="498.67" y="685.33" width="26.67" height="26.67" rx="1.60" />
<rect x="578.67" y="685.33" width="26.67" height="26.67" rx="1.60" />
<rect x="605.33" y="685.33" width="26.67" height="26.67" rx="1.60" />
<rect x="712.00" y="685.33" width="26.67" height="26.67" rx="1.60" />
<rect x="178.67" y="712.00" width="26.67" height="26.67" rx="1.60" />
<rect x="232.00" y="712.00" width="26.67" height="26.67" rx="1.60" />
<rect x="258.67" y="712.00" width="26.67" height="26.67" rx="1.60" />
<rect x="285.33" y="712.00" width="26.67" height="26.67" rx="1.60" />
<rect x="338.67" y="712.00" width="26.67" height="26.67" rx="1.60" />
<rect x="418.67" y="712.00" width="26.67" height="26.67" rx="1.60" />
<rect x="445.33" y="712.00" width="26.67" height="26.67" rx="1.60" />
<rect x="498.67" y="712.00" width="26.67" height="26.67" rx="1.60" />
<rect x="552.00" y="712.00" width="26.67" height="26.67" rx="1.60" />
<rect x="605.33" y="712.00" width="26.67" height="26.67" rx="1.60" />
<rect x="632.00" y="712.00" width="26.67" height="26.67" rx="1.60" />
<rect x="658.67" y="712.00" width="26.67" height="26.67" rx="1.60" />
<rect x="685.33" y="712.00" width="26.67" height="26.67" rx="1.60" />
<rect x="712.00" y="712.00" width="26.67" height="26.67" rx="1.60" />
<rect x="765.33" y="712.00" width="26.67" height="26.67" rx="1.60" />
<rect x="792.00" y="712.00" width="26.67" height="26.67" rx="1.60" />
<rect x="178.67" y="738.67" width="26.67" height="26.67" rx="1.60" />
<rect x="232.00" y="738.67" width="26.67" height="26.67" rx="1.60" />
<rect x="258.67" y="738.67" width="26.67" height="26.67" rx="1.60" />
<rect x="285.33" y="738.67" width="26.67" height="26.67" rx="1.60" />
<rect x="338.67" y="738.67" width="26.67" height="26.67" rx="1.60" />
<rect x="418.67" y="738.67" width="26.67" height="26.67" rx="1.60" />
<rect x="498.67" y="738.67" width="26.67" height="26.67" rx="1.60" />
<rect x="605.33" y="738.67" width="26.67" height="26.67" rx="1.60" />
<rect x="685.33" y="738.67" width="26.67" height="26.67" rx="1.60" />
<rect x="712.00" y="738.67" width="26.67" height="26.67" rx="1.60" />
<rect x="738.67" y="738.67" width="26.67" height="26.67" rx="1.60" />
<rect x="178.67" y="765.33" width="26.67" height="26.67" rx="1.60" />
<rect x="232.00" y="765.33" width="26.67" height="26.67" rx="1.60" />
<rect x="258.67" y="765.33" width="26.67" height="26.67" rx="1.60" />
<rect x="285.33" y="765.33" width="26.67" height="26.67" rx="1.60" />
<rect x="338.67" y="765.33" width="26.67" height="26.67" rx="1.60" />
<rect x="392.00" y="765.33" width="26.67" height="26.67" rx="1.60" />
<rect x="445.33" y="765.33" width="26.67" height="26.67" rx="1.60" />
<rect x="472.00" y="765.33" width="26.67" height="26.67" rx="1.60" />
<rect x="498.67" y="765.33" width="26.67" height="26.67" rx="1.60" />
<rect x="525.33" y="765.33" width="26.67" height="26.67" rx="1.60" />
<rect x="552.00" y="765.33" width="26.67" height="26.67" rx="1.60" />
<rect x="632.00" y="765.33" width="26.67" height="26.67" rx="1.60" />
<rect x="712.00" y="765.33" width="26.67" height="26.67" rx="1.60" />
<rect x="738.67" y="765.33" width="26.67" height="26.67" rx="1.60" />
<rect x="765.33" y="765.33" width="26.67" height="26.67" rx="1.60" />
<rect x="792.00" y="765.33" width="26.67" height="26.67" rx="1.60" />
<rect x="818.67" y="765.33" width="26.67" height="26.67" rx="1.60" />
<rect x="178.67" y="792.00" width="26.67" height="26.67" rx="1.60" />
<rect x="338.67" y="792.00" width="26.67" height="26.67" rx="1.60" />
<rect x="418.67" y="792.00" width="26.67" height="26.67" rx="1.60" />
<rect x="445.33" y="792.00" width="26.67" height="26.67" rx="1.60" />
<rect x="498.67" y="792.00" width="26.67" height="26.67" rx="1.60" />
<rect x="552.00" y="792.00" width="26.67" height="26.67" rx="1.60" />
<rect x="685.33" y="792.00" width="26.67" height="26.67" rx="1.60" />
<rect x="818.67" y="792.00" width="26.67" height="26.67" rx="1.60" />
<rect x="178.67" y="818.67" width="26.67" height="26.67" rx="1.60" />
<rect x="205.33" y="818.67" width="26.67" height="26.67" rx="1.60" />
<rect x="232.00" y="818.67" width="26.67" height="26.67" rx="1.60" />
<rect x="258.67" y="818.67" width="26.67" height="26.67" rx="1.60" />
<rect x="285.33" y="818.67" width="26.67" height="26.67" rx="1.60" />
<rect x="312.00" y="818.67" width="26.67" height="26.67" rx="1.60" />
<rect x="338.67" y="818.67" width="26.67" height="26.67" rx="1.60" />
<rect x="418.67" y="818.67" width="26.67" height="26.67" rx="1.60" />
<rect x="498.67" y="818.67" width="26.67" height="26.67" rx="1.60" />
<rect x="578.67" y="818.67" width="26.67" height="26.67" rx="1.60" />
<rect x="605.33" y="818.67" width="26.67" height="26.67" rx="1.60" />
<rect x="632.00" y="818.67" width="26.67" height="26.67" rx="1.60" />
<rect x="712.00" y="818.67" width="26.67" height="26.67" rx="1.60" />
<rect x="765.33" y="818.67" width="26.67" height="26.67" rx="1.60" />
<rect x="792.00" y="818.67" width="26.67" height="26.67" rx="1.60" />
<rect x="818.67" y="818.67" width="26.67" height="26.67" rx="1.60" />
      </g>
      
      <g fill="#d8d4f9" opacity="0.00">
        
      </g>
      <g opacity="0.12">
        
      </g>
    </g>
  
  <g opacity="0.12">
    <circle cx="120" cy="130" r="84" fill="#ffffff" />
    <circle cx="900" cy="166" r="96" fill="#ffffff" />
    <circle cx="856" cy="860" r="124" fill="#ffffff" />
  </g>
  <text x="72" y="974" font-family="Arial, Helvetica, sans-serif" font-size="26" font-weight="700" fill="#334155" opacity="0.72">Mã gốc - Tươi</text>
  <text x="72" y="1002" font-family="Arial, Helvetica, sans-serif" font-size="16" fill="#475569" opacity="0.74">QR-ORIGINAL-FRESH • cận cảnh macro</text>
</svg>